%TF.GenerationSoftware,KiCad,Pcbnew,5.1.9*%
%TF.CreationDate,2021-03-28T18:57:00-04:00*%
%TF.ProjectId,easybutton,65617379-6275-4747-946f-6e2e6b696361,rev?*%
%TF.SameCoordinates,Original*%
%TF.FileFunction,Legend,Top*%
%TF.FilePolarity,Positive*%
%FSLAX46Y46*%
G04 Gerber Fmt 4.6, Leading zero omitted, Abs format (unit mm)*
G04 Created by KiCad (PCBNEW 5.1.9) date 2021-03-28 18:57:00*
%MOMM*%
%LPD*%
G01*
G04 APERTURE LIST*
%ADD10C,0.150000*%
%ADD11C,0.120000*%
G04 APERTURE END LIST*
D10*
X129627333Y-85813619D02*
X129627333Y-86289809D01*
X129341619Y-85718380D02*
X130341619Y-86051714D01*
X129341619Y-86385047D01*
X129341619Y-86861238D02*
X129389238Y-86766000D01*
X129484476Y-86718380D01*
X130341619Y-86718380D01*
X129341619Y-87242190D02*
X130008285Y-87242190D01*
X130341619Y-87242190D02*
X130294000Y-87194571D01*
X130246380Y-87242190D01*
X130294000Y-87289809D01*
X130341619Y-87242190D01*
X130246380Y-87242190D01*
X130008285Y-88146952D02*
X129198761Y-88146952D01*
X129103523Y-88099333D01*
X129055904Y-88051714D01*
X129008285Y-87956476D01*
X129008285Y-87813619D01*
X129055904Y-87718380D01*
X129389238Y-88146952D02*
X129341619Y-88051714D01*
X129341619Y-87861238D01*
X129389238Y-87766000D01*
X129436857Y-87718380D01*
X129532095Y-87670761D01*
X129817809Y-87670761D01*
X129913047Y-87718380D01*
X129960666Y-87766000D01*
X130008285Y-87861238D01*
X130008285Y-88051714D01*
X129960666Y-88146952D01*
X130008285Y-88623142D02*
X129341619Y-88623142D01*
X129913047Y-88623142D02*
X129960666Y-88670761D01*
X130008285Y-88766000D01*
X130008285Y-88908857D01*
X129960666Y-89004095D01*
X129865428Y-89051714D01*
X129341619Y-89051714D01*
X129389238Y-90718380D02*
X129341619Y-90623142D01*
X129341619Y-90432666D01*
X129389238Y-90337428D01*
X129436857Y-90289809D01*
X129532095Y-90242190D01*
X129817809Y-90242190D01*
X129913047Y-90289809D01*
X129960666Y-90337428D01*
X130008285Y-90432666D01*
X130008285Y-90623142D01*
X129960666Y-90718380D01*
X129341619Y-91289809D02*
X129389238Y-91194571D01*
X129436857Y-91146952D01*
X129532095Y-91099333D01*
X129817809Y-91099333D01*
X129913047Y-91146952D01*
X129960666Y-91194571D01*
X130008285Y-91289809D01*
X130008285Y-91432666D01*
X129960666Y-91527904D01*
X129913047Y-91575523D01*
X129817809Y-91623142D01*
X129532095Y-91623142D01*
X129436857Y-91575523D01*
X129389238Y-91527904D01*
X129341619Y-91432666D01*
X129341619Y-91289809D01*
X130008285Y-92051714D02*
X129341619Y-92051714D01*
X129913047Y-92051714D02*
X129960666Y-92099333D01*
X130008285Y-92194571D01*
X130008285Y-92337428D01*
X129960666Y-92432666D01*
X129865428Y-92480285D01*
X129341619Y-92480285D01*
X130008285Y-92813619D02*
X130008285Y-93194571D01*
X130341619Y-92956476D02*
X129484476Y-92956476D01*
X129389238Y-93004095D01*
X129341619Y-93099333D01*
X129341619Y-93194571D01*
X129341619Y-93527904D02*
X130008285Y-93527904D01*
X129817809Y-93527904D02*
X129913047Y-93575523D01*
X129960666Y-93623142D01*
X130008285Y-93718380D01*
X130008285Y-93813619D01*
X129341619Y-94289809D02*
X129389238Y-94194571D01*
X129436857Y-94146952D01*
X129532095Y-94099333D01*
X129817809Y-94099333D01*
X129913047Y-94146952D01*
X129960666Y-94194571D01*
X130008285Y-94289809D01*
X130008285Y-94432666D01*
X129960666Y-94527904D01*
X129913047Y-94575523D01*
X129817809Y-94623142D01*
X129532095Y-94623142D01*
X129436857Y-94575523D01*
X129389238Y-94527904D01*
X129341619Y-94432666D01*
X129341619Y-94289809D01*
X129341619Y-95194571D02*
X129389238Y-95099333D01*
X129484476Y-95051714D01*
X130341619Y-95051714D01*
X129341619Y-95718380D02*
X129389238Y-95623142D01*
X129484476Y-95575523D01*
X130341619Y-95575523D01*
X129389238Y-96480285D02*
X129341619Y-96385047D01*
X129341619Y-96194571D01*
X129389238Y-96099333D01*
X129484476Y-96051714D01*
X129865428Y-96051714D01*
X129960666Y-96099333D01*
X130008285Y-96194571D01*
X130008285Y-96385047D01*
X129960666Y-96480285D01*
X129865428Y-96527904D01*
X129770190Y-96527904D01*
X129674952Y-96051714D01*
X129341619Y-96956476D02*
X130008285Y-96956476D01*
X129817809Y-96956476D02*
X129913047Y-97004095D01*
X129960666Y-97051714D01*
X130008285Y-97146952D01*
X130008285Y-97242190D01*
X130008285Y-98194571D02*
X130008285Y-98575523D01*
X130341619Y-98337428D02*
X129484476Y-98337428D01*
X129389238Y-98385047D01*
X129341619Y-98480285D01*
X129341619Y-98575523D01*
X129341619Y-99051714D02*
X129389238Y-98956476D01*
X129436857Y-98908857D01*
X129532095Y-98861238D01*
X129817809Y-98861238D01*
X129913047Y-98908857D01*
X129960666Y-98956476D01*
X130008285Y-99051714D01*
X130008285Y-99194571D01*
X129960666Y-99289809D01*
X129913047Y-99337428D01*
X129817809Y-99385047D01*
X129532095Y-99385047D01*
X129436857Y-99337428D01*
X129389238Y-99289809D01*
X129341619Y-99194571D01*
X129341619Y-99051714D01*
X130008285Y-100432666D02*
X130008285Y-100813619D01*
X130341619Y-100575523D02*
X129484476Y-100575523D01*
X129389238Y-100623142D01*
X129341619Y-100718380D01*
X129341619Y-100813619D01*
X129341619Y-101146952D02*
X130341619Y-101146952D01*
X129341619Y-101575523D02*
X129865428Y-101575523D01*
X129960666Y-101527904D01*
X130008285Y-101432666D01*
X130008285Y-101289809D01*
X129960666Y-101194571D01*
X129913047Y-101146952D01*
X129341619Y-102051714D02*
X130008285Y-102051714D01*
X130341619Y-102051714D02*
X130294000Y-102004095D01*
X130246380Y-102051714D01*
X130294000Y-102099333D01*
X130341619Y-102051714D01*
X130246380Y-102051714D01*
X129389238Y-102480285D02*
X129341619Y-102575523D01*
X129341619Y-102766000D01*
X129389238Y-102861238D01*
X129484476Y-102908857D01*
X129532095Y-102908857D01*
X129627333Y-102861238D01*
X129674952Y-102766000D01*
X129674952Y-102623142D01*
X129722571Y-102527904D01*
X129817809Y-102480285D01*
X129865428Y-102480285D01*
X129960666Y-102527904D01*
X130008285Y-102623142D01*
X130008285Y-102766000D01*
X129960666Y-102861238D01*
X129389238Y-104051714D02*
X129341619Y-104146952D01*
X129341619Y-104337428D01*
X129389238Y-104432666D01*
X129484476Y-104480285D01*
X129532095Y-104480285D01*
X129627333Y-104432666D01*
X129674952Y-104337428D01*
X129674952Y-104194571D01*
X129722571Y-104099333D01*
X129817809Y-104051714D01*
X129865428Y-104051714D01*
X129960666Y-104099333D01*
X130008285Y-104194571D01*
X130008285Y-104337428D01*
X129960666Y-104432666D01*
X129341619Y-104908857D02*
X130008285Y-104908857D01*
X130341619Y-104908857D02*
X130294000Y-104861238D01*
X130246380Y-104908857D01*
X130294000Y-104956476D01*
X130341619Y-104908857D01*
X130246380Y-104908857D01*
X129341619Y-105813619D02*
X130341619Y-105813619D01*
X129389238Y-105813619D02*
X129341619Y-105718380D01*
X129341619Y-105527904D01*
X129389238Y-105432666D01*
X129436857Y-105385047D01*
X129532095Y-105337428D01*
X129817809Y-105337428D01*
X129913047Y-105385047D01*
X129960666Y-105432666D01*
X130008285Y-105527904D01*
X130008285Y-105718380D01*
X129960666Y-105813619D01*
X129389238Y-106670761D02*
X129341619Y-106575523D01*
X129341619Y-106385047D01*
X129389238Y-106289809D01*
X129484476Y-106242190D01*
X129865428Y-106242190D01*
X129960666Y-106289809D01*
X130008285Y-106385047D01*
X130008285Y-106575523D01*
X129960666Y-106670761D01*
X129865428Y-106718380D01*
X129770190Y-106718380D01*
X129674952Y-106242190D01*
D11*
%TO.C,D1*%
X143470000Y-121920000D02*
G75*
G03*
X143470000Y-121920000I-2500000J0D01*
G01*
X143530000Y-123465000D02*
X143530000Y-120375000D01*
X137980000Y-121919538D02*
G75*
G03*
X143530000Y-123464830I2990000J-462D01*
G01*
X137980000Y-121920462D02*
G75*
G02*
X143530000Y-120375170I2990000J462D01*
G01*
%TO.C,R1*%
X144240000Y-82650000D02*
X144240000Y-79910000D01*
X144240000Y-79910000D02*
X137700000Y-79910000D01*
X137700000Y-79910000D02*
X137700000Y-82650000D01*
X137700000Y-82650000D02*
X144240000Y-82650000D01*
X145010000Y-81280000D02*
X144240000Y-81280000D01*
X136930000Y-81280000D02*
X137700000Y-81280000D01*
%TO.C,SW1*%
X133715000Y-107735000D02*
X138215000Y-107735000D01*
X132465000Y-103735000D02*
X132465000Y-105235000D01*
X138215000Y-101235000D02*
X133715000Y-101235000D01*
X139465000Y-105235000D02*
X139465000Y-103735000D01*
%TO.C,BZ1*%
X136360000Y-85670000D02*
X136030000Y-85670000D01*
X136360000Y-92240000D02*
X136360000Y-89590000D01*
X145580000Y-92240000D02*
X136360000Y-92240000D01*
X145580000Y-89590000D02*
X145580000Y-92240000D01*
X145580000Y-83020000D02*
X145580000Y-85670000D01*
X136360000Y-83020000D02*
X145580000Y-83020000D01*
X136360000Y-85670000D02*
X136360000Y-83020000D01*
%TO.C,R2*%
X137700000Y-112930000D02*
X137700000Y-115670000D01*
X137700000Y-115670000D02*
X144240000Y-115670000D01*
X144240000Y-115670000D02*
X144240000Y-112930000D01*
X144240000Y-112930000D02*
X137700000Y-112930000D01*
X136930000Y-114300000D02*
X137700000Y-114300000D01*
X145010000Y-114300000D02*
X144240000Y-114300000D01*
%TO.C,D1*%
D10*
X140231904Y-118562380D02*
X140231904Y-117562380D01*
X140470000Y-117562380D01*
X140612857Y-117610000D01*
X140708095Y-117705238D01*
X140755714Y-117800476D01*
X140803333Y-117990952D01*
X140803333Y-118133809D01*
X140755714Y-118324285D01*
X140708095Y-118419523D01*
X140612857Y-118514761D01*
X140470000Y-118562380D01*
X140231904Y-118562380D01*
X141755714Y-118562380D02*
X141184285Y-118562380D01*
X141470000Y-118562380D02*
X141470000Y-117562380D01*
X141374761Y-117705238D01*
X141279523Y-117800476D01*
X141184285Y-117848095D01*
%TO.C,R1*%
X140803333Y-79192380D02*
X140470000Y-78716190D01*
X140231904Y-79192380D02*
X140231904Y-78192380D01*
X140612857Y-78192380D01*
X140708095Y-78240000D01*
X140755714Y-78287619D01*
X140803333Y-78382857D01*
X140803333Y-78525714D01*
X140755714Y-78620952D01*
X140708095Y-78668571D01*
X140612857Y-78716190D01*
X140231904Y-78716190D01*
X141755714Y-79192380D02*
X141184285Y-79192380D01*
X141470000Y-79192380D02*
X141470000Y-78192380D01*
X141374761Y-78335238D01*
X141279523Y-78430476D01*
X141184285Y-78478095D01*
%TO.C,SW1*%
X134556666Y-100639761D02*
X134699523Y-100687380D01*
X134937619Y-100687380D01*
X135032857Y-100639761D01*
X135080476Y-100592142D01*
X135128095Y-100496904D01*
X135128095Y-100401666D01*
X135080476Y-100306428D01*
X135032857Y-100258809D01*
X134937619Y-100211190D01*
X134747142Y-100163571D01*
X134651904Y-100115952D01*
X134604285Y-100068333D01*
X134556666Y-99973095D01*
X134556666Y-99877857D01*
X134604285Y-99782619D01*
X134651904Y-99735000D01*
X134747142Y-99687380D01*
X134985238Y-99687380D01*
X135128095Y-99735000D01*
X135461428Y-99687380D02*
X135699523Y-100687380D01*
X135890000Y-99973095D01*
X136080476Y-100687380D01*
X136318571Y-99687380D01*
X137223333Y-100687380D02*
X136651904Y-100687380D01*
X136937619Y-100687380D02*
X136937619Y-99687380D01*
X136842380Y-99830238D01*
X136747142Y-99925476D01*
X136651904Y-99973095D01*
%TO.C,BZ1*%
X140089047Y-93908571D02*
X140231904Y-93956190D01*
X140279523Y-94003809D01*
X140327142Y-94099047D01*
X140327142Y-94241904D01*
X140279523Y-94337142D01*
X140231904Y-94384761D01*
X140136666Y-94432380D01*
X139755714Y-94432380D01*
X139755714Y-93432380D01*
X140089047Y-93432380D01*
X140184285Y-93480000D01*
X140231904Y-93527619D01*
X140279523Y-93622857D01*
X140279523Y-93718095D01*
X140231904Y-93813333D01*
X140184285Y-93860952D01*
X140089047Y-93908571D01*
X139755714Y-93908571D01*
X140660476Y-93432380D02*
X141327142Y-93432380D01*
X140660476Y-94432380D01*
X141327142Y-94432380D01*
X142231904Y-94432380D02*
X141660476Y-94432380D01*
X141946190Y-94432380D02*
X141946190Y-93432380D01*
X141850952Y-93575238D01*
X141755714Y-93670476D01*
X141660476Y-93718095D01*
%TO.C,R2*%
X140803333Y-112382380D02*
X140470000Y-111906190D01*
X140231904Y-112382380D02*
X140231904Y-111382380D01*
X140612857Y-111382380D01*
X140708095Y-111430000D01*
X140755714Y-111477619D01*
X140803333Y-111572857D01*
X140803333Y-111715714D01*
X140755714Y-111810952D01*
X140708095Y-111858571D01*
X140612857Y-111906190D01*
X140231904Y-111906190D01*
X141184285Y-111477619D02*
X141231904Y-111430000D01*
X141327142Y-111382380D01*
X141565238Y-111382380D01*
X141660476Y-111430000D01*
X141708095Y-111477619D01*
X141755714Y-111572857D01*
X141755714Y-111668095D01*
X141708095Y-111810952D01*
X141136666Y-112382380D01*
X141755714Y-112382380D01*
%TD*%
M02*
