M48
; DRILL file {KiCad 5.1.9} date Sun Mar 28 18:57:01 2021
; FORMAT={-:-/ absolute / inch / decimal}
; #@! TF.CreationDate,2021-03-28T18:57:01-04:00
; #@! TF.GenerationSoftware,Kicad,Pcbnew,5.1.9
FMAT,2
INCH
T1C0.0300
T2C0.0315
T3C0.0354
T4C0.0394
T5C0.0433
%
G90
G05
T1
X5.0Y-3.0938
X5.0Y-3.1938
X5.0Y-3.2937
X5.0Y-3.3937
X5.0Y-3.4937
X5.0Y-3.5938
X5.0Y-3.6938
X5.0Y-3.7937
X5.0Y-3.8937
X5.0Y-3.9937
X5.0Y-4.0938
X5.0Y-4.1937
X5.0Y-4.2938
X5.0Y-4.3937
X5.0Y-4.4937
X6.1Y-3.0938
X6.1Y-3.1938
X6.1Y-3.2937
X6.1Y-3.3937
X6.1Y-3.4937
X6.1Y-3.5938
X6.1Y-3.6938
X6.1Y-3.7937
X6.1Y-3.8937
X6.1Y-3.9937
X6.1Y-4.0938
X6.1Y-4.1937
X6.1Y-4.2938
X6.1Y-4.3937
X6.1Y-4.4937
T2
X5.35Y-3.2
X5.35Y-4.5
X5.75Y-3.2
X5.75Y-4.5
T3
X5.5Y-4.8
X5.6Y-4.8
T4
X6.0Y-3.093
X6.0Y-3.193
X6.0Y-3.293
X6.0Y-3.393
X6.0Y-3.493
X6.0Y-3.593
X6.0Y-3.693
X6.0Y-3.793
X6.0Y-3.893
X6.0Y-3.993
X6.0Y-4.093
X6.0Y-4.193
X6.0Y-4.293
X6.0Y-4.393
X6.0Y-4.493
T5
X5.225Y-4.025
X5.225Y-4.2022
X5.4809Y-4.025
X5.4809Y-4.2022
T0
M30
