%TF.GenerationSoftware,KiCad,Pcbnew,5.1.9*%
%TF.CreationDate,2021-03-28T18:57:00-04:00*%
%TF.ProjectId,easybutton,65617379-6275-4747-946f-6e2e6b696361,rev?*%
%TF.SameCoordinates,Original*%
%TF.FileFunction,Soldermask,Top*%
%TF.FilePolarity,Negative*%
%FSLAX46Y46*%
G04 Gerber Fmt 4.6, Leading zero omitted, Abs format (unit mm)*
G04 Created by KiCad (PCBNEW 5.1.9) date 2021-03-28 18:57:00*
%MOMM*%
%LPD*%
G01*
G04 APERTURE LIST*
%ADD10C,0.010000*%
%ADD11C,1.524000*%
%ADD12O,1.700000X1.700000*%
%ADD13R,1.700000X1.700000*%
%ADD14R,1.800000X1.800000*%
%ADD15C,1.800000*%
%ADD16C,1.600000*%
%ADD17O,1.600000X1.600000*%
%ADD18C,2.000000*%
%ADD19R,1.300000X3.400000*%
G04 APERTURE END LIST*
D10*
%TO.C,G\u002A\u002A\u002A*%
G36*
X134789740Y-75342274D02*
G01*
X134799669Y-75309162D01*
X134819096Y-75267189D01*
X134850360Y-75211273D01*
X134893918Y-75139380D01*
X134914878Y-75105397D01*
X134949971Y-75048404D01*
X134998138Y-74970125D01*
X135058319Y-74872286D01*
X135129453Y-74756610D01*
X135210482Y-74624822D01*
X135300345Y-74478648D01*
X135397983Y-74319812D01*
X135502336Y-74150039D01*
X135612343Y-73971052D01*
X135726945Y-73784578D01*
X135845083Y-73592341D01*
X135965696Y-73396065D01*
X136087725Y-73197475D01*
X136210110Y-72998296D01*
X136331791Y-72800253D01*
X136451707Y-72605070D01*
X136568801Y-72414473D01*
X136682010Y-72230184D01*
X136790277Y-72053931D01*
X136892541Y-71887436D01*
X136987741Y-71732426D01*
X137074819Y-71590624D01*
X137152714Y-71463755D01*
X137220367Y-71353544D01*
X137276718Y-71261717D01*
X137287973Y-71243371D01*
X137404126Y-71054050D01*
X137506116Y-70887917D01*
X137594948Y-70743414D01*
X137671629Y-70618980D01*
X137737166Y-70513053D01*
X137792563Y-70424074D01*
X137838828Y-70350483D01*
X137876966Y-70290718D01*
X137907983Y-70243221D01*
X137932886Y-70206429D01*
X137952680Y-70178783D01*
X137968372Y-70158723D01*
X137980967Y-70144687D01*
X137991473Y-70135116D01*
X138000894Y-70128450D01*
X138010237Y-70123127D01*
X138010284Y-70123102D01*
X138079879Y-70100092D01*
X138152472Y-70100418D01*
X138218281Y-70123797D01*
X138227149Y-70129400D01*
X138246842Y-70147962D01*
X138275390Y-70183486D01*
X138313776Y-70237434D01*
X138362984Y-70311269D01*
X138423999Y-70406454D01*
X138497804Y-70524451D01*
X138551827Y-70612000D01*
X138594907Y-70682106D01*
X138651919Y-70774887D01*
X138721598Y-70888285D01*
X138802680Y-71020242D01*
X138893901Y-71168700D01*
X138993996Y-71331601D01*
X139101700Y-71506887D01*
X139215748Y-71692499D01*
X139334877Y-71886380D01*
X139457821Y-72086472D01*
X139583317Y-72290717D01*
X139710099Y-72497056D01*
X139809304Y-72658514D01*
X140790287Y-74255085D01*
X143917258Y-74262342D01*
X144282526Y-74263217D01*
X144619794Y-74264086D01*
X144930095Y-74264956D01*
X145214457Y-74265838D01*
X145473910Y-74266738D01*
X145709485Y-74267667D01*
X145922212Y-74268632D01*
X146113121Y-74269642D01*
X146283241Y-74270705D01*
X146433603Y-74271831D01*
X146565236Y-74273028D01*
X146679172Y-74274303D01*
X146776439Y-74275667D01*
X146858069Y-74277128D01*
X146925090Y-74278693D01*
X146978533Y-74280372D01*
X147019428Y-74282173D01*
X147048805Y-74284106D01*
X147067695Y-74286177D01*
X147077126Y-74288397D01*
X147077663Y-74288669D01*
X147121339Y-74328303D01*
X147153083Y-74385604D01*
X147167278Y-74449902D01*
X147167546Y-74459362D01*
X147164775Y-74488697D01*
X147154846Y-74521809D01*
X147135419Y-74563782D01*
X147104155Y-74619698D01*
X147060597Y-74691591D01*
X147039637Y-74725574D01*
X147004544Y-74782567D01*
X146956377Y-74860845D01*
X146896196Y-74958685D01*
X146825062Y-75074361D01*
X146744033Y-75206148D01*
X146654170Y-75352322D01*
X146556532Y-75511159D01*
X146452179Y-75680932D01*
X146342172Y-75859918D01*
X146227570Y-76046392D01*
X146109432Y-76238630D01*
X145988819Y-76434906D01*
X145866790Y-76633495D01*
X145744405Y-76832674D01*
X145622724Y-77030717D01*
X145502808Y-77225900D01*
X145385714Y-77416498D01*
X145272505Y-77600786D01*
X145164238Y-77777040D01*
X145061974Y-77943534D01*
X144966774Y-78098545D01*
X144879696Y-78240347D01*
X144801801Y-78367216D01*
X144734148Y-78477426D01*
X144677797Y-78569254D01*
X144666542Y-78587600D01*
X144550389Y-78776921D01*
X144448399Y-78943053D01*
X144359567Y-79087556D01*
X144282886Y-79211991D01*
X144217349Y-79317918D01*
X144161952Y-79406896D01*
X144115687Y-79480488D01*
X144077549Y-79540252D01*
X144046532Y-79587750D01*
X144021629Y-79624542D01*
X144001835Y-79652188D01*
X143986143Y-79672248D01*
X143973548Y-79686284D01*
X143963042Y-79695854D01*
X143953621Y-79702521D01*
X143944278Y-79707844D01*
X143944231Y-79707869D01*
X143874636Y-79730879D01*
X143826916Y-79730665D01*
X143826916Y-79022974D01*
X143853775Y-79021292D01*
X143879023Y-79014901D01*
X143904361Y-79001660D01*
X143931491Y-78979431D01*
X143962114Y-78946073D01*
X143997933Y-78899449D01*
X144040648Y-78837418D01*
X144091962Y-78757842D01*
X144153577Y-78658581D01*
X144227193Y-78537496D01*
X144271364Y-78464228D01*
X144330308Y-78366870D01*
X144399064Y-78254255D01*
X144471932Y-78135663D01*
X144543211Y-78020373D01*
X144605772Y-77919942D01*
X144666519Y-77822633D01*
X144731249Y-77718471D01*
X144795233Y-77615097D01*
X144853745Y-77520151D01*
X144902057Y-77441271D01*
X144906660Y-77433714D01*
X144958079Y-77349335D01*
X145013404Y-77258683D01*
X145066872Y-77171196D01*
X145112717Y-77096310D01*
X145123877Y-77078114D01*
X145163810Y-77013014D01*
X145213985Y-76931187D01*
X145269483Y-76840658D01*
X145325383Y-76749452D01*
X145359678Y-76693485D01*
X145407023Y-76616299D01*
X145451328Y-76544229D01*
X145489493Y-76482304D01*
X145518421Y-76435549D01*
X145534087Y-76410457D01*
X145565379Y-76360570D01*
X145605381Y-76296189D01*
X145651920Y-76220869D01*
X145702824Y-76138167D01*
X145755919Y-76051638D01*
X145809034Y-75964838D01*
X145859995Y-75881322D01*
X145906629Y-75804646D01*
X145946765Y-75738366D01*
X145978230Y-75686037D01*
X145998850Y-75651214D01*
X146006453Y-75637455D01*
X146006458Y-75637412D01*
X146013754Y-75623595D01*
X146034190Y-75588742D01*
X146065585Y-75536471D01*
X146105755Y-75470403D01*
X146152521Y-75394157D01*
X146175784Y-75356443D01*
X146261705Y-75217166D01*
X146333210Y-75100301D01*
X146391224Y-75003619D01*
X146436675Y-74924889D01*
X146470491Y-74861882D01*
X146493599Y-74812368D01*
X146506925Y-74774119D01*
X146511399Y-74744903D01*
X146507946Y-74722492D01*
X146497494Y-74704656D01*
X146480970Y-74689166D01*
X146459616Y-74674003D01*
X146412032Y-74642051D01*
X143842100Y-74640512D01*
X143521876Y-74640323D01*
X143229398Y-74640166D01*
X142963382Y-74640054D01*
X142722545Y-74640002D01*
X142505604Y-74640023D01*
X142311276Y-74640131D01*
X142138278Y-74640340D01*
X141985327Y-74640664D01*
X141851140Y-74641115D01*
X141734432Y-74641710D01*
X141633923Y-74642460D01*
X141548327Y-74643379D01*
X141476363Y-74644483D01*
X141416747Y-74645784D01*
X141368195Y-74647296D01*
X141329426Y-74649033D01*
X141299155Y-74651009D01*
X141276100Y-74653237D01*
X141258977Y-74655732D01*
X141246503Y-74658507D01*
X141237396Y-74661576D01*
X141230372Y-74664953D01*
X141224147Y-74668652D01*
X141224124Y-74668666D01*
X141182265Y-74701303D01*
X141162598Y-74737976D01*
X141158686Y-74776039D01*
X141166048Y-74794766D01*
X141186842Y-74834854D01*
X141219133Y-74893040D01*
X141260984Y-74966059D01*
X141310459Y-75050647D01*
X141365621Y-75143538D01*
X141424535Y-75241470D01*
X141485263Y-75341177D01*
X141545870Y-75439395D01*
X141604420Y-75532860D01*
X141650340Y-75604914D01*
X141666925Y-75631322D01*
X141695546Y-75677557D01*
X141733146Y-75738653D01*
X141776667Y-75809641D01*
X141815651Y-75873428D01*
X141869090Y-75960881D01*
X141926146Y-76054065D01*
X141981537Y-76144365D01*
X142029980Y-76223164D01*
X142051487Y-76258057D01*
X142083195Y-76309512D01*
X142126951Y-76380631D01*
X142180755Y-76468158D01*
X142242607Y-76568834D01*
X142310509Y-76679400D01*
X142382462Y-76796600D01*
X142456465Y-76917174D01*
X142530521Y-77037865D01*
X142602629Y-77155415D01*
X142670791Y-77266566D01*
X142733007Y-77368060D01*
X142787279Y-77456639D01*
X142831606Y-77529045D01*
X142863991Y-77582020D01*
X142877317Y-77603879D01*
X142960427Y-77739912D01*
X143034403Y-77859589D01*
X143104711Y-77971648D01*
X143176814Y-78084825D01*
X143224844Y-78159428D01*
X143273522Y-78235439D01*
X143332607Y-78328721D01*
X143397382Y-78431767D01*
X143463132Y-78537071D01*
X143525141Y-78637126D01*
X143534872Y-78652914D01*
X143601145Y-78759838D01*
X143654724Y-78844302D01*
X143697632Y-78908867D01*
X143731890Y-78956097D01*
X143759521Y-78988553D01*
X143782547Y-79008797D01*
X143802989Y-79019391D01*
X143822870Y-79022898D01*
X143826916Y-79022974D01*
X143826916Y-79730665D01*
X143802043Y-79730552D01*
X143736234Y-79707174D01*
X143727366Y-79701571D01*
X143707673Y-79683009D01*
X143679125Y-79647485D01*
X143640739Y-79593537D01*
X143591531Y-79519701D01*
X143530516Y-79424517D01*
X143456711Y-79306519D01*
X143402688Y-79218971D01*
X143359608Y-79148865D01*
X143302596Y-79056084D01*
X143232917Y-78942685D01*
X143151835Y-78810728D01*
X143060614Y-78662270D01*
X142960519Y-78499370D01*
X142852815Y-78324084D01*
X142738767Y-78138472D01*
X142619638Y-77944590D01*
X142496694Y-77744499D01*
X142371198Y-77540254D01*
X142244416Y-77333915D01*
X142145211Y-77172457D01*
X141164228Y-75575885D01*
X138037257Y-75568628D01*
X137671989Y-75567753D01*
X137334721Y-75566885D01*
X137024420Y-75566014D01*
X136740058Y-75565133D01*
X136480605Y-75564232D01*
X136245030Y-75563304D01*
X136032303Y-75562339D01*
X135841394Y-75561329D01*
X135671274Y-75560265D01*
X135546531Y-75559332D01*
X135546531Y-75191648D01*
X138124008Y-75187824D01*
X138416723Y-75187317D01*
X138697827Y-75186686D01*
X138966074Y-75185940D01*
X139220218Y-75185086D01*
X139459013Y-75184133D01*
X139681212Y-75183088D01*
X139885568Y-75181960D01*
X140070837Y-75180757D01*
X140235772Y-75179487D01*
X140379126Y-75178157D01*
X140499652Y-75176777D01*
X140596106Y-75175353D01*
X140667240Y-75173895D01*
X140711809Y-75172410D01*
X140728500Y-75170942D01*
X140760608Y-75140910D01*
X140779853Y-75093994D01*
X140782612Y-75040829D01*
X140779008Y-75022698D01*
X140768026Y-74997848D01*
X140743791Y-74952158D01*
X140708462Y-74889391D01*
X140664193Y-74813309D01*
X140613143Y-74727674D01*
X140557763Y-74636727D01*
X140509129Y-74557641D01*
X140447689Y-74457658D01*
X140375805Y-74340630D01*
X140295844Y-74210406D01*
X140210168Y-74070839D01*
X140121142Y-73925780D01*
X140031131Y-73779080D01*
X139942500Y-73634591D01*
X139918026Y-73594685D01*
X139836601Y-73461960D01*
X139758240Y-73334316D01*
X139684526Y-73214328D01*
X139617044Y-73104569D01*
X139557376Y-73007613D01*
X139507108Y-72926035D01*
X139467822Y-72862409D01*
X139441102Y-72819308D01*
X139431311Y-72803657D01*
X139411709Y-72772266D01*
X139378900Y-72719306D01*
X139334844Y-72647956D01*
X139281501Y-72561397D01*
X139220830Y-72462812D01*
X139154792Y-72355380D01*
X139085347Y-72242283D01*
X139060466Y-72201734D01*
X138989707Y-72086613D01*
X138921103Y-71975413D01*
X138856706Y-71871430D01*
X138798569Y-71777962D01*
X138748743Y-71698305D01*
X138709281Y-71635756D01*
X138682235Y-71593613D01*
X138676472Y-71584877D01*
X138649744Y-71543892D01*
X138610839Y-71482916D01*
X138562750Y-71406705D01*
X138508472Y-71320018D01*
X138450996Y-71227613D01*
X138409023Y-71159741D01*
X138354321Y-71072131D01*
X138303293Y-70992441D01*
X138258254Y-70924126D01*
X138221522Y-70870644D01*
X138195411Y-70835450D01*
X138182934Y-70822283D01*
X138129778Y-70808748D01*
X138070914Y-70816980D01*
X138040131Y-70830832D01*
X138028673Y-70837796D01*
X138017921Y-70845654D01*
X138006371Y-70856674D01*
X137992520Y-70873123D01*
X137974864Y-70897268D01*
X137951900Y-70931376D01*
X137922125Y-70977713D01*
X137884034Y-71038549D01*
X137836125Y-71116148D01*
X137776894Y-71212780D01*
X137704838Y-71330710D01*
X137660687Y-71403028D01*
X137593696Y-71512593D01*
X137527536Y-71620479D01*
X137464711Y-71722628D01*
X137407723Y-71814982D01*
X137359073Y-71893486D01*
X137321265Y-71954080D01*
X137302634Y-71983600D01*
X137266870Y-72040320D01*
X137220182Y-72115190D01*
X137166702Y-72201538D01*
X137110561Y-72292694D01*
X137055890Y-72381988D01*
X137055429Y-72382742D01*
X137018082Y-72443847D01*
X136967482Y-72526472D01*
X136905593Y-72627418D01*
X136834379Y-72743485D01*
X136755804Y-72871475D01*
X136671832Y-73008187D01*
X136584427Y-73150422D01*
X136495554Y-73294981D01*
X136429300Y-73402703D01*
X136346549Y-73537318D01*
X136268484Y-73664498D01*
X136196409Y-73782109D01*
X136131624Y-73888017D01*
X136075432Y-73980087D01*
X136029136Y-74056186D01*
X135994038Y-74114181D01*
X135971439Y-74151936D01*
X135962642Y-74167317D01*
X135962572Y-74167539D01*
X135955194Y-74181689D01*
X135934169Y-74217762D01*
X135901162Y-74273021D01*
X135857839Y-74344727D01*
X135805864Y-74430142D01*
X135746901Y-74526527D01*
X135682617Y-74631143D01*
X135614674Y-74741254D01*
X135565204Y-74821142D01*
X135510795Y-74911027D01*
X135472480Y-74980911D01*
X135449519Y-75034441D01*
X135441174Y-75075267D01*
X135446706Y-75107038D01*
X135465376Y-75133401D01*
X135496445Y-75158007D01*
X135496923Y-75158328D01*
X135546531Y-75191648D01*
X135546531Y-75559332D01*
X135520912Y-75559140D01*
X135389279Y-75557943D01*
X135275343Y-75556667D01*
X135178076Y-75555303D01*
X135096446Y-75553843D01*
X135029425Y-75552278D01*
X134975982Y-75550599D01*
X134935087Y-75548797D01*
X134905710Y-75546865D01*
X134886820Y-75544793D01*
X134877389Y-75542574D01*
X134876852Y-75542302D01*
X134833176Y-75502667D01*
X134801432Y-75445367D01*
X134787237Y-75381069D01*
X134786969Y-75371608D01*
X134789740Y-75342274D01*
G37*
X134789740Y-75342274D02*
X134799669Y-75309162D01*
X134819096Y-75267189D01*
X134850360Y-75211273D01*
X134893918Y-75139380D01*
X134914878Y-75105397D01*
X134949971Y-75048404D01*
X134998138Y-74970125D01*
X135058319Y-74872286D01*
X135129453Y-74756610D01*
X135210482Y-74624822D01*
X135300345Y-74478648D01*
X135397983Y-74319812D01*
X135502336Y-74150039D01*
X135612343Y-73971052D01*
X135726945Y-73784578D01*
X135845083Y-73592341D01*
X135965696Y-73396065D01*
X136087725Y-73197475D01*
X136210110Y-72998296D01*
X136331791Y-72800253D01*
X136451707Y-72605070D01*
X136568801Y-72414473D01*
X136682010Y-72230184D01*
X136790277Y-72053931D01*
X136892541Y-71887436D01*
X136987741Y-71732426D01*
X137074819Y-71590624D01*
X137152714Y-71463755D01*
X137220367Y-71353544D01*
X137276718Y-71261717D01*
X137287973Y-71243371D01*
X137404126Y-71054050D01*
X137506116Y-70887917D01*
X137594948Y-70743414D01*
X137671629Y-70618980D01*
X137737166Y-70513053D01*
X137792563Y-70424074D01*
X137838828Y-70350483D01*
X137876966Y-70290718D01*
X137907983Y-70243221D01*
X137932886Y-70206429D01*
X137952680Y-70178783D01*
X137968372Y-70158723D01*
X137980967Y-70144687D01*
X137991473Y-70135116D01*
X138000894Y-70128450D01*
X138010237Y-70123127D01*
X138010284Y-70123102D01*
X138079879Y-70100092D01*
X138152472Y-70100418D01*
X138218281Y-70123797D01*
X138227149Y-70129400D01*
X138246842Y-70147962D01*
X138275390Y-70183486D01*
X138313776Y-70237434D01*
X138362984Y-70311269D01*
X138423999Y-70406454D01*
X138497804Y-70524451D01*
X138551827Y-70612000D01*
X138594907Y-70682106D01*
X138651919Y-70774887D01*
X138721598Y-70888285D01*
X138802680Y-71020242D01*
X138893901Y-71168700D01*
X138993996Y-71331601D01*
X139101700Y-71506887D01*
X139215748Y-71692499D01*
X139334877Y-71886380D01*
X139457821Y-72086472D01*
X139583317Y-72290717D01*
X139710099Y-72497056D01*
X139809304Y-72658514D01*
X140790287Y-74255085D01*
X143917258Y-74262342D01*
X144282526Y-74263217D01*
X144619794Y-74264086D01*
X144930095Y-74264956D01*
X145214457Y-74265838D01*
X145473910Y-74266738D01*
X145709485Y-74267667D01*
X145922212Y-74268632D01*
X146113121Y-74269642D01*
X146283241Y-74270705D01*
X146433603Y-74271831D01*
X146565236Y-74273028D01*
X146679172Y-74274303D01*
X146776439Y-74275667D01*
X146858069Y-74277128D01*
X146925090Y-74278693D01*
X146978533Y-74280372D01*
X147019428Y-74282173D01*
X147048805Y-74284106D01*
X147067695Y-74286177D01*
X147077126Y-74288397D01*
X147077663Y-74288669D01*
X147121339Y-74328303D01*
X147153083Y-74385604D01*
X147167278Y-74449902D01*
X147167546Y-74459362D01*
X147164775Y-74488697D01*
X147154846Y-74521809D01*
X147135419Y-74563782D01*
X147104155Y-74619698D01*
X147060597Y-74691591D01*
X147039637Y-74725574D01*
X147004544Y-74782567D01*
X146956377Y-74860845D01*
X146896196Y-74958685D01*
X146825062Y-75074361D01*
X146744033Y-75206148D01*
X146654170Y-75352322D01*
X146556532Y-75511159D01*
X146452179Y-75680932D01*
X146342172Y-75859918D01*
X146227570Y-76046392D01*
X146109432Y-76238630D01*
X145988819Y-76434906D01*
X145866790Y-76633495D01*
X145744405Y-76832674D01*
X145622724Y-77030717D01*
X145502808Y-77225900D01*
X145385714Y-77416498D01*
X145272505Y-77600786D01*
X145164238Y-77777040D01*
X145061974Y-77943534D01*
X144966774Y-78098545D01*
X144879696Y-78240347D01*
X144801801Y-78367216D01*
X144734148Y-78477426D01*
X144677797Y-78569254D01*
X144666542Y-78587600D01*
X144550389Y-78776921D01*
X144448399Y-78943053D01*
X144359567Y-79087556D01*
X144282886Y-79211991D01*
X144217349Y-79317918D01*
X144161952Y-79406896D01*
X144115687Y-79480488D01*
X144077549Y-79540252D01*
X144046532Y-79587750D01*
X144021629Y-79624542D01*
X144001835Y-79652188D01*
X143986143Y-79672248D01*
X143973548Y-79686284D01*
X143963042Y-79695854D01*
X143953621Y-79702521D01*
X143944278Y-79707844D01*
X143944231Y-79707869D01*
X143874636Y-79730879D01*
X143826916Y-79730665D01*
X143826916Y-79022974D01*
X143853775Y-79021292D01*
X143879023Y-79014901D01*
X143904361Y-79001660D01*
X143931491Y-78979431D01*
X143962114Y-78946073D01*
X143997933Y-78899449D01*
X144040648Y-78837418D01*
X144091962Y-78757842D01*
X144153577Y-78658581D01*
X144227193Y-78537496D01*
X144271364Y-78464228D01*
X144330308Y-78366870D01*
X144399064Y-78254255D01*
X144471932Y-78135663D01*
X144543211Y-78020373D01*
X144605772Y-77919942D01*
X144666519Y-77822633D01*
X144731249Y-77718471D01*
X144795233Y-77615097D01*
X144853745Y-77520151D01*
X144902057Y-77441271D01*
X144906660Y-77433714D01*
X144958079Y-77349335D01*
X145013404Y-77258683D01*
X145066872Y-77171196D01*
X145112717Y-77096310D01*
X145123877Y-77078114D01*
X145163810Y-77013014D01*
X145213985Y-76931187D01*
X145269483Y-76840658D01*
X145325383Y-76749452D01*
X145359678Y-76693485D01*
X145407023Y-76616299D01*
X145451328Y-76544229D01*
X145489493Y-76482304D01*
X145518421Y-76435549D01*
X145534087Y-76410457D01*
X145565379Y-76360570D01*
X145605381Y-76296189D01*
X145651920Y-76220869D01*
X145702824Y-76138167D01*
X145755919Y-76051638D01*
X145809034Y-75964838D01*
X145859995Y-75881322D01*
X145906629Y-75804646D01*
X145946765Y-75738366D01*
X145978230Y-75686037D01*
X145998850Y-75651214D01*
X146006453Y-75637455D01*
X146006458Y-75637412D01*
X146013754Y-75623595D01*
X146034190Y-75588742D01*
X146065585Y-75536471D01*
X146105755Y-75470403D01*
X146152521Y-75394157D01*
X146175784Y-75356443D01*
X146261705Y-75217166D01*
X146333210Y-75100301D01*
X146391224Y-75003619D01*
X146436675Y-74924889D01*
X146470491Y-74861882D01*
X146493599Y-74812368D01*
X146506925Y-74774119D01*
X146511399Y-74744903D01*
X146507946Y-74722492D01*
X146497494Y-74704656D01*
X146480970Y-74689166D01*
X146459616Y-74674003D01*
X146412032Y-74642051D01*
X143842100Y-74640512D01*
X143521876Y-74640323D01*
X143229398Y-74640166D01*
X142963382Y-74640054D01*
X142722545Y-74640002D01*
X142505604Y-74640023D01*
X142311276Y-74640131D01*
X142138278Y-74640340D01*
X141985327Y-74640664D01*
X141851140Y-74641115D01*
X141734432Y-74641710D01*
X141633923Y-74642460D01*
X141548327Y-74643379D01*
X141476363Y-74644483D01*
X141416747Y-74645784D01*
X141368195Y-74647296D01*
X141329426Y-74649033D01*
X141299155Y-74651009D01*
X141276100Y-74653237D01*
X141258977Y-74655732D01*
X141246503Y-74658507D01*
X141237396Y-74661576D01*
X141230372Y-74664953D01*
X141224147Y-74668652D01*
X141224124Y-74668666D01*
X141182265Y-74701303D01*
X141162598Y-74737976D01*
X141158686Y-74776039D01*
X141166048Y-74794766D01*
X141186842Y-74834854D01*
X141219133Y-74893040D01*
X141260984Y-74966059D01*
X141310459Y-75050647D01*
X141365621Y-75143538D01*
X141424535Y-75241470D01*
X141485263Y-75341177D01*
X141545870Y-75439395D01*
X141604420Y-75532860D01*
X141650340Y-75604914D01*
X141666925Y-75631322D01*
X141695546Y-75677557D01*
X141733146Y-75738653D01*
X141776667Y-75809641D01*
X141815651Y-75873428D01*
X141869090Y-75960881D01*
X141926146Y-76054065D01*
X141981537Y-76144365D01*
X142029980Y-76223164D01*
X142051487Y-76258057D01*
X142083195Y-76309512D01*
X142126951Y-76380631D01*
X142180755Y-76468158D01*
X142242607Y-76568834D01*
X142310509Y-76679400D01*
X142382462Y-76796600D01*
X142456465Y-76917174D01*
X142530521Y-77037865D01*
X142602629Y-77155415D01*
X142670791Y-77266566D01*
X142733007Y-77368060D01*
X142787279Y-77456639D01*
X142831606Y-77529045D01*
X142863991Y-77582020D01*
X142877317Y-77603879D01*
X142960427Y-77739912D01*
X143034403Y-77859589D01*
X143104711Y-77971648D01*
X143176814Y-78084825D01*
X143224844Y-78159428D01*
X143273522Y-78235439D01*
X143332607Y-78328721D01*
X143397382Y-78431767D01*
X143463132Y-78537071D01*
X143525141Y-78637126D01*
X143534872Y-78652914D01*
X143601145Y-78759838D01*
X143654724Y-78844302D01*
X143697632Y-78908867D01*
X143731890Y-78956097D01*
X143759521Y-78988553D01*
X143782547Y-79008797D01*
X143802989Y-79019391D01*
X143822870Y-79022898D01*
X143826916Y-79022974D01*
X143826916Y-79730665D01*
X143802043Y-79730552D01*
X143736234Y-79707174D01*
X143727366Y-79701571D01*
X143707673Y-79683009D01*
X143679125Y-79647485D01*
X143640739Y-79593537D01*
X143591531Y-79519701D01*
X143530516Y-79424517D01*
X143456711Y-79306519D01*
X143402688Y-79218971D01*
X143359608Y-79148865D01*
X143302596Y-79056084D01*
X143232917Y-78942685D01*
X143151835Y-78810728D01*
X143060614Y-78662270D01*
X142960519Y-78499370D01*
X142852815Y-78324084D01*
X142738767Y-78138472D01*
X142619638Y-77944590D01*
X142496694Y-77744499D01*
X142371198Y-77540254D01*
X142244416Y-77333915D01*
X142145211Y-77172457D01*
X141164228Y-75575885D01*
X138037257Y-75568628D01*
X137671989Y-75567753D01*
X137334721Y-75566885D01*
X137024420Y-75566014D01*
X136740058Y-75565133D01*
X136480605Y-75564232D01*
X136245030Y-75563304D01*
X136032303Y-75562339D01*
X135841394Y-75561329D01*
X135671274Y-75560265D01*
X135546531Y-75559332D01*
X135546531Y-75191648D01*
X138124008Y-75187824D01*
X138416723Y-75187317D01*
X138697827Y-75186686D01*
X138966074Y-75185940D01*
X139220218Y-75185086D01*
X139459013Y-75184133D01*
X139681212Y-75183088D01*
X139885568Y-75181960D01*
X140070837Y-75180757D01*
X140235772Y-75179487D01*
X140379126Y-75178157D01*
X140499652Y-75176777D01*
X140596106Y-75175353D01*
X140667240Y-75173895D01*
X140711809Y-75172410D01*
X140728500Y-75170942D01*
X140760608Y-75140910D01*
X140779853Y-75093994D01*
X140782612Y-75040829D01*
X140779008Y-75022698D01*
X140768026Y-74997848D01*
X140743791Y-74952158D01*
X140708462Y-74889391D01*
X140664193Y-74813309D01*
X140613143Y-74727674D01*
X140557763Y-74636727D01*
X140509129Y-74557641D01*
X140447689Y-74457658D01*
X140375805Y-74340630D01*
X140295844Y-74210406D01*
X140210168Y-74070839D01*
X140121142Y-73925780D01*
X140031131Y-73779080D01*
X139942500Y-73634591D01*
X139918026Y-73594685D01*
X139836601Y-73461960D01*
X139758240Y-73334316D01*
X139684526Y-73214328D01*
X139617044Y-73104569D01*
X139557376Y-73007613D01*
X139507108Y-72926035D01*
X139467822Y-72862409D01*
X139441102Y-72819308D01*
X139431311Y-72803657D01*
X139411709Y-72772266D01*
X139378900Y-72719306D01*
X139334844Y-72647956D01*
X139281501Y-72561397D01*
X139220830Y-72462812D01*
X139154792Y-72355380D01*
X139085347Y-72242283D01*
X139060466Y-72201734D01*
X138989707Y-72086613D01*
X138921103Y-71975413D01*
X138856706Y-71871430D01*
X138798569Y-71777962D01*
X138748743Y-71698305D01*
X138709281Y-71635756D01*
X138682235Y-71593613D01*
X138676472Y-71584877D01*
X138649744Y-71543892D01*
X138610839Y-71482916D01*
X138562750Y-71406705D01*
X138508472Y-71320018D01*
X138450996Y-71227613D01*
X138409023Y-71159741D01*
X138354321Y-71072131D01*
X138303293Y-70992441D01*
X138258254Y-70924126D01*
X138221522Y-70870644D01*
X138195411Y-70835450D01*
X138182934Y-70822283D01*
X138129778Y-70808748D01*
X138070914Y-70816980D01*
X138040131Y-70830832D01*
X138028673Y-70837796D01*
X138017921Y-70845654D01*
X138006371Y-70856674D01*
X137992520Y-70873123D01*
X137974864Y-70897268D01*
X137951900Y-70931376D01*
X137922125Y-70977713D01*
X137884034Y-71038549D01*
X137836125Y-71116148D01*
X137776894Y-71212780D01*
X137704838Y-71330710D01*
X137660687Y-71403028D01*
X137593696Y-71512593D01*
X137527536Y-71620479D01*
X137464711Y-71722628D01*
X137407723Y-71814982D01*
X137359073Y-71893486D01*
X137321265Y-71954080D01*
X137302634Y-71983600D01*
X137266870Y-72040320D01*
X137220182Y-72115190D01*
X137166702Y-72201538D01*
X137110561Y-72292694D01*
X137055890Y-72381988D01*
X137055429Y-72382742D01*
X137018082Y-72443847D01*
X136967482Y-72526472D01*
X136905593Y-72627418D01*
X136834379Y-72743485D01*
X136755804Y-72871475D01*
X136671832Y-73008187D01*
X136584427Y-73150422D01*
X136495554Y-73294981D01*
X136429300Y-73402703D01*
X136346549Y-73537318D01*
X136268484Y-73664498D01*
X136196409Y-73782109D01*
X136131624Y-73888017D01*
X136075432Y-73980087D01*
X136029136Y-74056186D01*
X135994038Y-74114181D01*
X135971439Y-74151936D01*
X135962642Y-74167317D01*
X135962572Y-74167539D01*
X135955194Y-74181689D01*
X135934169Y-74217762D01*
X135901162Y-74273021D01*
X135857839Y-74344727D01*
X135805864Y-74430142D01*
X135746901Y-74526527D01*
X135682617Y-74631143D01*
X135614674Y-74741254D01*
X135565204Y-74821142D01*
X135510795Y-74911027D01*
X135472480Y-74980911D01*
X135449519Y-75034441D01*
X135441174Y-75075267D01*
X135446706Y-75107038D01*
X135465376Y-75133401D01*
X135496445Y-75158007D01*
X135496923Y-75158328D01*
X135546531Y-75191648D01*
X135546531Y-75559332D01*
X135520912Y-75559140D01*
X135389279Y-75557943D01*
X135275343Y-75556667D01*
X135178076Y-75555303D01*
X135096446Y-75553843D01*
X135029425Y-75552278D01*
X134975982Y-75550599D01*
X134935087Y-75548797D01*
X134905710Y-75546865D01*
X134886820Y-75544793D01*
X134877389Y-75542574D01*
X134876852Y-75542302D01*
X134833176Y-75502667D01*
X134801432Y-75445367D01*
X134787237Y-75381069D01*
X134786969Y-75371608D01*
X134789740Y-75342274D01*
%TD*%
D11*
%TO.C,U1*%
X154940000Y-78581250D03*
X154940000Y-81121250D03*
X154940000Y-83661250D03*
X154940000Y-86201250D03*
X154940000Y-88741250D03*
X154940000Y-91281250D03*
X154940000Y-93821250D03*
X154940000Y-96361250D03*
X154940000Y-98901250D03*
X154940000Y-101441250D03*
X154940000Y-103981250D03*
X154940000Y-106521250D03*
X154940000Y-109061250D03*
X154940000Y-111601250D03*
X154940000Y-114141250D03*
X127000000Y-114141250D03*
X127000000Y-111601250D03*
X127000000Y-109061250D03*
X127000000Y-106521250D03*
X127000000Y-103981250D03*
X127000000Y-101441250D03*
X127000000Y-98901250D03*
X127000000Y-96361250D03*
X127000000Y-93821250D03*
X127000000Y-91281250D03*
X127000000Y-88741250D03*
X127000000Y-86201250D03*
X127000000Y-83661250D03*
X127000000Y-81121250D03*
X127000000Y-78581250D03*
%TD*%
D12*
%TO.C,REF\u002A\u002A*%
X152400000Y-114122200D03*
X152400000Y-111582200D03*
X152400000Y-109042200D03*
X152400000Y-106502200D03*
X152400000Y-103962200D03*
X152400000Y-101422200D03*
X152400000Y-98882200D03*
X152400000Y-96342200D03*
X152400000Y-93802200D03*
X152400000Y-91262200D03*
X152400000Y-88722200D03*
X152400000Y-86182200D03*
X152400000Y-83642200D03*
X152400000Y-81102200D03*
D13*
X152400000Y-78562200D03*
%TD*%
D14*
%TO.C,D1*%
X142240000Y-121920000D03*
D15*
X139700000Y-121920000D03*
%TD*%
D16*
%TO.C,R1*%
X146050000Y-81280000D03*
D17*
X135890000Y-81280000D03*
%TD*%
D18*
%TO.C,SW1*%
X132715000Y-106735000D03*
X132715000Y-102235000D03*
X139215000Y-106735000D03*
X139215000Y-102235000D03*
%TD*%
D19*
%TO.C,BZ1*%
X136620000Y-87630000D03*
X145320000Y-87630000D03*
%TD*%
D16*
%TO.C,R2*%
X135890000Y-114300000D03*
D17*
X146050000Y-114300000D03*
%TD*%
M02*
