%TF.GenerationSoftware,KiCad,Pcbnew,5.1.9*%
%TF.CreationDate,2021-03-28T18:49:31-04:00*%
%TF.ProjectId,easybutton,65617379-6275-4747-946f-6e2e6b696361,rev?*%
%TF.SameCoordinates,Original*%
%TF.FileFunction,Soldermask,Bot*%
%TF.FilePolarity,Negative*%
%FSLAX46Y46*%
G04 Gerber Fmt 4.6, Leading zero omitted, Abs format (unit mm)*
G04 Created by KiCad (PCBNEW 5.1.9) date 2021-03-28 18:49:31*
%MOMM*%
%LPD*%
G01*
G04 APERTURE LIST*
%ADD10C,0.010000*%
%ADD11C,1.524000*%
%ADD12O,1.700000X1.700000*%
%ADD13R,1.700000X1.700000*%
%ADD14R,1.800000X1.800000*%
%ADD15C,1.800000*%
%ADD16C,1.600000*%
%ADD17O,1.600000X1.600000*%
%ADD18C,2.000000*%
G04 APERTURE END LIST*
D10*
%TO.C,G\u002A\u002A\u002A*%
G36*
X142356862Y-74888639D02*
G01*
X142356944Y-75036559D01*
X142357107Y-75166800D01*
X142357373Y-75280682D01*
X142357764Y-75379525D01*
X142358300Y-75464651D01*
X142359005Y-75537379D01*
X142359899Y-75599030D01*
X142361004Y-75650924D01*
X142362342Y-75694381D01*
X142363935Y-75730723D01*
X142365804Y-75761268D01*
X142367971Y-75787339D01*
X142370458Y-75810255D01*
X142373285Y-75831336D01*
X142375273Y-75844400D01*
X142409338Y-76027926D01*
X142451379Y-76194521D01*
X142502371Y-76346329D01*
X142563287Y-76485495D01*
X142635102Y-76614163D01*
X142718791Y-76734476D01*
X142815327Y-76848580D01*
X142846425Y-76881393D01*
X142967708Y-76996169D01*
X143091869Y-77092697D01*
X143221950Y-77172650D01*
X143360991Y-77237703D01*
X143512036Y-77289528D01*
X143650938Y-77324177D01*
X143700961Y-77334351D01*
X143744253Y-77341671D01*
X143786062Y-77346589D01*
X143831637Y-77349557D01*
X143886225Y-77351028D01*
X143955075Y-77351455D01*
X143967200Y-77351457D01*
X144160815Y-77342962D01*
X144345830Y-77317791D01*
X144521077Y-77276197D01*
X144685386Y-77218433D01*
X144781034Y-77174721D01*
X144931337Y-77088207D01*
X145069479Y-76985911D01*
X145194420Y-76869057D01*
X145305118Y-76738869D01*
X145400535Y-76596571D01*
X145479630Y-76443388D01*
X145541363Y-76280543D01*
X145541721Y-76279405D01*
X145555883Y-76234628D01*
X145568319Y-76195836D01*
X145577455Y-76167910D01*
X145581187Y-76157051D01*
X145584684Y-76155912D01*
X145593557Y-76158683D01*
X145608641Y-76165895D01*
X145630769Y-76178077D01*
X145660774Y-76195761D01*
X145699488Y-76219476D01*
X145747746Y-76249754D01*
X145806381Y-76287125D01*
X145876226Y-76332120D01*
X145958113Y-76385269D01*
X146052877Y-76447103D01*
X146161351Y-76518152D01*
X146284368Y-76598946D01*
X146422761Y-76690017D01*
X146552920Y-76775781D01*
X146687024Y-76864052D01*
X146815391Y-76948286D01*
X146937010Y-77027830D01*
X147050868Y-77102034D01*
X147155953Y-77170245D01*
X147251254Y-77231812D01*
X147335758Y-77286082D01*
X147408455Y-77332404D01*
X147468331Y-77370126D01*
X147514376Y-77398597D01*
X147545577Y-77417165D01*
X147560922Y-77425177D01*
X147561300Y-77425303D01*
X147604480Y-77438548D01*
X147603870Y-76235560D01*
X146616115Y-75607435D01*
X146486565Y-75524973D01*
X146361310Y-75445089D01*
X146241476Y-75368510D01*
X146128191Y-75295963D01*
X146022584Y-75228177D01*
X145925782Y-75165877D01*
X145838913Y-75109792D01*
X145763105Y-75060650D01*
X145699485Y-75019177D01*
X145649181Y-74986101D01*
X145613322Y-74962149D01*
X145593035Y-74948049D01*
X145589476Y-74945281D01*
X145558570Y-74921231D01*
X145526580Y-74900778D01*
X145515816Y-74895225D01*
X145452438Y-74866939D01*
X145400979Y-74846155D01*
X145379440Y-74838352D01*
X145345165Y-74826239D01*
X145308130Y-74812897D01*
X145303758Y-74811302D01*
X145253569Y-74800018D01*
X145191064Y-74796431D01*
X145122454Y-74799897D01*
X145053952Y-74809768D01*
X144991769Y-74825400D01*
X144942116Y-74846148D01*
X144936446Y-74849468D01*
X144911877Y-74870636D01*
X144883664Y-74903758D01*
X144856555Y-74942281D01*
X144835297Y-74979652D01*
X144826588Y-75001120D01*
X144824368Y-75017462D01*
X144821821Y-75051354D01*
X144819083Y-75100029D01*
X144816288Y-75160721D01*
X144813574Y-75230665D01*
X144811075Y-75307094D01*
X144810375Y-75331320D01*
X144806804Y-75439314D01*
X144802550Y-75533797D01*
X144797716Y-75613104D01*
X144792406Y-75675569D01*
X144786722Y-75719529D01*
X144786203Y-75722480D01*
X144755075Y-75851317D01*
X144710935Y-75964728D01*
X144653345Y-76063245D01*
X144581868Y-76147404D01*
X144496065Y-76217737D01*
X144395502Y-76274780D01*
X144304233Y-76311169D01*
X144250152Y-76324697D01*
X144180530Y-76334885D01*
X144099921Y-76341409D01*
X144012880Y-76343946D01*
X143923959Y-76342172D01*
X143892824Y-76340445D01*
X143767122Y-76324051D01*
X143654553Y-76292167D01*
X143555046Y-76244748D01*
X143468535Y-76181752D01*
X143394951Y-76103137D01*
X143334225Y-76008859D01*
X143320816Y-75982362D01*
X143299626Y-75936306D01*
X143281424Y-75891439D01*
X143265990Y-75845835D01*
X143253104Y-75797570D01*
X143242547Y-75744719D01*
X143234097Y-75685357D01*
X143227537Y-75617560D01*
X143222645Y-75539402D01*
X143219202Y-75448958D01*
X143216988Y-75344305D01*
X143215783Y-75223516D01*
X143215367Y-75084668D01*
X143215360Y-75059029D01*
X143215360Y-74602307D01*
X144355820Y-74605131D01*
X144535700Y-74605531D01*
X144730046Y-74605880D01*
X144935369Y-74606177D01*
X145148182Y-74606419D01*
X145364997Y-74606604D01*
X145582326Y-74606731D01*
X145796681Y-74606797D01*
X146004574Y-74606800D01*
X146202517Y-74606738D01*
X146387024Y-74606609D01*
X146550380Y-74606417D01*
X147604480Y-74604880D01*
X147604480Y-73609006D01*
X145031460Y-73611642D01*
X144761284Y-73611922D01*
X144510685Y-73612192D01*
X144278915Y-73612458D01*
X144065232Y-73612727D01*
X143868891Y-73613004D01*
X143689145Y-73613296D01*
X143525252Y-73613609D01*
X143376467Y-73613950D01*
X143242043Y-73614324D01*
X143121238Y-73614738D01*
X143013307Y-73615197D01*
X142917504Y-73615709D01*
X142833085Y-73616280D01*
X142759305Y-73616915D01*
X142695420Y-73617621D01*
X142640685Y-73618404D01*
X142594356Y-73619270D01*
X142555687Y-73620226D01*
X142523934Y-73621278D01*
X142498353Y-73622432D01*
X142478198Y-73623694D01*
X142462725Y-73625071D01*
X142451190Y-73626568D01*
X142442847Y-73628193D01*
X142436953Y-73629950D01*
X142432762Y-73631847D01*
X142430237Y-73633400D01*
X142404480Y-73655414D01*
X142380540Y-73682676D01*
X142379437Y-73684200D01*
X142356840Y-73715880D01*
X142356840Y-74721720D01*
X142356862Y-74888639D01*
G37*
X142356862Y-74888639D02*
X142356944Y-75036559D01*
X142357107Y-75166800D01*
X142357373Y-75280682D01*
X142357764Y-75379525D01*
X142358300Y-75464651D01*
X142359005Y-75537379D01*
X142359899Y-75599030D01*
X142361004Y-75650924D01*
X142362342Y-75694381D01*
X142363935Y-75730723D01*
X142365804Y-75761268D01*
X142367971Y-75787339D01*
X142370458Y-75810255D01*
X142373285Y-75831336D01*
X142375273Y-75844400D01*
X142409338Y-76027926D01*
X142451379Y-76194521D01*
X142502371Y-76346329D01*
X142563287Y-76485495D01*
X142635102Y-76614163D01*
X142718791Y-76734476D01*
X142815327Y-76848580D01*
X142846425Y-76881393D01*
X142967708Y-76996169D01*
X143091869Y-77092697D01*
X143221950Y-77172650D01*
X143360991Y-77237703D01*
X143512036Y-77289528D01*
X143650938Y-77324177D01*
X143700961Y-77334351D01*
X143744253Y-77341671D01*
X143786062Y-77346589D01*
X143831637Y-77349557D01*
X143886225Y-77351028D01*
X143955075Y-77351455D01*
X143967200Y-77351457D01*
X144160815Y-77342962D01*
X144345830Y-77317791D01*
X144521077Y-77276197D01*
X144685386Y-77218433D01*
X144781034Y-77174721D01*
X144931337Y-77088207D01*
X145069479Y-76985911D01*
X145194420Y-76869057D01*
X145305118Y-76738869D01*
X145400535Y-76596571D01*
X145479630Y-76443388D01*
X145541363Y-76280543D01*
X145541721Y-76279405D01*
X145555883Y-76234628D01*
X145568319Y-76195836D01*
X145577455Y-76167910D01*
X145581187Y-76157051D01*
X145584684Y-76155912D01*
X145593557Y-76158683D01*
X145608641Y-76165895D01*
X145630769Y-76178077D01*
X145660774Y-76195761D01*
X145699488Y-76219476D01*
X145747746Y-76249754D01*
X145806381Y-76287125D01*
X145876226Y-76332120D01*
X145958113Y-76385269D01*
X146052877Y-76447103D01*
X146161351Y-76518152D01*
X146284368Y-76598946D01*
X146422761Y-76690017D01*
X146552920Y-76775781D01*
X146687024Y-76864052D01*
X146815391Y-76948286D01*
X146937010Y-77027830D01*
X147050868Y-77102034D01*
X147155953Y-77170245D01*
X147251254Y-77231812D01*
X147335758Y-77286082D01*
X147408455Y-77332404D01*
X147468331Y-77370126D01*
X147514376Y-77398597D01*
X147545577Y-77417165D01*
X147560922Y-77425177D01*
X147561300Y-77425303D01*
X147604480Y-77438548D01*
X147603870Y-76235560D01*
X146616115Y-75607435D01*
X146486565Y-75524973D01*
X146361310Y-75445089D01*
X146241476Y-75368510D01*
X146128191Y-75295963D01*
X146022584Y-75228177D01*
X145925782Y-75165877D01*
X145838913Y-75109792D01*
X145763105Y-75060650D01*
X145699485Y-75019177D01*
X145649181Y-74986101D01*
X145613322Y-74962149D01*
X145593035Y-74948049D01*
X145589476Y-74945281D01*
X145558570Y-74921231D01*
X145526580Y-74900778D01*
X145515816Y-74895225D01*
X145452438Y-74866939D01*
X145400979Y-74846155D01*
X145379440Y-74838352D01*
X145345165Y-74826239D01*
X145308130Y-74812897D01*
X145303758Y-74811302D01*
X145253569Y-74800018D01*
X145191064Y-74796431D01*
X145122454Y-74799897D01*
X145053952Y-74809768D01*
X144991769Y-74825400D01*
X144942116Y-74846148D01*
X144936446Y-74849468D01*
X144911877Y-74870636D01*
X144883664Y-74903758D01*
X144856555Y-74942281D01*
X144835297Y-74979652D01*
X144826588Y-75001120D01*
X144824368Y-75017462D01*
X144821821Y-75051354D01*
X144819083Y-75100029D01*
X144816288Y-75160721D01*
X144813574Y-75230665D01*
X144811075Y-75307094D01*
X144810375Y-75331320D01*
X144806804Y-75439314D01*
X144802550Y-75533797D01*
X144797716Y-75613104D01*
X144792406Y-75675569D01*
X144786722Y-75719529D01*
X144786203Y-75722480D01*
X144755075Y-75851317D01*
X144710935Y-75964728D01*
X144653345Y-76063245D01*
X144581868Y-76147404D01*
X144496065Y-76217737D01*
X144395502Y-76274780D01*
X144304233Y-76311169D01*
X144250152Y-76324697D01*
X144180530Y-76334885D01*
X144099921Y-76341409D01*
X144012880Y-76343946D01*
X143923959Y-76342172D01*
X143892824Y-76340445D01*
X143767122Y-76324051D01*
X143654553Y-76292167D01*
X143555046Y-76244748D01*
X143468535Y-76181752D01*
X143394951Y-76103137D01*
X143334225Y-76008859D01*
X143320816Y-75982362D01*
X143299626Y-75936306D01*
X143281424Y-75891439D01*
X143265990Y-75845835D01*
X143253104Y-75797570D01*
X143242547Y-75744719D01*
X143234097Y-75685357D01*
X143227537Y-75617560D01*
X143222645Y-75539402D01*
X143219202Y-75448958D01*
X143216988Y-75344305D01*
X143215783Y-75223516D01*
X143215367Y-75084668D01*
X143215360Y-75059029D01*
X143215360Y-74602307D01*
X144355820Y-74605131D01*
X144535700Y-74605531D01*
X144730046Y-74605880D01*
X144935369Y-74606177D01*
X145148182Y-74606419D01*
X145364997Y-74606604D01*
X145582326Y-74606731D01*
X145796681Y-74606797D01*
X146004574Y-74606800D01*
X146202517Y-74606738D01*
X146387024Y-74606609D01*
X146550380Y-74606417D01*
X147604480Y-74604880D01*
X147604480Y-73609006D01*
X145031460Y-73611642D01*
X144761284Y-73611922D01*
X144510685Y-73612192D01*
X144278915Y-73612458D01*
X144065232Y-73612727D01*
X143868891Y-73613004D01*
X143689145Y-73613296D01*
X143525252Y-73613609D01*
X143376467Y-73613950D01*
X143242043Y-73614324D01*
X143121238Y-73614738D01*
X143013307Y-73615197D01*
X142917504Y-73615709D01*
X142833085Y-73616280D01*
X142759305Y-73616915D01*
X142695420Y-73617621D01*
X142640685Y-73618404D01*
X142594356Y-73619270D01*
X142555687Y-73620226D01*
X142523934Y-73621278D01*
X142498353Y-73622432D01*
X142478198Y-73623694D01*
X142462725Y-73625071D01*
X142451190Y-73626568D01*
X142442847Y-73628193D01*
X142436953Y-73629950D01*
X142432762Y-73631847D01*
X142430237Y-73633400D01*
X142404480Y-73655414D01*
X142380540Y-73682676D01*
X142379437Y-73684200D01*
X142356840Y-73715880D01*
X142356840Y-74721720D01*
X142356862Y-74888639D01*
G36*
X142658064Y-81329485D02*
G01*
X142663784Y-81369365D01*
X142670834Y-81389724D01*
X142673192Y-81395016D01*
X142674608Y-81399423D01*
X142675779Y-81403386D01*
X142677399Y-81407342D01*
X142680164Y-81411733D01*
X142684769Y-81416997D01*
X142691909Y-81423574D01*
X142702279Y-81431903D01*
X142716575Y-81442424D01*
X142735491Y-81455576D01*
X142759724Y-81471798D01*
X142789968Y-81491531D01*
X142826919Y-81515213D01*
X142871271Y-81543285D01*
X142923720Y-81576185D01*
X142984961Y-81614353D01*
X143055689Y-81658228D01*
X143136601Y-81708250D01*
X143228390Y-81764859D01*
X143331752Y-81828494D01*
X143447382Y-81899593D01*
X143575976Y-81978598D01*
X143718228Y-82065947D01*
X143874835Y-82162079D01*
X144046490Y-82267435D01*
X144233890Y-82382453D01*
X144437730Y-82507573D01*
X144490440Y-82539931D01*
X144591847Y-82602182D01*
X144694594Y-82665253D01*
X144796213Y-82727628D01*
X144894234Y-82787792D01*
X144986189Y-82844230D01*
X145069608Y-82895426D01*
X145142023Y-82939865D01*
X145200965Y-82976031D01*
X145227040Y-82992028D01*
X145275714Y-83021898D01*
X145339401Y-83060996D01*
X145415801Y-83107910D01*
X145502616Y-83161229D01*
X145597546Y-83219539D01*
X145698292Y-83281429D01*
X145802556Y-83345487D01*
X145908038Y-83410300D01*
X146004280Y-83469442D01*
X146110064Y-83534446D01*
X146217699Y-83600576D01*
X146324749Y-83666336D01*
X146428775Y-83730228D01*
X146527341Y-83790756D01*
X146618008Y-83846424D01*
X146698339Y-83895733D01*
X146765897Y-83937188D01*
X146812000Y-83965463D01*
X146888938Y-84012648D01*
X146971910Y-84063557D01*
X147055929Y-84115130D01*
X147136008Y-84164305D01*
X147207158Y-84208020D01*
X147248111Y-84233196D01*
X147310459Y-84271358D01*
X147358389Y-84300040D01*
X147394685Y-84320584D01*
X147422127Y-84334331D01*
X147443498Y-84342621D01*
X147461580Y-84346796D01*
X147479155Y-84348198D01*
X147486871Y-84348282D01*
X147540111Y-84341415D01*
X147571460Y-84328111D01*
X147604480Y-84307978D01*
X147604480Y-78285115D01*
X147567558Y-78267594D01*
X147527922Y-78255497D01*
X147478863Y-78254097D01*
X147473578Y-78254469D01*
X147452336Y-78256908D01*
X147431744Y-78261727D01*
X147408760Y-78270404D01*
X147380341Y-78284414D01*
X147343444Y-78305232D01*
X147295027Y-78334335D01*
X147243800Y-78365908D01*
X147216981Y-78382504D01*
X147216981Y-78846302D01*
X147254043Y-78859926D01*
X147285918Y-78888161D01*
X147309217Y-78928182D01*
X147319584Y-78968071D01*
X147320072Y-78981945D01*
X147320506Y-79015219D01*
X147320883Y-79066975D01*
X147321206Y-79136293D01*
X147321472Y-79222255D01*
X147321683Y-79323941D01*
X147321837Y-79440432D01*
X147321935Y-79570809D01*
X147321977Y-79714153D01*
X147321962Y-79869545D01*
X147321891Y-80036065D01*
X147321762Y-80212795D01*
X147321577Y-80398815D01*
X147321334Y-80593206D01*
X147321034Y-80795049D01*
X147320676Y-81003424D01*
X147320261Y-81217414D01*
X147320000Y-81340960D01*
X147319402Y-81606554D01*
X147318805Y-81852506D01*
X147318206Y-82079496D01*
X147317597Y-82288200D01*
X147316975Y-82479297D01*
X147316333Y-82653465D01*
X147315667Y-82811384D01*
X147314972Y-82953730D01*
X147314241Y-83081183D01*
X147313471Y-83194421D01*
X147312656Y-83294121D01*
X147311790Y-83380963D01*
X147310869Y-83455624D01*
X147309886Y-83518782D01*
X147308838Y-83571117D01*
X147307719Y-83613307D01*
X147306523Y-83646029D01*
X147305245Y-83669962D01*
X147303881Y-83685784D01*
X147302424Y-83694174D01*
X147301918Y-83695434D01*
X147278114Y-83720877D01*
X147243463Y-83740422D01*
X147207425Y-83748842D01*
X147205180Y-83748880D01*
X147169968Y-83743928D01*
X147127401Y-83728267D01*
X147074621Y-83700688D01*
X147035520Y-83677076D01*
X147004529Y-83657765D01*
X146957407Y-83628570D01*
X146895349Y-83590224D01*
X146819548Y-83543462D01*
X146731198Y-83489018D01*
X146631493Y-83427625D01*
X146521627Y-83360019D01*
X146402793Y-83286932D01*
X146276187Y-83209100D01*
X146143001Y-83127256D01*
X146004429Y-83042135D01*
X145861666Y-82954470D01*
X145715905Y-82864997D01*
X145568341Y-82774448D01*
X145420166Y-82683558D01*
X145293080Y-82605632D01*
X145116490Y-82497347D01*
X144956425Y-82399142D01*
X144812062Y-82310509D01*
X144682582Y-82230942D01*
X144567164Y-82159933D01*
X144464988Y-82096975D01*
X144375233Y-82041562D01*
X144297077Y-81993186D01*
X144229702Y-81951339D01*
X144172287Y-81915516D01*
X144124010Y-81885208D01*
X144084051Y-81859908D01*
X144051590Y-81839110D01*
X144028160Y-81823856D01*
X143986368Y-81796778D01*
X143930751Y-81761342D01*
X143864834Y-81719763D01*
X143792144Y-81674253D01*
X143716209Y-81627029D01*
X143640555Y-81580303D01*
X143624473Y-81570417D01*
X143555908Y-81527894D01*
X143492239Y-81487619D01*
X143435739Y-81451092D01*
X143388683Y-81419814D01*
X143353345Y-81395283D01*
X143331999Y-81379001D01*
X143327293Y-81374433D01*
X143310948Y-81339000D01*
X143306942Y-81295019D01*
X143315251Y-81250069D01*
X143327743Y-81223111D01*
X143337778Y-81210212D01*
X143354141Y-81194643D01*
X143378239Y-81175467D01*
X143411478Y-81151744D01*
X143455268Y-81122536D01*
X143511015Y-81086903D01*
X143580127Y-81043907D01*
X143664012Y-80992609D01*
X143764000Y-80932117D01*
X143828294Y-80893192D01*
X143903953Y-80847110D01*
X143985102Y-80797467D01*
X144065865Y-80747858D01*
X144140365Y-80701880D01*
X144152548Y-80694334D01*
X144222622Y-80650909D01*
X144288077Y-80610362D01*
X144350134Y-80571940D01*
X144410012Y-80534893D01*
X144468933Y-80498469D01*
X144528117Y-80461919D01*
X144588786Y-80424490D01*
X144652160Y-80385432D01*
X144719460Y-80343993D01*
X144791906Y-80299423D01*
X144870720Y-80250971D01*
X144957122Y-80197884D01*
X145052333Y-80139414D01*
X145157573Y-80074807D01*
X145274065Y-80003314D01*
X145403027Y-79924184D01*
X145545682Y-79836664D01*
X145703249Y-79740005D01*
X145872200Y-79636369D01*
X145952646Y-79586997D01*
X146030707Y-79539039D01*
X146103996Y-79493967D01*
X146170125Y-79453250D01*
X146226706Y-79418358D01*
X146271351Y-79390763D01*
X146301673Y-79371935D01*
X146306876Y-79368681D01*
X146342225Y-79346929D01*
X146370904Y-79330036D01*
X146388727Y-79320430D01*
X146392256Y-79319120D01*
X146395757Y-79317957D01*
X146403644Y-79313960D01*
X146417186Y-79306358D01*
X146437656Y-79294386D01*
X146466324Y-79277274D01*
X146504462Y-79254256D01*
X146553341Y-79224564D01*
X146614231Y-79187429D01*
X146688404Y-79142085D01*
X146777131Y-79087763D01*
X146881683Y-79023696D01*
X146900944Y-79011890D01*
X146966083Y-78972240D01*
X147026953Y-78935719D01*
X147081017Y-78903807D01*
X147125736Y-78877985D01*
X147158572Y-78859736D01*
X147176988Y-78850540D01*
X147178117Y-78850112D01*
X147216981Y-78846302D01*
X147216981Y-78382504D01*
X147192638Y-78397569D01*
X147131380Y-78435395D01*
X147059412Y-78479762D01*
X146976122Y-78531046D01*
X146880897Y-78589624D01*
X146773124Y-78655872D01*
X146652190Y-78730166D01*
X146517483Y-78812884D01*
X146368388Y-78904402D01*
X146204295Y-79005095D01*
X146024589Y-79115342D01*
X145828659Y-79235518D01*
X145658840Y-79339662D01*
X145552835Y-79404687D01*
X145450854Y-79467281D01*
X145354377Y-79526534D01*
X145264886Y-79581533D01*
X145183862Y-79631367D01*
X145112788Y-79675125D01*
X145053145Y-79711893D01*
X145006416Y-79740761D01*
X144974081Y-79760817D01*
X144957800Y-79771035D01*
X144924858Y-79791784D01*
X144882236Y-79818075D01*
X144837743Y-79845100D01*
X144825720Y-79852320D01*
X144798989Y-79868466D01*
X144757356Y-79893797D01*
X144703220Y-79926845D01*
X144638982Y-79966142D01*
X144567041Y-80010219D01*
X144489798Y-80057609D01*
X144409652Y-80106841D01*
X144388840Y-80119636D01*
X144305114Y-80171091D01*
X144220921Y-80222783D01*
X144139169Y-80272930D01*
X144062766Y-80319749D01*
X143994621Y-80361458D01*
X143937643Y-80396275D01*
X143894739Y-80422419D01*
X143891000Y-80424691D01*
X143838417Y-80456724D01*
X143787707Y-80487786D01*
X143743290Y-80515157D01*
X143709588Y-80536117D01*
X143697960Y-80543455D01*
X143665048Y-80564086D01*
X143622465Y-80590319D01*
X143578002Y-80617363D01*
X143565880Y-80624667D01*
X143492070Y-80669230D01*
X143412715Y-80717511D01*
X143329705Y-80768328D01*
X143244932Y-80820501D01*
X143160288Y-80872847D01*
X143077663Y-80924186D01*
X142998950Y-80973336D01*
X142926040Y-81019115D01*
X142860824Y-81060343D01*
X142805194Y-81095837D01*
X142761041Y-81124417D01*
X142730257Y-81144902D01*
X142714733Y-81156109D01*
X142714072Y-81156693D01*
X142690536Y-81182362D01*
X142672009Y-81208853D01*
X142670892Y-81210915D01*
X142661621Y-81241895D01*
X142657344Y-81284207D01*
X142658064Y-81329485D01*
G37*
X142658064Y-81329485D02*
X142663784Y-81369365D01*
X142670834Y-81389724D01*
X142673192Y-81395016D01*
X142674608Y-81399423D01*
X142675779Y-81403386D01*
X142677399Y-81407342D01*
X142680164Y-81411733D01*
X142684769Y-81416997D01*
X142691909Y-81423574D01*
X142702279Y-81431903D01*
X142716575Y-81442424D01*
X142735491Y-81455576D01*
X142759724Y-81471798D01*
X142789968Y-81491531D01*
X142826919Y-81515213D01*
X142871271Y-81543285D01*
X142923720Y-81576185D01*
X142984961Y-81614353D01*
X143055689Y-81658228D01*
X143136601Y-81708250D01*
X143228390Y-81764859D01*
X143331752Y-81828494D01*
X143447382Y-81899593D01*
X143575976Y-81978598D01*
X143718228Y-82065947D01*
X143874835Y-82162079D01*
X144046490Y-82267435D01*
X144233890Y-82382453D01*
X144437730Y-82507573D01*
X144490440Y-82539931D01*
X144591847Y-82602182D01*
X144694594Y-82665253D01*
X144796213Y-82727628D01*
X144894234Y-82787792D01*
X144986189Y-82844230D01*
X145069608Y-82895426D01*
X145142023Y-82939865D01*
X145200965Y-82976031D01*
X145227040Y-82992028D01*
X145275714Y-83021898D01*
X145339401Y-83060996D01*
X145415801Y-83107910D01*
X145502616Y-83161229D01*
X145597546Y-83219539D01*
X145698292Y-83281429D01*
X145802556Y-83345487D01*
X145908038Y-83410300D01*
X146004280Y-83469442D01*
X146110064Y-83534446D01*
X146217699Y-83600576D01*
X146324749Y-83666336D01*
X146428775Y-83730228D01*
X146527341Y-83790756D01*
X146618008Y-83846424D01*
X146698339Y-83895733D01*
X146765897Y-83937188D01*
X146812000Y-83965463D01*
X146888938Y-84012648D01*
X146971910Y-84063557D01*
X147055929Y-84115130D01*
X147136008Y-84164305D01*
X147207158Y-84208020D01*
X147248111Y-84233196D01*
X147310459Y-84271358D01*
X147358389Y-84300040D01*
X147394685Y-84320584D01*
X147422127Y-84334331D01*
X147443498Y-84342621D01*
X147461580Y-84346796D01*
X147479155Y-84348198D01*
X147486871Y-84348282D01*
X147540111Y-84341415D01*
X147571460Y-84328111D01*
X147604480Y-84307978D01*
X147604480Y-78285115D01*
X147567558Y-78267594D01*
X147527922Y-78255497D01*
X147478863Y-78254097D01*
X147473578Y-78254469D01*
X147452336Y-78256908D01*
X147431744Y-78261727D01*
X147408760Y-78270404D01*
X147380341Y-78284414D01*
X147343444Y-78305232D01*
X147295027Y-78334335D01*
X147243800Y-78365908D01*
X147216981Y-78382504D01*
X147216981Y-78846302D01*
X147254043Y-78859926D01*
X147285918Y-78888161D01*
X147309217Y-78928182D01*
X147319584Y-78968071D01*
X147320072Y-78981945D01*
X147320506Y-79015219D01*
X147320883Y-79066975D01*
X147321206Y-79136293D01*
X147321472Y-79222255D01*
X147321683Y-79323941D01*
X147321837Y-79440432D01*
X147321935Y-79570809D01*
X147321977Y-79714153D01*
X147321962Y-79869545D01*
X147321891Y-80036065D01*
X147321762Y-80212795D01*
X147321577Y-80398815D01*
X147321334Y-80593206D01*
X147321034Y-80795049D01*
X147320676Y-81003424D01*
X147320261Y-81217414D01*
X147320000Y-81340960D01*
X147319402Y-81606554D01*
X147318805Y-81852506D01*
X147318206Y-82079496D01*
X147317597Y-82288200D01*
X147316975Y-82479297D01*
X147316333Y-82653465D01*
X147315667Y-82811384D01*
X147314972Y-82953730D01*
X147314241Y-83081183D01*
X147313471Y-83194421D01*
X147312656Y-83294121D01*
X147311790Y-83380963D01*
X147310869Y-83455624D01*
X147309886Y-83518782D01*
X147308838Y-83571117D01*
X147307719Y-83613307D01*
X147306523Y-83646029D01*
X147305245Y-83669962D01*
X147303881Y-83685784D01*
X147302424Y-83694174D01*
X147301918Y-83695434D01*
X147278114Y-83720877D01*
X147243463Y-83740422D01*
X147207425Y-83748842D01*
X147205180Y-83748880D01*
X147169968Y-83743928D01*
X147127401Y-83728267D01*
X147074621Y-83700688D01*
X147035520Y-83677076D01*
X147004529Y-83657765D01*
X146957407Y-83628570D01*
X146895349Y-83590224D01*
X146819548Y-83543462D01*
X146731198Y-83489018D01*
X146631493Y-83427625D01*
X146521627Y-83360019D01*
X146402793Y-83286932D01*
X146276187Y-83209100D01*
X146143001Y-83127256D01*
X146004429Y-83042135D01*
X145861666Y-82954470D01*
X145715905Y-82864997D01*
X145568341Y-82774448D01*
X145420166Y-82683558D01*
X145293080Y-82605632D01*
X145116490Y-82497347D01*
X144956425Y-82399142D01*
X144812062Y-82310509D01*
X144682582Y-82230942D01*
X144567164Y-82159933D01*
X144464988Y-82096975D01*
X144375233Y-82041562D01*
X144297077Y-81993186D01*
X144229702Y-81951339D01*
X144172287Y-81915516D01*
X144124010Y-81885208D01*
X144084051Y-81859908D01*
X144051590Y-81839110D01*
X144028160Y-81823856D01*
X143986368Y-81796778D01*
X143930751Y-81761342D01*
X143864834Y-81719763D01*
X143792144Y-81674253D01*
X143716209Y-81627029D01*
X143640555Y-81580303D01*
X143624473Y-81570417D01*
X143555908Y-81527894D01*
X143492239Y-81487619D01*
X143435739Y-81451092D01*
X143388683Y-81419814D01*
X143353345Y-81395283D01*
X143331999Y-81379001D01*
X143327293Y-81374433D01*
X143310948Y-81339000D01*
X143306942Y-81295019D01*
X143315251Y-81250069D01*
X143327743Y-81223111D01*
X143337778Y-81210212D01*
X143354141Y-81194643D01*
X143378239Y-81175467D01*
X143411478Y-81151744D01*
X143455268Y-81122536D01*
X143511015Y-81086903D01*
X143580127Y-81043907D01*
X143664012Y-80992609D01*
X143764000Y-80932117D01*
X143828294Y-80893192D01*
X143903953Y-80847110D01*
X143985102Y-80797467D01*
X144065865Y-80747858D01*
X144140365Y-80701880D01*
X144152548Y-80694334D01*
X144222622Y-80650909D01*
X144288077Y-80610362D01*
X144350134Y-80571940D01*
X144410012Y-80534893D01*
X144468933Y-80498469D01*
X144528117Y-80461919D01*
X144588786Y-80424490D01*
X144652160Y-80385432D01*
X144719460Y-80343993D01*
X144791906Y-80299423D01*
X144870720Y-80250971D01*
X144957122Y-80197884D01*
X145052333Y-80139414D01*
X145157573Y-80074807D01*
X145274065Y-80003314D01*
X145403027Y-79924184D01*
X145545682Y-79836664D01*
X145703249Y-79740005D01*
X145872200Y-79636369D01*
X145952646Y-79586997D01*
X146030707Y-79539039D01*
X146103996Y-79493967D01*
X146170125Y-79453250D01*
X146226706Y-79418358D01*
X146271351Y-79390763D01*
X146301673Y-79371935D01*
X146306876Y-79368681D01*
X146342225Y-79346929D01*
X146370904Y-79330036D01*
X146388727Y-79320430D01*
X146392256Y-79319120D01*
X146395757Y-79317957D01*
X146403644Y-79313960D01*
X146417186Y-79306358D01*
X146437656Y-79294386D01*
X146466324Y-79277274D01*
X146504462Y-79254256D01*
X146553341Y-79224564D01*
X146614231Y-79187429D01*
X146688404Y-79142085D01*
X146777131Y-79087763D01*
X146881683Y-79023696D01*
X146900944Y-79011890D01*
X146966083Y-78972240D01*
X147026953Y-78935719D01*
X147081017Y-78903807D01*
X147125736Y-78877985D01*
X147158572Y-78859736D01*
X147176988Y-78850540D01*
X147178117Y-78850112D01*
X147216981Y-78846302D01*
X147216981Y-78382504D01*
X147192638Y-78397569D01*
X147131380Y-78435395D01*
X147059412Y-78479762D01*
X146976122Y-78531046D01*
X146880897Y-78589624D01*
X146773124Y-78655872D01*
X146652190Y-78730166D01*
X146517483Y-78812884D01*
X146368388Y-78904402D01*
X146204295Y-79005095D01*
X146024589Y-79115342D01*
X145828659Y-79235518D01*
X145658840Y-79339662D01*
X145552835Y-79404687D01*
X145450854Y-79467281D01*
X145354377Y-79526534D01*
X145264886Y-79581533D01*
X145183862Y-79631367D01*
X145112788Y-79675125D01*
X145053145Y-79711893D01*
X145006416Y-79740761D01*
X144974081Y-79760817D01*
X144957800Y-79771035D01*
X144924858Y-79791784D01*
X144882236Y-79818075D01*
X144837743Y-79845100D01*
X144825720Y-79852320D01*
X144798989Y-79868466D01*
X144757356Y-79893797D01*
X144703220Y-79926845D01*
X144638982Y-79966142D01*
X144567041Y-80010219D01*
X144489798Y-80057609D01*
X144409652Y-80106841D01*
X144388840Y-80119636D01*
X144305114Y-80171091D01*
X144220921Y-80222783D01*
X144139169Y-80272930D01*
X144062766Y-80319749D01*
X143994621Y-80361458D01*
X143937643Y-80396275D01*
X143894739Y-80422419D01*
X143891000Y-80424691D01*
X143838417Y-80456724D01*
X143787707Y-80487786D01*
X143743290Y-80515157D01*
X143709588Y-80536117D01*
X143697960Y-80543455D01*
X143665048Y-80564086D01*
X143622465Y-80590319D01*
X143578002Y-80617363D01*
X143565880Y-80624667D01*
X143492070Y-80669230D01*
X143412715Y-80717511D01*
X143329705Y-80768328D01*
X143244932Y-80820501D01*
X143160288Y-80872847D01*
X143077663Y-80924186D01*
X142998950Y-80973336D01*
X142926040Y-81019115D01*
X142860824Y-81060343D01*
X142805194Y-81095837D01*
X142761041Y-81124417D01*
X142730257Y-81144902D01*
X142714733Y-81156109D01*
X142714072Y-81156693D01*
X142690536Y-81182362D01*
X142672009Y-81208853D01*
X142670892Y-81210915D01*
X142661621Y-81241895D01*
X142657344Y-81284207D01*
X142658064Y-81329485D01*
G36*
X142007676Y-88608219D02*
G01*
X142008203Y-88672127D01*
X142009052Y-88723318D01*
X142010201Y-88759152D01*
X142011443Y-88775873D01*
X142028103Y-88824588D01*
X142061617Y-88862769D01*
X142110881Y-88889401D01*
X142144687Y-88898840D01*
X142157697Y-88900562D01*
X142179680Y-88902106D01*
X142211411Y-88903475D01*
X142253661Y-88904672D01*
X142307206Y-88905703D01*
X142372819Y-88906570D01*
X142451273Y-88907279D01*
X142543342Y-88907832D01*
X142649799Y-88908234D01*
X142771419Y-88908490D01*
X142908975Y-88908602D01*
X143063240Y-88908575D01*
X143234988Y-88908414D01*
X143424993Y-88908121D01*
X143634028Y-88907702D01*
X143784320Y-88907354D01*
X144008157Y-88906838D01*
X144212664Y-88906382D01*
X144398831Y-88905928D01*
X144567647Y-88905415D01*
X144720102Y-88904783D01*
X144857187Y-88903974D01*
X144979890Y-88902927D01*
X145089201Y-88901583D01*
X145186110Y-88899882D01*
X145271607Y-88897765D01*
X145346681Y-88895171D01*
X145412322Y-88892041D01*
X145469520Y-88888316D01*
X145519264Y-88883935D01*
X145562544Y-88878840D01*
X145600351Y-88872970D01*
X145633673Y-88866265D01*
X145663500Y-88858667D01*
X145690822Y-88850115D01*
X145716629Y-88840550D01*
X145741910Y-88829912D01*
X145767655Y-88818142D01*
X145794854Y-88805179D01*
X145824496Y-88790964D01*
X145840490Y-88783394D01*
X145887909Y-88762293D01*
X145944639Y-88738786D01*
X146000732Y-88716953D01*
X146018290Y-88710491D01*
X146064840Y-88692474D01*
X146120519Y-88669020D01*
X146181529Y-88641929D01*
X146244077Y-88613002D01*
X146304365Y-88584039D01*
X146358600Y-88556842D01*
X146402985Y-88533211D01*
X146433726Y-88514946D01*
X146440545Y-88510165D01*
X146464008Y-88495304D01*
X146499837Y-88475930D01*
X146541668Y-88455415D01*
X146558000Y-88447938D01*
X146604630Y-88425863D01*
X146651715Y-88401614D01*
X146690792Y-88379596D01*
X146698860Y-88374613D01*
X146754601Y-88337461D01*
X146821054Y-88290433D01*
X146893616Y-88237007D01*
X146967681Y-88180660D01*
X147038648Y-88124870D01*
X147101911Y-88073115D01*
X147132001Y-88047414D01*
X147219959Y-87969191D01*
X147294361Y-87899216D01*
X147358316Y-87834111D01*
X147414932Y-87770497D01*
X147467318Y-87704996D01*
X147518581Y-87634229D01*
X147537310Y-87606888D01*
X147568851Y-87558599D01*
X147589394Y-87522638D01*
X147600680Y-87495500D01*
X147604449Y-87473680D01*
X147604480Y-87471580D01*
X147604480Y-87435584D01*
X147546060Y-87466342D01*
X147456074Y-87512606D01*
X147360713Y-87559644D01*
X147263485Y-87605867D01*
X147167899Y-87649685D01*
X147077463Y-87689508D01*
X146995685Y-87723748D01*
X146926074Y-87750815D01*
X146890811Y-87763215D01*
X146837523Y-87780447D01*
X146789755Y-87795084D01*
X146751406Y-87805991D01*
X146726376Y-87812035D01*
X146719963Y-87812880D01*
X146701354Y-87815267D01*
X146668519Y-87821686D01*
X146626891Y-87831020D01*
X146600511Y-87837416D01*
X146565714Y-87845543D01*
X146532128Y-87851881D01*
X146496151Y-87856752D01*
X146454182Y-87860476D01*
X146402620Y-87863374D01*
X146337862Y-87865769D01*
X146258280Y-87867933D01*
X146178303Y-87870247D01*
X146094469Y-87873288D01*
X146012422Y-87876808D01*
X145937808Y-87880561D01*
X145876272Y-87884298D01*
X145862040Y-87885316D01*
X145780778Y-87889811D01*
X145691280Y-87892047D01*
X145598013Y-87892138D01*
X145505443Y-87890195D01*
X145418038Y-87886332D01*
X145340266Y-87880661D01*
X145276594Y-87873294D01*
X145257062Y-87870080D01*
X145108979Y-87833493D01*
X144968334Y-87780209D01*
X144836453Y-87711579D01*
X144714658Y-87628956D01*
X144604273Y-87533693D01*
X144506622Y-87427141D01*
X144423029Y-87310652D01*
X144354818Y-87185580D01*
X144303313Y-87053276D01*
X144269837Y-86915093D01*
X144261159Y-86852760D01*
X144255640Y-86774918D01*
X144254315Y-86688735D01*
X144256980Y-86601532D01*
X144263431Y-86520628D01*
X144272034Y-86460706D01*
X144306986Y-86327076D01*
X144360270Y-86196477D01*
X144429958Y-86071390D01*
X144514119Y-85954295D01*
X144610825Y-85847674D01*
X144718146Y-85754007D01*
X144834154Y-85675774D01*
X144915372Y-85633417D01*
X145070173Y-85572656D01*
X145229038Y-85531644D01*
X145238204Y-85529901D01*
X145294794Y-85522099D01*
X145366791Y-85516357D01*
X145449462Y-85512675D01*
X145538073Y-85511056D01*
X145627892Y-85511503D01*
X145714184Y-85514018D01*
X145792217Y-85518602D01*
X145857257Y-85525259D01*
X145884631Y-85529589D01*
X146036050Y-85566555D01*
X146182528Y-85619271D01*
X146319441Y-85685894D01*
X146400348Y-85735269D01*
X146443090Y-85767154D01*
X146494315Y-85810611D01*
X146549675Y-85861458D01*
X146604821Y-85915511D01*
X146655407Y-85968587D01*
X146697084Y-86016501D01*
X146710832Y-86034008D01*
X146766566Y-86116866D01*
X146816427Y-86208102D01*
X146858733Y-86303373D01*
X146891803Y-86398338D01*
X146913954Y-86488657D01*
X146923507Y-86569987D01*
X146923760Y-86583814D01*
X146926102Y-86614953D01*
X146932670Y-86626600D01*
X146942776Y-86618980D01*
X146955730Y-86592316D01*
X146963399Y-86570892D01*
X146980640Y-86498639D01*
X146990507Y-86410945D01*
X146993101Y-86311266D01*
X146988523Y-86203058D01*
X146976874Y-86089776D01*
X146958254Y-85974875D01*
X146944076Y-85907880D01*
X146932352Y-85854649D01*
X146920111Y-85795105D01*
X146910594Y-85745320D01*
X146896855Y-85687316D01*
X146874696Y-85615892D01*
X146845667Y-85535330D01*
X146811319Y-85449914D01*
X146773202Y-85363929D01*
X146770375Y-85357876D01*
X146747084Y-85308035D01*
X146720347Y-85250587D01*
X146695212Y-85196385D01*
X146690514Y-85186223D01*
X146639945Y-85094811D01*
X146577310Y-85010661D01*
X146523351Y-84954638D01*
X146505449Y-84937813D01*
X146476302Y-84909886D01*
X146439157Y-84873994D01*
X146397268Y-84833274D01*
X146370040Y-84806686D01*
X146299652Y-84739945D01*
X146237512Y-84686188D01*
X146179427Y-84642330D01*
X146121202Y-84605291D01*
X146058644Y-84571987D01*
X146035967Y-84561118D01*
X145993806Y-84542494D01*
X145953565Y-84527696D01*
X145912165Y-84516302D01*
X145866526Y-84507892D01*
X145813569Y-84502043D01*
X145750214Y-84498336D01*
X145673381Y-84496348D01*
X145579992Y-84495659D01*
X145557240Y-84495640D01*
X145460847Y-84496068D01*
X145380014Y-84497667D01*
X145309992Y-84500911D01*
X145246032Y-84506270D01*
X145183385Y-84514218D01*
X145117303Y-84525227D01*
X145043038Y-84539769D01*
X144980247Y-84553034D01*
X144773513Y-84607100D01*
X144578525Y-84677708D01*
X144395333Y-84764829D01*
X144223987Y-84868432D01*
X144064539Y-84988488D01*
X143917039Y-85124968D01*
X143816993Y-85234886D01*
X143699308Y-85387640D01*
X143598736Y-85548403D01*
X143514674Y-85718527D01*
X143446521Y-85899366D01*
X143393675Y-86092272D01*
X143361643Y-86258513D01*
X143354649Y-86316094D01*
X143349336Y-86387764D01*
X143345745Y-86468732D01*
X143343920Y-86554209D01*
X143343905Y-86639405D01*
X143345743Y-86719529D01*
X143349477Y-86789792D01*
X143355151Y-86845405D01*
X143356264Y-86852760D01*
X143368769Y-86921590D01*
X143385154Y-86998707D01*
X143403933Y-87078031D01*
X143423620Y-87153481D01*
X143442726Y-87218974D01*
X143454398Y-87254080D01*
X143501027Y-87366420D01*
X143561461Y-87483913D01*
X143632277Y-87600942D01*
X143710048Y-87711887D01*
X143791350Y-87811132D01*
X143799568Y-87820225D01*
X143866545Y-87893610D01*
X142999932Y-87896425D01*
X142846925Y-87896939D01*
X142712911Y-87897443D01*
X142596567Y-87897970D01*
X142496566Y-87898552D01*
X142411584Y-87899220D01*
X142340295Y-87900006D01*
X142281373Y-87900943D01*
X142233494Y-87902063D01*
X142195331Y-87903397D01*
X142165560Y-87904978D01*
X142142855Y-87906838D01*
X142125890Y-87909007D01*
X142113340Y-87911520D01*
X142103881Y-87914407D01*
X142096185Y-87917701D01*
X142095019Y-87918272D01*
X142063892Y-87938929D01*
X142037205Y-87964936D01*
X142034059Y-87969072D01*
X142028118Y-87977900D01*
X142023296Y-87987445D01*
X142019455Y-87999837D01*
X142016457Y-88017203D01*
X142014163Y-88041674D01*
X142012435Y-88075379D01*
X142011135Y-88120445D01*
X142010124Y-88179002D01*
X142009264Y-88253179D01*
X142008417Y-88345104D01*
X142008230Y-88366600D01*
X142007669Y-88452815D01*
X142007491Y-88534235D01*
X142007676Y-88608219D01*
G37*
X142007676Y-88608219D02*
X142008203Y-88672127D01*
X142009052Y-88723318D01*
X142010201Y-88759152D01*
X142011443Y-88775873D01*
X142028103Y-88824588D01*
X142061617Y-88862769D01*
X142110881Y-88889401D01*
X142144687Y-88898840D01*
X142157697Y-88900562D01*
X142179680Y-88902106D01*
X142211411Y-88903475D01*
X142253661Y-88904672D01*
X142307206Y-88905703D01*
X142372819Y-88906570D01*
X142451273Y-88907279D01*
X142543342Y-88907832D01*
X142649799Y-88908234D01*
X142771419Y-88908490D01*
X142908975Y-88908602D01*
X143063240Y-88908575D01*
X143234988Y-88908414D01*
X143424993Y-88908121D01*
X143634028Y-88907702D01*
X143784320Y-88907354D01*
X144008157Y-88906838D01*
X144212664Y-88906382D01*
X144398831Y-88905928D01*
X144567647Y-88905415D01*
X144720102Y-88904783D01*
X144857187Y-88903974D01*
X144979890Y-88902927D01*
X145089201Y-88901583D01*
X145186110Y-88899882D01*
X145271607Y-88897765D01*
X145346681Y-88895171D01*
X145412322Y-88892041D01*
X145469520Y-88888316D01*
X145519264Y-88883935D01*
X145562544Y-88878840D01*
X145600351Y-88872970D01*
X145633673Y-88866265D01*
X145663500Y-88858667D01*
X145690822Y-88850115D01*
X145716629Y-88840550D01*
X145741910Y-88829912D01*
X145767655Y-88818142D01*
X145794854Y-88805179D01*
X145824496Y-88790964D01*
X145840490Y-88783394D01*
X145887909Y-88762293D01*
X145944639Y-88738786D01*
X146000732Y-88716953D01*
X146018290Y-88710491D01*
X146064840Y-88692474D01*
X146120519Y-88669020D01*
X146181529Y-88641929D01*
X146244077Y-88613002D01*
X146304365Y-88584039D01*
X146358600Y-88556842D01*
X146402985Y-88533211D01*
X146433726Y-88514946D01*
X146440545Y-88510165D01*
X146464008Y-88495304D01*
X146499837Y-88475930D01*
X146541668Y-88455415D01*
X146558000Y-88447938D01*
X146604630Y-88425863D01*
X146651715Y-88401614D01*
X146690792Y-88379596D01*
X146698860Y-88374613D01*
X146754601Y-88337461D01*
X146821054Y-88290433D01*
X146893616Y-88237007D01*
X146967681Y-88180660D01*
X147038648Y-88124870D01*
X147101911Y-88073115D01*
X147132001Y-88047414D01*
X147219959Y-87969191D01*
X147294361Y-87899216D01*
X147358316Y-87834111D01*
X147414932Y-87770497D01*
X147467318Y-87704996D01*
X147518581Y-87634229D01*
X147537310Y-87606888D01*
X147568851Y-87558599D01*
X147589394Y-87522638D01*
X147600680Y-87495500D01*
X147604449Y-87473680D01*
X147604480Y-87471580D01*
X147604480Y-87435584D01*
X147546060Y-87466342D01*
X147456074Y-87512606D01*
X147360713Y-87559644D01*
X147263485Y-87605867D01*
X147167899Y-87649685D01*
X147077463Y-87689508D01*
X146995685Y-87723748D01*
X146926074Y-87750815D01*
X146890811Y-87763215D01*
X146837523Y-87780447D01*
X146789755Y-87795084D01*
X146751406Y-87805991D01*
X146726376Y-87812035D01*
X146719963Y-87812880D01*
X146701354Y-87815267D01*
X146668519Y-87821686D01*
X146626891Y-87831020D01*
X146600511Y-87837416D01*
X146565714Y-87845543D01*
X146532128Y-87851881D01*
X146496151Y-87856752D01*
X146454182Y-87860476D01*
X146402620Y-87863374D01*
X146337862Y-87865769D01*
X146258280Y-87867933D01*
X146178303Y-87870247D01*
X146094469Y-87873288D01*
X146012422Y-87876808D01*
X145937808Y-87880561D01*
X145876272Y-87884298D01*
X145862040Y-87885316D01*
X145780778Y-87889811D01*
X145691280Y-87892047D01*
X145598013Y-87892138D01*
X145505443Y-87890195D01*
X145418038Y-87886332D01*
X145340266Y-87880661D01*
X145276594Y-87873294D01*
X145257062Y-87870080D01*
X145108979Y-87833493D01*
X144968334Y-87780209D01*
X144836453Y-87711579D01*
X144714658Y-87628956D01*
X144604273Y-87533693D01*
X144506622Y-87427141D01*
X144423029Y-87310652D01*
X144354818Y-87185580D01*
X144303313Y-87053276D01*
X144269837Y-86915093D01*
X144261159Y-86852760D01*
X144255640Y-86774918D01*
X144254315Y-86688735D01*
X144256980Y-86601532D01*
X144263431Y-86520628D01*
X144272034Y-86460706D01*
X144306986Y-86327076D01*
X144360270Y-86196477D01*
X144429958Y-86071390D01*
X144514119Y-85954295D01*
X144610825Y-85847674D01*
X144718146Y-85754007D01*
X144834154Y-85675774D01*
X144915372Y-85633417D01*
X145070173Y-85572656D01*
X145229038Y-85531644D01*
X145238204Y-85529901D01*
X145294794Y-85522099D01*
X145366791Y-85516357D01*
X145449462Y-85512675D01*
X145538073Y-85511056D01*
X145627892Y-85511503D01*
X145714184Y-85514018D01*
X145792217Y-85518602D01*
X145857257Y-85525259D01*
X145884631Y-85529589D01*
X146036050Y-85566555D01*
X146182528Y-85619271D01*
X146319441Y-85685894D01*
X146400348Y-85735269D01*
X146443090Y-85767154D01*
X146494315Y-85810611D01*
X146549675Y-85861458D01*
X146604821Y-85915511D01*
X146655407Y-85968587D01*
X146697084Y-86016501D01*
X146710832Y-86034008D01*
X146766566Y-86116866D01*
X146816427Y-86208102D01*
X146858733Y-86303373D01*
X146891803Y-86398338D01*
X146913954Y-86488657D01*
X146923507Y-86569987D01*
X146923760Y-86583814D01*
X146926102Y-86614953D01*
X146932670Y-86626600D01*
X146942776Y-86618980D01*
X146955730Y-86592316D01*
X146963399Y-86570892D01*
X146980640Y-86498639D01*
X146990507Y-86410945D01*
X146993101Y-86311266D01*
X146988523Y-86203058D01*
X146976874Y-86089776D01*
X146958254Y-85974875D01*
X146944076Y-85907880D01*
X146932352Y-85854649D01*
X146920111Y-85795105D01*
X146910594Y-85745320D01*
X146896855Y-85687316D01*
X146874696Y-85615892D01*
X146845667Y-85535330D01*
X146811319Y-85449914D01*
X146773202Y-85363929D01*
X146770375Y-85357876D01*
X146747084Y-85308035D01*
X146720347Y-85250587D01*
X146695212Y-85196385D01*
X146690514Y-85186223D01*
X146639945Y-85094811D01*
X146577310Y-85010661D01*
X146523351Y-84954638D01*
X146505449Y-84937813D01*
X146476302Y-84909886D01*
X146439157Y-84873994D01*
X146397268Y-84833274D01*
X146370040Y-84806686D01*
X146299652Y-84739945D01*
X146237512Y-84686188D01*
X146179427Y-84642330D01*
X146121202Y-84605291D01*
X146058644Y-84571987D01*
X146035967Y-84561118D01*
X145993806Y-84542494D01*
X145953565Y-84527696D01*
X145912165Y-84516302D01*
X145866526Y-84507892D01*
X145813569Y-84502043D01*
X145750214Y-84498336D01*
X145673381Y-84496348D01*
X145579992Y-84495659D01*
X145557240Y-84495640D01*
X145460847Y-84496068D01*
X145380014Y-84497667D01*
X145309992Y-84500911D01*
X145246032Y-84506270D01*
X145183385Y-84514218D01*
X145117303Y-84525227D01*
X145043038Y-84539769D01*
X144980247Y-84553034D01*
X144773513Y-84607100D01*
X144578525Y-84677708D01*
X144395333Y-84764829D01*
X144223987Y-84868432D01*
X144064539Y-84988488D01*
X143917039Y-85124968D01*
X143816993Y-85234886D01*
X143699308Y-85387640D01*
X143598736Y-85548403D01*
X143514674Y-85718527D01*
X143446521Y-85899366D01*
X143393675Y-86092272D01*
X143361643Y-86258513D01*
X143354649Y-86316094D01*
X143349336Y-86387764D01*
X143345745Y-86468732D01*
X143343920Y-86554209D01*
X143343905Y-86639405D01*
X143345743Y-86719529D01*
X143349477Y-86789792D01*
X143355151Y-86845405D01*
X143356264Y-86852760D01*
X143368769Y-86921590D01*
X143385154Y-86998707D01*
X143403933Y-87078031D01*
X143423620Y-87153481D01*
X143442726Y-87218974D01*
X143454398Y-87254080D01*
X143501027Y-87366420D01*
X143561461Y-87483913D01*
X143632277Y-87600942D01*
X143710048Y-87711887D01*
X143791350Y-87811132D01*
X143799568Y-87820225D01*
X143866545Y-87893610D01*
X142999932Y-87896425D01*
X142846925Y-87896939D01*
X142712911Y-87897443D01*
X142596567Y-87897970D01*
X142496566Y-87898552D01*
X142411584Y-87899220D01*
X142340295Y-87900006D01*
X142281373Y-87900943D01*
X142233494Y-87902063D01*
X142195331Y-87903397D01*
X142165560Y-87904978D01*
X142142855Y-87906838D01*
X142125890Y-87909007D01*
X142113340Y-87911520D01*
X142103881Y-87914407D01*
X142096185Y-87917701D01*
X142095019Y-87918272D01*
X142063892Y-87938929D01*
X142037205Y-87964936D01*
X142034059Y-87969072D01*
X142028118Y-87977900D01*
X142023296Y-87987445D01*
X142019455Y-87999837D01*
X142016457Y-88017203D01*
X142014163Y-88041674D01*
X142012435Y-88075379D01*
X142011135Y-88120445D01*
X142010124Y-88179002D01*
X142009264Y-88253179D01*
X142008417Y-88345104D01*
X142008230Y-88366600D01*
X142007669Y-88452815D01*
X142007491Y-88534235D01*
X142007676Y-88608219D01*
G36*
X142007676Y-94023499D02*
G01*
X142008203Y-94087407D01*
X142009052Y-94138598D01*
X142010201Y-94174432D01*
X142011443Y-94191153D01*
X142028103Y-94239868D01*
X142061617Y-94278049D01*
X142110881Y-94304681D01*
X142144687Y-94314120D01*
X142157697Y-94315842D01*
X142179680Y-94317386D01*
X142211411Y-94318755D01*
X142253661Y-94319952D01*
X142307206Y-94320983D01*
X142372819Y-94321850D01*
X142451273Y-94322559D01*
X142543342Y-94323112D01*
X142649799Y-94323514D01*
X142771419Y-94323770D01*
X142908975Y-94323882D01*
X143063240Y-94323855D01*
X143234988Y-94323694D01*
X143424993Y-94323401D01*
X143634028Y-94322982D01*
X143784320Y-94322634D01*
X144008157Y-94322118D01*
X144212664Y-94321662D01*
X144398831Y-94321208D01*
X144567647Y-94320695D01*
X144720102Y-94320063D01*
X144857187Y-94319254D01*
X144979890Y-94318207D01*
X145089201Y-94316863D01*
X145186110Y-94315162D01*
X145271607Y-94313045D01*
X145346681Y-94310451D01*
X145412322Y-94307321D01*
X145469520Y-94303596D01*
X145519264Y-94299215D01*
X145562544Y-94294120D01*
X145600351Y-94288250D01*
X145633673Y-94281545D01*
X145663500Y-94273947D01*
X145690822Y-94265395D01*
X145716629Y-94255830D01*
X145741910Y-94245192D01*
X145767655Y-94233422D01*
X145794854Y-94220459D01*
X145824496Y-94206244D01*
X145840490Y-94198674D01*
X145887909Y-94177573D01*
X145944639Y-94154066D01*
X146000732Y-94132233D01*
X146018290Y-94125771D01*
X146064840Y-94107754D01*
X146120519Y-94084300D01*
X146181529Y-94057209D01*
X146244077Y-94028282D01*
X146304365Y-93999319D01*
X146358600Y-93972122D01*
X146402985Y-93948491D01*
X146433726Y-93930226D01*
X146440545Y-93925445D01*
X146464008Y-93910584D01*
X146499837Y-93891210D01*
X146541668Y-93870695D01*
X146558000Y-93863218D01*
X146604630Y-93841143D01*
X146651715Y-93816894D01*
X146690792Y-93794876D01*
X146698860Y-93789893D01*
X146754601Y-93752741D01*
X146821054Y-93705713D01*
X146893616Y-93652287D01*
X146967681Y-93595940D01*
X147038648Y-93540150D01*
X147101911Y-93488395D01*
X147132001Y-93462694D01*
X147219959Y-93384471D01*
X147294361Y-93314496D01*
X147358316Y-93249391D01*
X147414932Y-93185777D01*
X147467318Y-93120276D01*
X147518581Y-93049509D01*
X147537310Y-93022168D01*
X147568851Y-92973879D01*
X147589394Y-92937918D01*
X147600680Y-92910780D01*
X147604449Y-92888960D01*
X147604480Y-92886860D01*
X147604480Y-92850864D01*
X147546060Y-92881622D01*
X147456074Y-92927886D01*
X147360713Y-92974924D01*
X147263485Y-93021147D01*
X147167899Y-93064965D01*
X147077463Y-93104788D01*
X146995685Y-93139028D01*
X146926074Y-93166095D01*
X146890811Y-93178495D01*
X146837523Y-93195727D01*
X146789755Y-93210364D01*
X146751406Y-93221271D01*
X146726376Y-93227315D01*
X146719963Y-93228160D01*
X146701354Y-93230547D01*
X146668519Y-93236966D01*
X146626891Y-93246300D01*
X146600511Y-93252696D01*
X146565714Y-93260823D01*
X146532128Y-93267161D01*
X146496151Y-93272032D01*
X146454182Y-93275756D01*
X146402620Y-93278654D01*
X146337862Y-93281049D01*
X146258280Y-93283213D01*
X146178303Y-93285527D01*
X146094469Y-93288568D01*
X146012422Y-93292088D01*
X145937808Y-93295841D01*
X145876272Y-93299578D01*
X145862040Y-93300596D01*
X145780778Y-93305091D01*
X145691280Y-93307327D01*
X145598013Y-93307418D01*
X145505443Y-93305475D01*
X145418038Y-93301612D01*
X145340266Y-93295941D01*
X145276594Y-93288574D01*
X145257062Y-93285360D01*
X145108979Y-93248773D01*
X144968334Y-93195489D01*
X144836453Y-93126859D01*
X144714658Y-93044236D01*
X144604273Y-92948973D01*
X144506622Y-92842421D01*
X144423029Y-92725932D01*
X144354818Y-92600860D01*
X144303313Y-92468556D01*
X144269837Y-92330373D01*
X144261159Y-92268040D01*
X144255640Y-92190198D01*
X144254315Y-92104015D01*
X144256980Y-92016812D01*
X144263431Y-91935908D01*
X144272034Y-91875986D01*
X144306986Y-91742356D01*
X144360270Y-91611757D01*
X144429958Y-91486670D01*
X144514119Y-91369575D01*
X144610825Y-91262954D01*
X144718146Y-91169287D01*
X144834154Y-91091054D01*
X144915372Y-91048697D01*
X145070173Y-90987936D01*
X145229038Y-90946924D01*
X145238204Y-90945181D01*
X145294794Y-90937379D01*
X145366791Y-90931637D01*
X145449462Y-90927955D01*
X145538073Y-90926336D01*
X145627892Y-90926783D01*
X145714184Y-90929298D01*
X145792217Y-90933882D01*
X145857257Y-90940539D01*
X145884631Y-90944869D01*
X146036050Y-90981835D01*
X146182528Y-91034551D01*
X146319441Y-91101174D01*
X146400348Y-91150549D01*
X146443090Y-91182434D01*
X146494315Y-91225891D01*
X146549675Y-91276738D01*
X146604821Y-91330791D01*
X146655407Y-91383867D01*
X146697084Y-91431781D01*
X146710832Y-91449288D01*
X146766566Y-91532146D01*
X146816427Y-91623382D01*
X146858733Y-91718653D01*
X146891803Y-91813618D01*
X146913954Y-91903937D01*
X146923507Y-91985267D01*
X146923760Y-91999094D01*
X146926102Y-92030233D01*
X146932670Y-92041880D01*
X146942776Y-92034260D01*
X146955730Y-92007596D01*
X146963399Y-91986172D01*
X146980640Y-91913919D01*
X146990507Y-91826225D01*
X146993101Y-91726546D01*
X146988523Y-91618338D01*
X146976874Y-91505056D01*
X146958254Y-91390155D01*
X146944076Y-91323160D01*
X146932352Y-91269929D01*
X146920111Y-91210385D01*
X146910594Y-91160600D01*
X146896855Y-91102596D01*
X146874696Y-91031172D01*
X146845667Y-90950610D01*
X146811319Y-90865194D01*
X146773202Y-90779209D01*
X146770375Y-90773156D01*
X146747084Y-90723315D01*
X146720347Y-90665867D01*
X146695212Y-90611665D01*
X146690514Y-90601503D01*
X146639945Y-90510091D01*
X146577310Y-90425941D01*
X146523351Y-90369918D01*
X146505449Y-90353093D01*
X146476302Y-90325166D01*
X146439157Y-90289274D01*
X146397268Y-90248554D01*
X146370040Y-90221966D01*
X146299652Y-90155225D01*
X146237512Y-90101468D01*
X146179427Y-90057610D01*
X146121202Y-90020571D01*
X146058644Y-89987267D01*
X146035967Y-89976398D01*
X145993806Y-89957774D01*
X145953565Y-89942976D01*
X145912165Y-89931582D01*
X145866526Y-89923172D01*
X145813569Y-89917323D01*
X145750214Y-89913616D01*
X145673381Y-89911628D01*
X145579992Y-89910939D01*
X145557240Y-89910920D01*
X145460847Y-89911348D01*
X145380014Y-89912947D01*
X145309992Y-89916191D01*
X145246032Y-89921550D01*
X145183385Y-89929498D01*
X145117303Y-89940507D01*
X145043038Y-89955049D01*
X144980247Y-89968314D01*
X144773513Y-90022380D01*
X144578525Y-90092988D01*
X144395333Y-90180109D01*
X144223987Y-90283712D01*
X144064539Y-90403768D01*
X143917039Y-90540248D01*
X143816993Y-90650166D01*
X143699308Y-90802920D01*
X143598736Y-90963683D01*
X143514674Y-91133807D01*
X143446521Y-91314646D01*
X143393675Y-91507552D01*
X143361643Y-91673793D01*
X143354649Y-91731374D01*
X143349336Y-91803044D01*
X143345745Y-91884012D01*
X143343920Y-91969489D01*
X143343905Y-92054685D01*
X143345743Y-92134809D01*
X143349477Y-92205072D01*
X143355151Y-92260685D01*
X143356264Y-92268040D01*
X143368769Y-92336870D01*
X143385154Y-92413987D01*
X143403933Y-92493311D01*
X143423620Y-92568761D01*
X143442726Y-92634254D01*
X143454398Y-92669360D01*
X143501027Y-92781700D01*
X143561461Y-92899193D01*
X143632277Y-93016222D01*
X143710048Y-93127167D01*
X143791350Y-93226412D01*
X143799568Y-93235505D01*
X143866545Y-93308890D01*
X142999932Y-93311705D01*
X142846925Y-93312219D01*
X142712911Y-93312723D01*
X142596567Y-93313250D01*
X142496566Y-93313832D01*
X142411584Y-93314500D01*
X142340295Y-93315286D01*
X142281373Y-93316223D01*
X142233494Y-93317343D01*
X142195331Y-93318677D01*
X142165560Y-93320258D01*
X142142855Y-93322118D01*
X142125890Y-93324287D01*
X142113340Y-93326800D01*
X142103881Y-93329687D01*
X142096185Y-93332981D01*
X142095019Y-93333552D01*
X142063892Y-93354209D01*
X142037205Y-93380216D01*
X142034059Y-93384352D01*
X142028118Y-93393180D01*
X142023296Y-93402725D01*
X142019455Y-93415117D01*
X142016457Y-93432483D01*
X142014163Y-93456954D01*
X142012435Y-93490659D01*
X142011135Y-93535725D01*
X142010124Y-93594282D01*
X142009264Y-93668459D01*
X142008417Y-93760384D01*
X142008230Y-93781880D01*
X142007669Y-93868095D01*
X142007491Y-93949515D01*
X142007676Y-94023499D01*
G37*
X142007676Y-94023499D02*
X142008203Y-94087407D01*
X142009052Y-94138598D01*
X142010201Y-94174432D01*
X142011443Y-94191153D01*
X142028103Y-94239868D01*
X142061617Y-94278049D01*
X142110881Y-94304681D01*
X142144687Y-94314120D01*
X142157697Y-94315842D01*
X142179680Y-94317386D01*
X142211411Y-94318755D01*
X142253661Y-94319952D01*
X142307206Y-94320983D01*
X142372819Y-94321850D01*
X142451273Y-94322559D01*
X142543342Y-94323112D01*
X142649799Y-94323514D01*
X142771419Y-94323770D01*
X142908975Y-94323882D01*
X143063240Y-94323855D01*
X143234988Y-94323694D01*
X143424993Y-94323401D01*
X143634028Y-94322982D01*
X143784320Y-94322634D01*
X144008157Y-94322118D01*
X144212664Y-94321662D01*
X144398831Y-94321208D01*
X144567647Y-94320695D01*
X144720102Y-94320063D01*
X144857187Y-94319254D01*
X144979890Y-94318207D01*
X145089201Y-94316863D01*
X145186110Y-94315162D01*
X145271607Y-94313045D01*
X145346681Y-94310451D01*
X145412322Y-94307321D01*
X145469520Y-94303596D01*
X145519264Y-94299215D01*
X145562544Y-94294120D01*
X145600351Y-94288250D01*
X145633673Y-94281545D01*
X145663500Y-94273947D01*
X145690822Y-94265395D01*
X145716629Y-94255830D01*
X145741910Y-94245192D01*
X145767655Y-94233422D01*
X145794854Y-94220459D01*
X145824496Y-94206244D01*
X145840490Y-94198674D01*
X145887909Y-94177573D01*
X145944639Y-94154066D01*
X146000732Y-94132233D01*
X146018290Y-94125771D01*
X146064840Y-94107754D01*
X146120519Y-94084300D01*
X146181529Y-94057209D01*
X146244077Y-94028282D01*
X146304365Y-93999319D01*
X146358600Y-93972122D01*
X146402985Y-93948491D01*
X146433726Y-93930226D01*
X146440545Y-93925445D01*
X146464008Y-93910584D01*
X146499837Y-93891210D01*
X146541668Y-93870695D01*
X146558000Y-93863218D01*
X146604630Y-93841143D01*
X146651715Y-93816894D01*
X146690792Y-93794876D01*
X146698860Y-93789893D01*
X146754601Y-93752741D01*
X146821054Y-93705713D01*
X146893616Y-93652287D01*
X146967681Y-93595940D01*
X147038648Y-93540150D01*
X147101911Y-93488395D01*
X147132001Y-93462694D01*
X147219959Y-93384471D01*
X147294361Y-93314496D01*
X147358316Y-93249391D01*
X147414932Y-93185777D01*
X147467318Y-93120276D01*
X147518581Y-93049509D01*
X147537310Y-93022168D01*
X147568851Y-92973879D01*
X147589394Y-92937918D01*
X147600680Y-92910780D01*
X147604449Y-92888960D01*
X147604480Y-92886860D01*
X147604480Y-92850864D01*
X147546060Y-92881622D01*
X147456074Y-92927886D01*
X147360713Y-92974924D01*
X147263485Y-93021147D01*
X147167899Y-93064965D01*
X147077463Y-93104788D01*
X146995685Y-93139028D01*
X146926074Y-93166095D01*
X146890811Y-93178495D01*
X146837523Y-93195727D01*
X146789755Y-93210364D01*
X146751406Y-93221271D01*
X146726376Y-93227315D01*
X146719963Y-93228160D01*
X146701354Y-93230547D01*
X146668519Y-93236966D01*
X146626891Y-93246300D01*
X146600511Y-93252696D01*
X146565714Y-93260823D01*
X146532128Y-93267161D01*
X146496151Y-93272032D01*
X146454182Y-93275756D01*
X146402620Y-93278654D01*
X146337862Y-93281049D01*
X146258280Y-93283213D01*
X146178303Y-93285527D01*
X146094469Y-93288568D01*
X146012422Y-93292088D01*
X145937808Y-93295841D01*
X145876272Y-93299578D01*
X145862040Y-93300596D01*
X145780778Y-93305091D01*
X145691280Y-93307327D01*
X145598013Y-93307418D01*
X145505443Y-93305475D01*
X145418038Y-93301612D01*
X145340266Y-93295941D01*
X145276594Y-93288574D01*
X145257062Y-93285360D01*
X145108979Y-93248773D01*
X144968334Y-93195489D01*
X144836453Y-93126859D01*
X144714658Y-93044236D01*
X144604273Y-92948973D01*
X144506622Y-92842421D01*
X144423029Y-92725932D01*
X144354818Y-92600860D01*
X144303313Y-92468556D01*
X144269837Y-92330373D01*
X144261159Y-92268040D01*
X144255640Y-92190198D01*
X144254315Y-92104015D01*
X144256980Y-92016812D01*
X144263431Y-91935908D01*
X144272034Y-91875986D01*
X144306986Y-91742356D01*
X144360270Y-91611757D01*
X144429958Y-91486670D01*
X144514119Y-91369575D01*
X144610825Y-91262954D01*
X144718146Y-91169287D01*
X144834154Y-91091054D01*
X144915372Y-91048697D01*
X145070173Y-90987936D01*
X145229038Y-90946924D01*
X145238204Y-90945181D01*
X145294794Y-90937379D01*
X145366791Y-90931637D01*
X145449462Y-90927955D01*
X145538073Y-90926336D01*
X145627892Y-90926783D01*
X145714184Y-90929298D01*
X145792217Y-90933882D01*
X145857257Y-90940539D01*
X145884631Y-90944869D01*
X146036050Y-90981835D01*
X146182528Y-91034551D01*
X146319441Y-91101174D01*
X146400348Y-91150549D01*
X146443090Y-91182434D01*
X146494315Y-91225891D01*
X146549675Y-91276738D01*
X146604821Y-91330791D01*
X146655407Y-91383867D01*
X146697084Y-91431781D01*
X146710832Y-91449288D01*
X146766566Y-91532146D01*
X146816427Y-91623382D01*
X146858733Y-91718653D01*
X146891803Y-91813618D01*
X146913954Y-91903937D01*
X146923507Y-91985267D01*
X146923760Y-91999094D01*
X146926102Y-92030233D01*
X146932670Y-92041880D01*
X146942776Y-92034260D01*
X146955730Y-92007596D01*
X146963399Y-91986172D01*
X146980640Y-91913919D01*
X146990507Y-91826225D01*
X146993101Y-91726546D01*
X146988523Y-91618338D01*
X146976874Y-91505056D01*
X146958254Y-91390155D01*
X146944076Y-91323160D01*
X146932352Y-91269929D01*
X146920111Y-91210385D01*
X146910594Y-91160600D01*
X146896855Y-91102596D01*
X146874696Y-91031172D01*
X146845667Y-90950610D01*
X146811319Y-90865194D01*
X146773202Y-90779209D01*
X146770375Y-90773156D01*
X146747084Y-90723315D01*
X146720347Y-90665867D01*
X146695212Y-90611665D01*
X146690514Y-90601503D01*
X146639945Y-90510091D01*
X146577310Y-90425941D01*
X146523351Y-90369918D01*
X146505449Y-90353093D01*
X146476302Y-90325166D01*
X146439157Y-90289274D01*
X146397268Y-90248554D01*
X146370040Y-90221966D01*
X146299652Y-90155225D01*
X146237512Y-90101468D01*
X146179427Y-90057610D01*
X146121202Y-90020571D01*
X146058644Y-89987267D01*
X146035967Y-89976398D01*
X145993806Y-89957774D01*
X145953565Y-89942976D01*
X145912165Y-89931582D01*
X145866526Y-89923172D01*
X145813569Y-89917323D01*
X145750214Y-89913616D01*
X145673381Y-89911628D01*
X145579992Y-89910939D01*
X145557240Y-89910920D01*
X145460847Y-89911348D01*
X145380014Y-89912947D01*
X145309992Y-89916191D01*
X145246032Y-89921550D01*
X145183385Y-89929498D01*
X145117303Y-89940507D01*
X145043038Y-89955049D01*
X144980247Y-89968314D01*
X144773513Y-90022380D01*
X144578525Y-90092988D01*
X144395333Y-90180109D01*
X144223987Y-90283712D01*
X144064539Y-90403768D01*
X143917039Y-90540248D01*
X143816993Y-90650166D01*
X143699308Y-90802920D01*
X143598736Y-90963683D01*
X143514674Y-91133807D01*
X143446521Y-91314646D01*
X143393675Y-91507552D01*
X143361643Y-91673793D01*
X143354649Y-91731374D01*
X143349336Y-91803044D01*
X143345745Y-91884012D01*
X143343920Y-91969489D01*
X143343905Y-92054685D01*
X143345743Y-92134809D01*
X143349477Y-92205072D01*
X143355151Y-92260685D01*
X143356264Y-92268040D01*
X143368769Y-92336870D01*
X143385154Y-92413987D01*
X143403933Y-92493311D01*
X143423620Y-92568761D01*
X143442726Y-92634254D01*
X143454398Y-92669360D01*
X143501027Y-92781700D01*
X143561461Y-92899193D01*
X143632277Y-93016222D01*
X143710048Y-93127167D01*
X143791350Y-93226412D01*
X143799568Y-93235505D01*
X143866545Y-93308890D01*
X142999932Y-93311705D01*
X142846925Y-93312219D01*
X142712911Y-93312723D01*
X142596567Y-93313250D01*
X142496566Y-93313832D01*
X142411584Y-93314500D01*
X142340295Y-93315286D01*
X142281373Y-93316223D01*
X142233494Y-93317343D01*
X142195331Y-93318677D01*
X142165560Y-93320258D01*
X142142855Y-93322118D01*
X142125890Y-93324287D01*
X142113340Y-93326800D01*
X142103881Y-93329687D01*
X142096185Y-93332981D01*
X142095019Y-93333552D01*
X142063892Y-93354209D01*
X142037205Y-93380216D01*
X142034059Y-93384352D01*
X142028118Y-93393180D01*
X142023296Y-93402725D01*
X142019455Y-93415117D01*
X142016457Y-93432483D01*
X142014163Y-93456954D01*
X142012435Y-93490659D01*
X142011135Y-93535725D01*
X142010124Y-93594282D01*
X142009264Y-93668459D01*
X142008417Y-93760384D01*
X142008230Y-93781880D01*
X142007669Y-93868095D01*
X142007491Y-93949515D01*
X142007676Y-94023499D01*
G36*
X142007676Y-104955659D02*
G01*
X142008203Y-105019567D01*
X142009052Y-105070758D01*
X142010201Y-105106592D01*
X142011443Y-105123313D01*
X142028103Y-105172028D01*
X142061617Y-105210209D01*
X142110881Y-105236841D01*
X142144687Y-105246280D01*
X142157697Y-105248002D01*
X142179680Y-105249546D01*
X142211411Y-105250915D01*
X142253661Y-105252112D01*
X142307206Y-105253143D01*
X142372819Y-105254010D01*
X142451273Y-105254719D01*
X142543342Y-105255272D01*
X142649799Y-105255674D01*
X142771419Y-105255930D01*
X142908975Y-105256042D01*
X143063240Y-105256015D01*
X143234988Y-105255854D01*
X143424993Y-105255561D01*
X143634028Y-105255142D01*
X143784320Y-105254794D01*
X144008157Y-105254278D01*
X144212664Y-105253822D01*
X144398831Y-105253368D01*
X144567647Y-105252855D01*
X144720102Y-105252223D01*
X144857187Y-105251414D01*
X144979890Y-105250367D01*
X145089201Y-105249023D01*
X145186110Y-105247322D01*
X145271607Y-105245205D01*
X145346681Y-105242611D01*
X145412322Y-105239481D01*
X145469520Y-105235756D01*
X145519264Y-105231375D01*
X145562544Y-105226280D01*
X145600351Y-105220410D01*
X145633673Y-105213705D01*
X145663500Y-105206107D01*
X145690822Y-105197555D01*
X145716629Y-105187990D01*
X145741910Y-105177352D01*
X145767655Y-105165582D01*
X145794854Y-105152619D01*
X145824496Y-105138404D01*
X145840490Y-105130834D01*
X145887909Y-105109733D01*
X145944639Y-105086226D01*
X146000732Y-105064393D01*
X146018290Y-105057931D01*
X146064840Y-105039914D01*
X146120519Y-105016460D01*
X146181529Y-104989369D01*
X146244077Y-104960442D01*
X146304365Y-104931479D01*
X146358600Y-104904282D01*
X146402985Y-104880651D01*
X146433726Y-104862386D01*
X146440545Y-104857605D01*
X146464008Y-104842744D01*
X146499837Y-104823370D01*
X146541668Y-104802855D01*
X146558000Y-104795378D01*
X146604630Y-104773303D01*
X146651715Y-104749054D01*
X146690792Y-104727036D01*
X146698860Y-104722053D01*
X146754601Y-104684901D01*
X146821054Y-104637873D01*
X146893616Y-104584447D01*
X146967681Y-104528100D01*
X147038648Y-104472310D01*
X147101911Y-104420555D01*
X147132001Y-104394854D01*
X147219959Y-104316631D01*
X147294361Y-104246656D01*
X147358316Y-104181551D01*
X147414932Y-104117937D01*
X147467318Y-104052436D01*
X147518581Y-103981669D01*
X147537310Y-103954328D01*
X147568851Y-103906039D01*
X147589394Y-103870078D01*
X147600680Y-103842940D01*
X147604449Y-103821120D01*
X147604480Y-103819020D01*
X147604480Y-103783024D01*
X147546060Y-103813782D01*
X147456074Y-103860046D01*
X147360713Y-103907084D01*
X147263485Y-103953307D01*
X147167899Y-103997125D01*
X147077463Y-104036948D01*
X146995685Y-104071188D01*
X146926074Y-104098255D01*
X146890811Y-104110655D01*
X146837523Y-104127887D01*
X146789755Y-104142524D01*
X146751406Y-104153431D01*
X146726376Y-104159475D01*
X146719963Y-104160320D01*
X146701354Y-104162707D01*
X146668519Y-104169126D01*
X146626891Y-104178460D01*
X146600511Y-104184856D01*
X146565714Y-104192983D01*
X146532128Y-104199321D01*
X146496151Y-104204192D01*
X146454182Y-104207916D01*
X146402620Y-104210814D01*
X146337862Y-104213209D01*
X146258280Y-104215373D01*
X146178303Y-104217687D01*
X146094469Y-104220728D01*
X146012422Y-104224248D01*
X145937808Y-104228001D01*
X145876272Y-104231738D01*
X145862040Y-104232756D01*
X145780778Y-104237251D01*
X145691280Y-104239487D01*
X145598013Y-104239578D01*
X145505443Y-104237635D01*
X145418038Y-104233772D01*
X145340266Y-104228101D01*
X145276594Y-104220734D01*
X145257062Y-104217520D01*
X145108979Y-104180933D01*
X144968334Y-104127649D01*
X144836453Y-104059019D01*
X144714658Y-103976396D01*
X144604273Y-103881133D01*
X144506622Y-103774581D01*
X144423029Y-103658092D01*
X144354818Y-103533020D01*
X144303313Y-103400716D01*
X144269837Y-103262533D01*
X144261159Y-103200200D01*
X144255640Y-103122358D01*
X144254315Y-103036175D01*
X144256980Y-102948972D01*
X144263431Y-102868068D01*
X144272034Y-102808146D01*
X144306986Y-102674516D01*
X144360270Y-102543917D01*
X144429958Y-102418830D01*
X144514119Y-102301735D01*
X144610825Y-102195114D01*
X144718146Y-102101447D01*
X144834154Y-102023214D01*
X144915372Y-101980857D01*
X145070173Y-101920096D01*
X145229038Y-101879084D01*
X145238204Y-101877341D01*
X145294794Y-101869539D01*
X145366791Y-101863797D01*
X145449462Y-101860115D01*
X145538073Y-101858496D01*
X145627892Y-101858943D01*
X145714184Y-101861458D01*
X145792217Y-101866042D01*
X145857257Y-101872699D01*
X145884631Y-101877029D01*
X146036050Y-101913995D01*
X146182528Y-101966711D01*
X146319441Y-102033334D01*
X146400348Y-102082709D01*
X146443090Y-102114594D01*
X146494315Y-102158051D01*
X146549675Y-102208898D01*
X146604821Y-102262951D01*
X146655407Y-102316027D01*
X146697084Y-102363941D01*
X146710832Y-102381448D01*
X146766566Y-102464306D01*
X146816427Y-102555542D01*
X146858733Y-102650813D01*
X146891803Y-102745778D01*
X146913954Y-102836097D01*
X146923507Y-102917427D01*
X146923760Y-102931254D01*
X146926102Y-102962393D01*
X146932670Y-102974040D01*
X146942776Y-102966420D01*
X146955730Y-102939756D01*
X146963399Y-102918332D01*
X146980640Y-102846079D01*
X146990507Y-102758385D01*
X146993101Y-102658706D01*
X146988523Y-102550498D01*
X146976874Y-102437216D01*
X146958254Y-102322315D01*
X146944076Y-102255320D01*
X146932352Y-102202089D01*
X146920111Y-102142545D01*
X146910594Y-102092760D01*
X146896855Y-102034756D01*
X146874696Y-101963332D01*
X146845667Y-101882770D01*
X146811319Y-101797354D01*
X146773202Y-101711369D01*
X146770375Y-101705316D01*
X146747084Y-101655475D01*
X146720347Y-101598027D01*
X146695212Y-101543825D01*
X146690514Y-101533663D01*
X146639945Y-101442251D01*
X146577310Y-101358101D01*
X146523351Y-101302078D01*
X146505449Y-101285253D01*
X146476302Y-101257326D01*
X146439157Y-101221434D01*
X146397268Y-101180714D01*
X146370040Y-101154126D01*
X146299652Y-101087385D01*
X146237512Y-101033628D01*
X146179427Y-100989770D01*
X146121202Y-100952731D01*
X146058644Y-100919427D01*
X146035967Y-100908558D01*
X145993806Y-100889934D01*
X145953565Y-100875136D01*
X145912165Y-100863742D01*
X145866526Y-100855332D01*
X145813569Y-100849483D01*
X145750214Y-100845776D01*
X145673381Y-100843788D01*
X145579992Y-100843099D01*
X145557240Y-100843080D01*
X145460847Y-100843508D01*
X145380014Y-100845107D01*
X145309992Y-100848351D01*
X145246032Y-100853710D01*
X145183385Y-100861658D01*
X145117303Y-100872667D01*
X145043038Y-100887209D01*
X144980247Y-100900474D01*
X144773513Y-100954540D01*
X144578525Y-101025148D01*
X144395333Y-101112269D01*
X144223987Y-101215872D01*
X144064539Y-101335928D01*
X143917039Y-101472408D01*
X143816993Y-101582326D01*
X143699308Y-101735080D01*
X143598736Y-101895843D01*
X143514674Y-102065967D01*
X143446521Y-102246806D01*
X143393675Y-102439712D01*
X143361643Y-102605953D01*
X143354649Y-102663534D01*
X143349336Y-102735204D01*
X143345745Y-102816172D01*
X143343920Y-102901649D01*
X143343905Y-102986845D01*
X143345743Y-103066969D01*
X143349477Y-103137232D01*
X143355151Y-103192845D01*
X143356264Y-103200200D01*
X143368769Y-103269030D01*
X143385154Y-103346147D01*
X143403933Y-103425471D01*
X143423620Y-103500921D01*
X143442726Y-103566414D01*
X143454398Y-103601520D01*
X143501027Y-103713860D01*
X143561461Y-103831353D01*
X143632277Y-103948382D01*
X143710048Y-104059327D01*
X143791350Y-104158572D01*
X143799568Y-104167665D01*
X143866545Y-104241050D01*
X142999932Y-104243865D01*
X142846925Y-104244379D01*
X142712911Y-104244883D01*
X142596567Y-104245410D01*
X142496566Y-104245992D01*
X142411584Y-104246660D01*
X142340295Y-104247446D01*
X142281373Y-104248383D01*
X142233494Y-104249503D01*
X142195331Y-104250837D01*
X142165560Y-104252418D01*
X142142855Y-104254278D01*
X142125890Y-104256447D01*
X142113340Y-104258960D01*
X142103881Y-104261847D01*
X142096185Y-104265141D01*
X142095019Y-104265712D01*
X142063892Y-104286369D01*
X142037205Y-104312376D01*
X142034059Y-104316512D01*
X142028118Y-104325340D01*
X142023296Y-104334885D01*
X142019455Y-104347277D01*
X142016457Y-104364643D01*
X142014163Y-104389114D01*
X142012435Y-104422819D01*
X142011135Y-104467885D01*
X142010124Y-104526442D01*
X142009264Y-104600619D01*
X142008417Y-104692544D01*
X142008230Y-104714040D01*
X142007669Y-104800255D01*
X142007491Y-104881675D01*
X142007676Y-104955659D01*
G37*
X142007676Y-104955659D02*
X142008203Y-105019567D01*
X142009052Y-105070758D01*
X142010201Y-105106592D01*
X142011443Y-105123313D01*
X142028103Y-105172028D01*
X142061617Y-105210209D01*
X142110881Y-105236841D01*
X142144687Y-105246280D01*
X142157697Y-105248002D01*
X142179680Y-105249546D01*
X142211411Y-105250915D01*
X142253661Y-105252112D01*
X142307206Y-105253143D01*
X142372819Y-105254010D01*
X142451273Y-105254719D01*
X142543342Y-105255272D01*
X142649799Y-105255674D01*
X142771419Y-105255930D01*
X142908975Y-105256042D01*
X143063240Y-105256015D01*
X143234988Y-105255854D01*
X143424993Y-105255561D01*
X143634028Y-105255142D01*
X143784320Y-105254794D01*
X144008157Y-105254278D01*
X144212664Y-105253822D01*
X144398831Y-105253368D01*
X144567647Y-105252855D01*
X144720102Y-105252223D01*
X144857187Y-105251414D01*
X144979890Y-105250367D01*
X145089201Y-105249023D01*
X145186110Y-105247322D01*
X145271607Y-105245205D01*
X145346681Y-105242611D01*
X145412322Y-105239481D01*
X145469520Y-105235756D01*
X145519264Y-105231375D01*
X145562544Y-105226280D01*
X145600351Y-105220410D01*
X145633673Y-105213705D01*
X145663500Y-105206107D01*
X145690822Y-105197555D01*
X145716629Y-105187990D01*
X145741910Y-105177352D01*
X145767655Y-105165582D01*
X145794854Y-105152619D01*
X145824496Y-105138404D01*
X145840490Y-105130834D01*
X145887909Y-105109733D01*
X145944639Y-105086226D01*
X146000732Y-105064393D01*
X146018290Y-105057931D01*
X146064840Y-105039914D01*
X146120519Y-105016460D01*
X146181529Y-104989369D01*
X146244077Y-104960442D01*
X146304365Y-104931479D01*
X146358600Y-104904282D01*
X146402985Y-104880651D01*
X146433726Y-104862386D01*
X146440545Y-104857605D01*
X146464008Y-104842744D01*
X146499837Y-104823370D01*
X146541668Y-104802855D01*
X146558000Y-104795378D01*
X146604630Y-104773303D01*
X146651715Y-104749054D01*
X146690792Y-104727036D01*
X146698860Y-104722053D01*
X146754601Y-104684901D01*
X146821054Y-104637873D01*
X146893616Y-104584447D01*
X146967681Y-104528100D01*
X147038648Y-104472310D01*
X147101911Y-104420555D01*
X147132001Y-104394854D01*
X147219959Y-104316631D01*
X147294361Y-104246656D01*
X147358316Y-104181551D01*
X147414932Y-104117937D01*
X147467318Y-104052436D01*
X147518581Y-103981669D01*
X147537310Y-103954328D01*
X147568851Y-103906039D01*
X147589394Y-103870078D01*
X147600680Y-103842940D01*
X147604449Y-103821120D01*
X147604480Y-103819020D01*
X147604480Y-103783024D01*
X147546060Y-103813782D01*
X147456074Y-103860046D01*
X147360713Y-103907084D01*
X147263485Y-103953307D01*
X147167899Y-103997125D01*
X147077463Y-104036948D01*
X146995685Y-104071188D01*
X146926074Y-104098255D01*
X146890811Y-104110655D01*
X146837523Y-104127887D01*
X146789755Y-104142524D01*
X146751406Y-104153431D01*
X146726376Y-104159475D01*
X146719963Y-104160320D01*
X146701354Y-104162707D01*
X146668519Y-104169126D01*
X146626891Y-104178460D01*
X146600511Y-104184856D01*
X146565714Y-104192983D01*
X146532128Y-104199321D01*
X146496151Y-104204192D01*
X146454182Y-104207916D01*
X146402620Y-104210814D01*
X146337862Y-104213209D01*
X146258280Y-104215373D01*
X146178303Y-104217687D01*
X146094469Y-104220728D01*
X146012422Y-104224248D01*
X145937808Y-104228001D01*
X145876272Y-104231738D01*
X145862040Y-104232756D01*
X145780778Y-104237251D01*
X145691280Y-104239487D01*
X145598013Y-104239578D01*
X145505443Y-104237635D01*
X145418038Y-104233772D01*
X145340266Y-104228101D01*
X145276594Y-104220734D01*
X145257062Y-104217520D01*
X145108979Y-104180933D01*
X144968334Y-104127649D01*
X144836453Y-104059019D01*
X144714658Y-103976396D01*
X144604273Y-103881133D01*
X144506622Y-103774581D01*
X144423029Y-103658092D01*
X144354818Y-103533020D01*
X144303313Y-103400716D01*
X144269837Y-103262533D01*
X144261159Y-103200200D01*
X144255640Y-103122358D01*
X144254315Y-103036175D01*
X144256980Y-102948972D01*
X144263431Y-102868068D01*
X144272034Y-102808146D01*
X144306986Y-102674516D01*
X144360270Y-102543917D01*
X144429958Y-102418830D01*
X144514119Y-102301735D01*
X144610825Y-102195114D01*
X144718146Y-102101447D01*
X144834154Y-102023214D01*
X144915372Y-101980857D01*
X145070173Y-101920096D01*
X145229038Y-101879084D01*
X145238204Y-101877341D01*
X145294794Y-101869539D01*
X145366791Y-101863797D01*
X145449462Y-101860115D01*
X145538073Y-101858496D01*
X145627892Y-101858943D01*
X145714184Y-101861458D01*
X145792217Y-101866042D01*
X145857257Y-101872699D01*
X145884631Y-101877029D01*
X146036050Y-101913995D01*
X146182528Y-101966711D01*
X146319441Y-102033334D01*
X146400348Y-102082709D01*
X146443090Y-102114594D01*
X146494315Y-102158051D01*
X146549675Y-102208898D01*
X146604821Y-102262951D01*
X146655407Y-102316027D01*
X146697084Y-102363941D01*
X146710832Y-102381448D01*
X146766566Y-102464306D01*
X146816427Y-102555542D01*
X146858733Y-102650813D01*
X146891803Y-102745778D01*
X146913954Y-102836097D01*
X146923507Y-102917427D01*
X146923760Y-102931254D01*
X146926102Y-102962393D01*
X146932670Y-102974040D01*
X146942776Y-102966420D01*
X146955730Y-102939756D01*
X146963399Y-102918332D01*
X146980640Y-102846079D01*
X146990507Y-102758385D01*
X146993101Y-102658706D01*
X146988523Y-102550498D01*
X146976874Y-102437216D01*
X146958254Y-102322315D01*
X146944076Y-102255320D01*
X146932352Y-102202089D01*
X146920111Y-102142545D01*
X146910594Y-102092760D01*
X146896855Y-102034756D01*
X146874696Y-101963332D01*
X146845667Y-101882770D01*
X146811319Y-101797354D01*
X146773202Y-101711369D01*
X146770375Y-101705316D01*
X146747084Y-101655475D01*
X146720347Y-101598027D01*
X146695212Y-101543825D01*
X146690514Y-101533663D01*
X146639945Y-101442251D01*
X146577310Y-101358101D01*
X146523351Y-101302078D01*
X146505449Y-101285253D01*
X146476302Y-101257326D01*
X146439157Y-101221434D01*
X146397268Y-101180714D01*
X146370040Y-101154126D01*
X146299652Y-101087385D01*
X146237512Y-101033628D01*
X146179427Y-100989770D01*
X146121202Y-100952731D01*
X146058644Y-100919427D01*
X146035967Y-100908558D01*
X145993806Y-100889934D01*
X145953565Y-100875136D01*
X145912165Y-100863742D01*
X145866526Y-100855332D01*
X145813569Y-100849483D01*
X145750214Y-100845776D01*
X145673381Y-100843788D01*
X145579992Y-100843099D01*
X145557240Y-100843080D01*
X145460847Y-100843508D01*
X145380014Y-100845107D01*
X145309992Y-100848351D01*
X145246032Y-100853710D01*
X145183385Y-100861658D01*
X145117303Y-100872667D01*
X145043038Y-100887209D01*
X144980247Y-100900474D01*
X144773513Y-100954540D01*
X144578525Y-101025148D01*
X144395333Y-101112269D01*
X144223987Y-101215872D01*
X144064539Y-101335928D01*
X143917039Y-101472408D01*
X143816993Y-101582326D01*
X143699308Y-101735080D01*
X143598736Y-101895843D01*
X143514674Y-102065967D01*
X143446521Y-102246806D01*
X143393675Y-102439712D01*
X143361643Y-102605953D01*
X143354649Y-102663534D01*
X143349336Y-102735204D01*
X143345745Y-102816172D01*
X143343920Y-102901649D01*
X143343905Y-102986845D01*
X143345743Y-103066969D01*
X143349477Y-103137232D01*
X143355151Y-103192845D01*
X143356264Y-103200200D01*
X143368769Y-103269030D01*
X143385154Y-103346147D01*
X143403933Y-103425471D01*
X143423620Y-103500921D01*
X143442726Y-103566414D01*
X143454398Y-103601520D01*
X143501027Y-103713860D01*
X143561461Y-103831353D01*
X143632277Y-103948382D01*
X143710048Y-104059327D01*
X143791350Y-104158572D01*
X143799568Y-104167665D01*
X143866545Y-104241050D01*
X142999932Y-104243865D01*
X142846925Y-104244379D01*
X142712911Y-104244883D01*
X142596567Y-104245410D01*
X142496566Y-104245992D01*
X142411584Y-104246660D01*
X142340295Y-104247446D01*
X142281373Y-104248383D01*
X142233494Y-104249503D01*
X142195331Y-104250837D01*
X142165560Y-104252418D01*
X142142855Y-104254278D01*
X142125890Y-104256447D01*
X142113340Y-104258960D01*
X142103881Y-104261847D01*
X142096185Y-104265141D01*
X142095019Y-104265712D01*
X142063892Y-104286369D01*
X142037205Y-104312376D01*
X142034059Y-104316512D01*
X142028118Y-104325340D01*
X142023296Y-104334885D01*
X142019455Y-104347277D01*
X142016457Y-104364643D01*
X142014163Y-104389114D01*
X142012435Y-104422819D01*
X142011135Y-104467885D01*
X142010124Y-104526442D01*
X142009264Y-104600619D01*
X142008417Y-104692544D01*
X142008230Y-104714040D01*
X142007669Y-104800255D01*
X142007491Y-104881675D01*
X142007676Y-104955659D01*
G36*
X142562890Y-114116345D02*
G01*
X142584313Y-114133615D01*
X142615671Y-114156463D01*
X142642749Y-114175060D01*
X142692729Y-114209359D01*
X142748574Y-114248866D01*
X142800374Y-114286540D01*
X142814118Y-114296789D01*
X142845225Y-114319291D01*
X142890044Y-114350527D01*
X142945195Y-114388242D01*
X143007300Y-114430180D01*
X143072979Y-114474087D01*
X143138852Y-114517707D01*
X143201539Y-114558786D01*
X143257662Y-114595067D01*
X143303840Y-114624296D01*
X143318138Y-114633123D01*
X143354877Y-114655574D01*
X143429898Y-114583587D01*
X143571289Y-114461748D01*
X143723568Y-114357004D01*
X143886329Y-114269557D01*
X144059165Y-114199610D01*
X144241670Y-114147365D01*
X144348200Y-114125871D01*
X144424983Y-114115357D01*
X144517090Y-114107211D01*
X144619650Y-114101525D01*
X144727795Y-114098395D01*
X144836655Y-114097912D01*
X144941361Y-114100170D01*
X145037043Y-114105264D01*
X145103292Y-114111381D01*
X145291709Y-114141601D01*
X145468633Y-114187662D01*
X145636022Y-114250178D01*
X145789521Y-114326219D01*
X145941946Y-114422710D01*
X146082754Y-114534839D01*
X146210823Y-114661019D01*
X146325033Y-114799661D01*
X146424261Y-114949180D01*
X146507389Y-115107987D01*
X146573293Y-115274497D01*
X146620855Y-115447121D01*
X146635628Y-115524280D01*
X146643786Y-115589045D01*
X146649726Y-115668516D01*
X146653447Y-115757925D01*
X146654946Y-115852502D01*
X146654222Y-115947479D01*
X146651273Y-116038087D01*
X146646098Y-116119557D01*
X146638695Y-116187120D01*
X146635863Y-116204975D01*
X146607360Y-116329978D01*
X146565128Y-116461246D01*
X146511317Y-116592369D01*
X146492666Y-116631892D01*
X146455155Y-116705917D01*
X146418913Y-116770087D01*
X146381023Y-116828320D01*
X146338566Y-116884530D01*
X146288624Y-116942634D01*
X146228280Y-117006546D01*
X146169533Y-117065499D01*
X146110768Y-117123967D01*
X146065462Y-117170742D01*
X146032343Y-117208128D01*
X146010143Y-117238428D01*
X145997589Y-117263949D01*
X145993412Y-117286994D01*
X145996341Y-117309867D01*
X146005106Y-117334875D01*
X146012197Y-117350904D01*
X146031776Y-117385534D01*
X146059890Y-117425723D01*
X146090508Y-117462862D01*
X146090989Y-117463387D01*
X146125053Y-117502675D01*
X146160464Y-117546781D01*
X146187477Y-117583262D01*
X146219203Y-117622112D01*
X146262406Y-117665974D01*
X146311821Y-117710282D01*
X146362188Y-117750472D01*
X146408243Y-117781977D01*
X146431000Y-117794518D01*
X146473797Y-117809534D01*
X146530988Y-117821708D01*
X146596754Y-117830261D01*
X146665274Y-117834417D01*
X146724729Y-117833743D01*
X146787275Y-117827135D01*
X146840565Y-117812921D01*
X146889191Y-117788699D01*
X146937745Y-117752067D01*
X146990820Y-117700623D01*
X147002099Y-117688649D01*
X147037203Y-117648968D01*
X147069552Y-117608854D01*
X147094901Y-117573761D01*
X147106478Y-117554581D01*
X147122672Y-117524978D01*
X147146160Y-117484409D01*
X147173322Y-117439051D01*
X147191834Y-117408960D01*
X147221874Y-117358649D01*
X147255836Y-117298500D01*
X147288980Y-117237054D01*
X147310276Y-117195600D01*
X147383658Y-117031094D01*
X147447662Y-116851859D01*
X147501584Y-116661540D01*
X147544719Y-116463783D01*
X147576364Y-116262234D01*
X147595815Y-116060538D01*
X147602366Y-115862341D01*
X147597751Y-115707160D01*
X147581433Y-115526907D01*
X147554620Y-115345495D01*
X147518211Y-115166308D01*
X147473099Y-114992728D01*
X147420182Y-114828137D01*
X147360354Y-114675919D01*
X147294512Y-114539457D01*
X147282993Y-114518440D01*
X147161912Y-114319438D01*
X147027194Y-114130743D01*
X146880563Y-113954327D01*
X146723747Y-113792161D01*
X146558470Y-113646219D01*
X146441160Y-113556554D01*
X146357002Y-113499739D01*
X146261256Y-113441146D01*
X146158667Y-113383273D01*
X146053979Y-113328617D01*
X145951935Y-113279677D01*
X145857281Y-113238949D01*
X145790920Y-113214246D01*
X145719531Y-113191842D01*
X145634318Y-113167975D01*
X145541553Y-113144200D01*
X145447505Y-113122071D01*
X145358447Y-113103143D01*
X145295258Y-113091392D01*
X145158062Y-113072501D01*
X145007621Y-113059701D01*
X144850109Y-113053096D01*
X144691698Y-113052791D01*
X144538561Y-113058888D01*
X144396871Y-113071492D01*
X144363440Y-113075742D01*
X144268031Y-113090889D01*
X144161485Y-113111472D01*
X144050694Y-113135922D01*
X143942550Y-113162666D01*
X143843944Y-113190135D01*
X143795958Y-113205086D01*
X143677019Y-113249360D01*
X143549419Y-113306547D01*
X143417671Y-113374090D01*
X143286289Y-113449431D01*
X143159785Y-113530014D01*
X143042674Y-113613281D01*
X142961360Y-113677936D01*
X142914440Y-113718925D01*
X142863399Y-113766142D01*
X142810308Y-113817399D01*
X142757238Y-113870508D01*
X142706258Y-113923281D01*
X142659439Y-113973529D01*
X142618852Y-114019066D01*
X142586566Y-114057703D01*
X142564653Y-114087252D01*
X142555183Y-114105525D01*
X142554960Y-114107392D01*
X142562890Y-114116345D01*
G37*
X142562890Y-114116345D02*
X142584313Y-114133615D01*
X142615671Y-114156463D01*
X142642749Y-114175060D01*
X142692729Y-114209359D01*
X142748574Y-114248866D01*
X142800374Y-114286540D01*
X142814118Y-114296789D01*
X142845225Y-114319291D01*
X142890044Y-114350527D01*
X142945195Y-114388242D01*
X143007300Y-114430180D01*
X143072979Y-114474087D01*
X143138852Y-114517707D01*
X143201539Y-114558786D01*
X143257662Y-114595067D01*
X143303840Y-114624296D01*
X143318138Y-114633123D01*
X143354877Y-114655574D01*
X143429898Y-114583587D01*
X143571289Y-114461748D01*
X143723568Y-114357004D01*
X143886329Y-114269557D01*
X144059165Y-114199610D01*
X144241670Y-114147365D01*
X144348200Y-114125871D01*
X144424983Y-114115357D01*
X144517090Y-114107211D01*
X144619650Y-114101525D01*
X144727795Y-114098395D01*
X144836655Y-114097912D01*
X144941361Y-114100170D01*
X145037043Y-114105264D01*
X145103292Y-114111381D01*
X145291709Y-114141601D01*
X145468633Y-114187662D01*
X145636022Y-114250178D01*
X145789521Y-114326219D01*
X145941946Y-114422710D01*
X146082754Y-114534839D01*
X146210823Y-114661019D01*
X146325033Y-114799661D01*
X146424261Y-114949180D01*
X146507389Y-115107987D01*
X146573293Y-115274497D01*
X146620855Y-115447121D01*
X146635628Y-115524280D01*
X146643786Y-115589045D01*
X146649726Y-115668516D01*
X146653447Y-115757925D01*
X146654946Y-115852502D01*
X146654222Y-115947479D01*
X146651273Y-116038087D01*
X146646098Y-116119557D01*
X146638695Y-116187120D01*
X146635863Y-116204975D01*
X146607360Y-116329978D01*
X146565128Y-116461246D01*
X146511317Y-116592369D01*
X146492666Y-116631892D01*
X146455155Y-116705917D01*
X146418913Y-116770087D01*
X146381023Y-116828320D01*
X146338566Y-116884530D01*
X146288624Y-116942634D01*
X146228280Y-117006546D01*
X146169533Y-117065499D01*
X146110768Y-117123967D01*
X146065462Y-117170742D01*
X146032343Y-117208128D01*
X146010143Y-117238428D01*
X145997589Y-117263949D01*
X145993412Y-117286994D01*
X145996341Y-117309867D01*
X146005106Y-117334875D01*
X146012197Y-117350904D01*
X146031776Y-117385534D01*
X146059890Y-117425723D01*
X146090508Y-117462862D01*
X146090989Y-117463387D01*
X146125053Y-117502675D01*
X146160464Y-117546781D01*
X146187477Y-117583262D01*
X146219203Y-117622112D01*
X146262406Y-117665974D01*
X146311821Y-117710282D01*
X146362188Y-117750472D01*
X146408243Y-117781977D01*
X146431000Y-117794518D01*
X146473797Y-117809534D01*
X146530988Y-117821708D01*
X146596754Y-117830261D01*
X146665274Y-117834417D01*
X146724729Y-117833743D01*
X146787275Y-117827135D01*
X146840565Y-117812921D01*
X146889191Y-117788699D01*
X146937745Y-117752067D01*
X146990820Y-117700623D01*
X147002099Y-117688649D01*
X147037203Y-117648968D01*
X147069552Y-117608854D01*
X147094901Y-117573761D01*
X147106478Y-117554581D01*
X147122672Y-117524978D01*
X147146160Y-117484409D01*
X147173322Y-117439051D01*
X147191834Y-117408960D01*
X147221874Y-117358649D01*
X147255836Y-117298500D01*
X147288980Y-117237054D01*
X147310276Y-117195600D01*
X147383658Y-117031094D01*
X147447662Y-116851859D01*
X147501584Y-116661540D01*
X147544719Y-116463783D01*
X147576364Y-116262234D01*
X147595815Y-116060538D01*
X147602366Y-115862341D01*
X147597751Y-115707160D01*
X147581433Y-115526907D01*
X147554620Y-115345495D01*
X147518211Y-115166308D01*
X147473099Y-114992728D01*
X147420182Y-114828137D01*
X147360354Y-114675919D01*
X147294512Y-114539457D01*
X147282993Y-114518440D01*
X147161912Y-114319438D01*
X147027194Y-114130743D01*
X146880563Y-113954327D01*
X146723747Y-113792161D01*
X146558470Y-113646219D01*
X146441160Y-113556554D01*
X146357002Y-113499739D01*
X146261256Y-113441146D01*
X146158667Y-113383273D01*
X146053979Y-113328617D01*
X145951935Y-113279677D01*
X145857281Y-113238949D01*
X145790920Y-113214246D01*
X145719531Y-113191842D01*
X145634318Y-113167975D01*
X145541553Y-113144200D01*
X145447505Y-113122071D01*
X145358447Y-113103143D01*
X145295258Y-113091392D01*
X145158062Y-113072501D01*
X145007621Y-113059701D01*
X144850109Y-113053096D01*
X144691698Y-113052791D01*
X144538561Y-113058888D01*
X144396871Y-113071492D01*
X144363440Y-113075742D01*
X144268031Y-113090889D01*
X144161485Y-113111472D01*
X144050694Y-113135922D01*
X143942550Y-113162666D01*
X143843944Y-113190135D01*
X143795958Y-113205086D01*
X143677019Y-113249360D01*
X143549419Y-113306547D01*
X143417671Y-113374090D01*
X143286289Y-113449431D01*
X143159785Y-113530014D01*
X143042674Y-113613281D01*
X142961360Y-113677936D01*
X142914440Y-113718925D01*
X142863399Y-113766142D01*
X142810308Y-113817399D01*
X142757238Y-113870508D01*
X142706258Y-113923281D01*
X142659439Y-113973529D01*
X142618852Y-114019066D01*
X142586566Y-114057703D01*
X142564653Y-114087252D01*
X142555183Y-114105525D01*
X142554960Y-114107392D01*
X142562890Y-114116345D01*
G36*
X142178711Y-99846678D02*
G01*
X142206978Y-99893400D01*
X142249364Y-99930978D01*
X142283644Y-99954080D01*
X144885642Y-99954042D01*
X145157252Y-99954036D01*
X145409285Y-99954023D01*
X145642483Y-99953998D01*
X145857588Y-99953955D01*
X146055343Y-99953888D01*
X146236490Y-99953791D01*
X146401772Y-99953659D01*
X146551931Y-99953485D01*
X146687709Y-99953265D01*
X146809850Y-99952993D01*
X146919095Y-99952662D01*
X147016188Y-99952268D01*
X147101870Y-99951804D01*
X147176883Y-99951264D01*
X147241971Y-99950644D01*
X147297876Y-99949937D01*
X147345340Y-99949138D01*
X147385106Y-99948241D01*
X147417916Y-99947240D01*
X147444513Y-99946129D01*
X147465639Y-99944904D01*
X147482036Y-99943557D01*
X147494447Y-99942084D01*
X147503615Y-99940479D01*
X147510282Y-99938736D01*
X147515190Y-99936849D01*
X147519082Y-99934813D01*
X147520752Y-99933814D01*
X147560354Y-99898606D01*
X147585393Y-99852669D01*
X147594919Y-99800364D01*
X147587983Y-99746046D01*
X147570577Y-99705160D01*
X147560228Y-99687801D01*
X147540493Y-99655211D01*
X147512639Y-99609465D01*
X147477934Y-99552636D01*
X147437644Y-99486797D01*
X147393035Y-99414021D01*
X147345376Y-99336384D01*
X147325378Y-99303840D01*
X147271795Y-99216651D01*
X147211603Y-99118681D01*
X147146020Y-99011915D01*
X147076265Y-98898336D01*
X147003556Y-98779931D01*
X146929111Y-98658683D01*
X146854148Y-98536578D01*
X146779886Y-98415599D01*
X146707543Y-98297732D01*
X146638337Y-98184960D01*
X146573486Y-98079270D01*
X146514209Y-97982645D01*
X146461724Y-97897070D01*
X146417250Y-97824530D01*
X146382003Y-97767009D01*
X146377416Y-97759520D01*
X146344538Y-97705912D01*
X146313542Y-97655524D01*
X146286714Y-97612060D01*
X146266338Y-97579222D01*
X146256103Y-97562909D01*
X146249087Y-97551772D01*
X146239088Y-97535719D01*
X146225455Y-97513686D01*
X146207534Y-97484606D01*
X146184672Y-97447416D01*
X146156217Y-97401051D01*
X146121515Y-97344446D01*
X146079914Y-97276536D01*
X146030760Y-97196257D01*
X145973402Y-97102542D01*
X145907185Y-96994329D01*
X145831457Y-96870551D01*
X145775500Y-96779080D01*
X145692723Y-96643827D01*
X145611616Y-96511432D01*
X145532879Y-96383030D01*
X145457213Y-96259755D01*
X145385315Y-96142742D01*
X145317885Y-96033126D01*
X145255623Y-95932042D01*
X145199229Y-95840625D01*
X145149401Y-95760010D01*
X145106838Y-95691331D01*
X145072241Y-95635723D01*
X145046309Y-95594321D01*
X145029741Y-95568261D01*
X145023840Y-95559409D01*
X144984087Y-95520532D01*
X144934373Y-95498989D01*
X144897839Y-95495006D01*
X144897839Y-96074810D01*
X144941254Y-96088173D01*
X144949820Y-96092949D01*
X144958417Y-96098180D01*
X144966112Y-96103465D01*
X144973956Y-96110388D01*
X144983001Y-96120534D01*
X144994297Y-96135485D01*
X145008897Y-96156827D01*
X145027852Y-96186141D01*
X145052212Y-96225013D01*
X145083031Y-96275026D01*
X145121358Y-96337763D01*
X145168246Y-96414809D01*
X145219841Y-96499680D01*
X145272221Y-96585624D01*
X145329726Y-96679612D01*
X145389326Y-96776715D01*
X145447991Y-96872003D01*
X145502690Y-96960548D01*
X145550392Y-97037422D01*
X145557179Y-97048320D01*
X145588310Y-97098431D01*
X145628784Y-97163834D01*
X145677343Y-97242482D01*
X145732729Y-97332333D01*
X145793685Y-97431341D01*
X145858951Y-97537462D01*
X145927270Y-97648652D01*
X145997384Y-97762866D01*
X146068034Y-97878059D01*
X146126137Y-97972880D01*
X146192804Y-98081701D01*
X146257374Y-98187058D01*
X146318915Y-98287432D01*
X146376494Y-98381304D01*
X146429180Y-98467156D01*
X146476039Y-98543469D01*
X146516140Y-98608724D01*
X146548550Y-98661403D01*
X146572337Y-98699987D01*
X146586568Y-98722956D01*
X146587670Y-98724720D01*
X146609915Y-98760955D01*
X146628178Y-98791997D01*
X146639544Y-98812837D01*
X146641458Y-98817065D01*
X146648700Y-98830972D01*
X146664684Y-98858746D01*
X146687412Y-98897006D01*
X146714886Y-98942369D01*
X146731507Y-98969465D01*
X146804062Y-99087483D01*
X146866324Y-99189385D01*
X146918894Y-99276205D01*
X146962371Y-99348980D01*
X146997356Y-99408747D01*
X147024448Y-99456542D01*
X147044248Y-99493402D01*
X147057356Y-99520362D01*
X147064371Y-99538459D01*
X147066000Y-99547198D01*
X147057669Y-99576937D01*
X147039345Y-99602043D01*
X147010943Y-99623349D01*
X146979227Y-99637931D01*
X146978347Y-99638180D01*
X146964298Y-99639258D01*
X146931156Y-99640221D01*
X146880086Y-99641074D01*
X146812255Y-99641818D01*
X146728828Y-99642457D01*
X146630972Y-99642993D01*
X146519851Y-99643430D01*
X146396633Y-99643771D01*
X146262482Y-99644018D01*
X146118565Y-99644174D01*
X145966047Y-99644243D01*
X145806095Y-99644227D01*
X145639875Y-99644129D01*
X145468551Y-99643953D01*
X145293291Y-99643701D01*
X145115259Y-99643376D01*
X144935623Y-99642981D01*
X144755547Y-99642519D01*
X144576197Y-99641993D01*
X144398740Y-99641406D01*
X144224341Y-99640761D01*
X144054167Y-99640060D01*
X143889382Y-99639308D01*
X143731154Y-99638506D01*
X143580647Y-99637658D01*
X143439028Y-99636766D01*
X143307462Y-99635834D01*
X143187116Y-99634865D01*
X143079155Y-99633861D01*
X142984745Y-99632825D01*
X142905052Y-99631761D01*
X142841243Y-99630671D01*
X142794481Y-99629558D01*
X142765935Y-99628426D01*
X142756978Y-99627501D01*
X142726715Y-99606167D01*
X142710803Y-99571068D01*
X142709532Y-99525277D01*
X142714387Y-99504047D01*
X142725549Y-99476068D01*
X142744209Y-99439032D01*
X142771559Y-99390635D01*
X142808791Y-99328572D01*
X142824073Y-99303687D01*
X142850536Y-99260734D01*
X142886173Y-99202806D01*
X142929542Y-99132252D01*
X142979200Y-99051421D01*
X143033704Y-98962664D01*
X143091610Y-98868329D01*
X143151476Y-98770767D01*
X143211858Y-98672326D01*
X143238917Y-98628200D01*
X143301231Y-98526581D01*
X143365420Y-98421917D01*
X143429770Y-98317005D01*
X143492564Y-98214641D01*
X143552087Y-98117622D01*
X143606623Y-98028745D01*
X143654457Y-97950805D01*
X143693873Y-97886600D01*
X143703281Y-97871280D01*
X143746663Y-97800628D01*
X143798171Y-97716725D01*
X143855307Y-97623641D01*
X143915573Y-97525446D01*
X143976470Y-97426210D01*
X144035501Y-97330004D01*
X144080828Y-97256123D01*
X144133800Y-97169993D01*
X144188486Y-97081472D01*
X144242841Y-96993844D01*
X144294817Y-96910395D01*
X144342369Y-96834411D01*
X144383449Y-96769178D01*
X144416011Y-96717981D01*
X144416228Y-96717643D01*
X144458378Y-96651474D01*
X144507277Y-96574000D01*
X144559128Y-96491284D01*
X144610130Y-96409389D01*
X144656487Y-96334378D01*
X144662600Y-96324428D01*
X144699948Y-96264467D01*
X144735244Y-96209433D01*
X144766685Y-96162012D01*
X144792467Y-96124892D01*
X144810783Y-96100758D01*
X144817856Y-96093288D01*
X144854430Y-96076521D01*
X144897839Y-96074810D01*
X144897839Y-95495006D01*
X144887147Y-95493840D01*
X144830248Y-95499672D01*
X144786019Y-95518496D01*
X144750045Y-95552299D01*
X144746169Y-95557329D01*
X144737999Y-95569320D01*
X144722792Y-95592914D01*
X144700292Y-95628524D01*
X144670244Y-95676565D01*
X144632393Y-95737451D01*
X144586482Y-95811597D01*
X144532258Y-95899418D01*
X144469463Y-96001327D01*
X144397844Y-96117740D01*
X144317144Y-96249071D01*
X144227107Y-96395735D01*
X144127479Y-96558145D01*
X144018004Y-96736717D01*
X143898427Y-96931865D01*
X143786646Y-97114360D01*
X143744006Y-97183931D01*
X143699791Y-97255979D01*
X143656698Y-97326115D01*
X143617423Y-97389952D01*
X143584664Y-97443102D01*
X143571210Y-97464880D01*
X143539929Y-97515553D01*
X143499121Y-97581813D01*
X143449861Y-97661907D01*
X143393225Y-97754086D01*
X143330287Y-97856599D01*
X143262123Y-97967697D01*
X143189807Y-98085628D01*
X143114413Y-98208644D01*
X143101684Y-98229420D01*
X143064978Y-98289301D01*
X143022703Y-98358222D01*
X142979932Y-98427912D01*
X142941741Y-98490099D01*
X142939602Y-98493580D01*
X142845632Y-98646538D01*
X142755759Y-98792872D01*
X142670636Y-98931519D01*
X142590917Y-99061412D01*
X142517255Y-99181487D01*
X142450302Y-99290679D01*
X142390712Y-99387922D01*
X142339138Y-99472151D01*
X142296232Y-99542302D01*
X142262648Y-99597310D01*
X142239040Y-99636109D01*
X142238475Y-99637040D01*
X142208632Y-99687382D01*
X142188456Y-99724764D01*
X142176244Y-99753064D01*
X142170292Y-99776163D01*
X142168880Y-99795557D01*
X142178711Y-99846678D01*
G37*
X142178711Y-99846678D02*
X142206978Y-99893400D01*
X142249364Y-99930978D01*
X142283644Y-99954080D01*
X144885642Y-99954042D01*
X145157252Y-99954036D01*
X145409285Y-99954023D01*
X145642483Y-99953998D01*
X145857588Y-99953955D01*
X146055343Y-99953888D01*
X146236490Y-99953791D01*
X146401772Y-99953659D01*
X146551931Y-99953485D01*
X146687709Y-99953265D01*
X146809850Y-99952993D01*
X146919095Y-99952662D01*
X147016188Y-99952268D01*
X147101870Y-99951804D01*
X147176883Y-99951264D01*
X147241971Y-99950644D01*
X147297876Y-99949937D01*
X147345340Y-99949138D01*
X147385106Y-99948241D01*
X147417916Y-99947240D01*
X147444513Y-99946129D01*
X147465639Y-99944904D01*
X147482036Y-99943557D01*
X147494447Y-99942084D01*
X147503615Y-99940479D01*
X147510282Y-99938736D01*
X147515190Y-99936849D01*
X147519082Y-99934813D01*
X147520752Y-99933814D01*
X147560354Y-99898606D01*
X147585393Y-99852669D01*
X147594919Y-99800364D01*
X147587983Y-99746046D01*
X147570577Y-99705160D01*
X147560228Y-99687801D01*
X147540493Y-99655211D01*
X147512639Y-99609465D01*
X147477934Y-99552636D01*
X147437644Y-99486797D01*
X147393035Y-99414021D01*
X147345376Y-99336384D01*
X147325378Y-99303840D01*
X147271795Y-99216651D01*
X147211603Y-99118681D01*
X147146020Y-99011915D01*
X147076265Y-98898336D01*
X147003556Y-98779931D01*
X146929111Y-98658683D01*
X146854148Y-98536578D01*
X146779886Y-98415599D01*
X146707543Y-98297732D01*
X146638337Y-98184960D01*
X146573486Y-98079270D01*
X146514209Y-97982645D01*
X146461724Y-97897070D01*
X146417250Y-97824530D01*
X146382003Y-97767009D01*
X146377416Y-97759520D01*
X146344538Y-97705912D01*
X146313542Y-97655524D01*
X146286714Y-97612060D01*
X146266338Y-97579222D01*
X146256103Y-97562909D01*
X146249087Y-97551772D01*
X146239088Y-97535719D01*
X146225455Y-97513686D01*
X146207534Y-97484606D01*
X146184672Y-97447416D01*
X146156217Y-97401051D01*
X146121515Y-97344446D01*
X146079914Y-97276536D01*
X146030760Y-97196257D01*
X145973402Y-97102542D01*
X145907185Y-96994329D01*
X145831457Y-96870551D01*
X145775500Y-96779080D01*
X145692723Y-96643827D01*
X145611616Y-96511432D01*
X145532879Y-96383030D01*
X145457213Y-96259755D01*
X145385315Y-96142742D01*
X145317885Y-96033126D01*
X145255623Y-95932042D01*
X145199229Y-95840625D01*
X145149401Y-95760010D01*
X145106838Y-95691331D01*
X145072241Y-95635723D01*
X145046309Y-95594321D01*
X145029741Y-95568261D01*
X145023840Y-95559409D01*
X144984087Y-95520532D01*
X144934373Y-95498989D01*
X144897839Y-95495006D01*
X144897839Y-96074810D01*
X144941254Y-96088173D01*
X144949820Y-96092949D01*
X144958417Y-96098180D01*
X144966112Y-96103465D01*
X144973956Y-96110388D01*
X144983001Y-96120534D01*
X144994297Y-96135485D01*
X145008897Y-96156827D01*
X145027852Y-96186141D01*
X145052212Y-96225013D01*
X145083031Y-96275026D01*
X145121358Y-96337763D01*
X145168246Y-96414809D01*
X145219841Y-96499680D01*
X145272221Y-96585624D01*
X145329726Y-96679612D01*
X145389326Y-96776715D01*
X145447991Y-96872003D01*
X145502690Y-96960548D01*
X145550392Y-97037422D01*
X145557179Y-97048320D01*
X145588310Y-97098431D01*
X145628784Y-97163834D01*
X145677343Y-97242482D01*
X145732729Y-97332333D01*
X145793685Y-97431341D01*
X145858951Y-97537462D01*
X145927270Y-97648652D01*
X145997384Y-97762866D01*
X146068034Y-97878059D01*
X146126137Y-97972880D01*
X146192804Y-98081701D01*
X146257374Y-98187058D01*
X146318915Y-98287432D01*
X146376494Y-98381304D01*
X146429180Y-98467156D01*
X146476039Y-98543469D01*
X146516140Y-98608724D01*
X146548550Y-98661403D01*
X146572337Y-98699987D01*
X146586568Y-98722956D01*
X146587670Y-98724720D01*
X146609915Y-98760955D01*
X146628178Y-98791997D01*
X146639544Y-98812837D01*
X146641458Y-98817065D01*
X146648700Y-98830972D01*
X146664684Y-98858746D01*
X146687412Y-98897006D01*
X146714886Y-98942369D01*
X146731507Y-98969465D01*
X146804062Y-99087483D01*
X146866324Y-99189385D01*
X146918894Y-99276205D01*
X146962371Y-99348980D01*
X146997356Y-99408747D01*
X147024448Y-99456542D01*
X147044248Y-99493402D01*
X147057356Y-99520362D01*
X147064371Y-99538459D01*
X147066000Y-99547198D01*
X147057669Y-99576937D01*
X147039345Y-99602043D01*
X147010943Y-99623349D01*
X146979227Y-99637931D01*
X146978347Y-99638180D01*
X146964298Y-99639258D01*
X146931156Y-99640221D01*
X146880086Y-99641074D01*
X146812255Y-99641818D01*
X146728828Y-99642457D01*
X146630972Y-99642993D01*
X146519851Y-99643430D01*
X146396633Y-99643771D01*
X146262482Y-99644018D01*
X146118565Y-99644174D01*
X145966047Y-99644243D01*
X145806095Y-99644227D01*
X145639875Y-99644129D01*
X145468551Y-99643953D01*
X145293291Y-99643701D01*
X145115259Y-99643376D01*
X144935623Y-99642981D01*
X144755547Y-99642519D01*
X144576197Y-99641993D01*
X144398740Y-99641406D01*
X144224341Y-99640761D01*
X144054167Y-99640060D01*
X143889382Y-99639308D01*
X143731154Y-99638506D01*
X143580647Y-99637658D01*
X143439028Y-99636766D01*
X143307462Y-99635834D01*
X143187116Y-99634865D01*
X143079155Y-99633861D01*
X142984745Y-99632825D01*
X142905052Y-99631761D01*
X142841243Y-99630671D01*
X142794481Y-99629558D01*
X142765935Y-99628426D01*
X142756978Y-99627501D01*
X142726715Y-99606167D01*
X142710803Y-99571068D01*
X142709532Y-99525277D01*
X142714387Y-99504047D01*
X142725549Y-99476068D01*
X142744209Y-99439032D01*
X142771559Y-99390635D01*
X142808791Y-99328572D01*
X142824073Y-99303687D01*
X142850536Y-99260734D01*
X142886173Y-99202806D01*
X142929542Y-99132252D01*
X142979200Y-99051421D01*
X143033704Y-98962664D01*
X143091610Y-98868329D01*
X143151476Y-98770767D01*
X143211858Y-98672326D01*
X143238917Y-98628200D01*
X143301231Y-98526581D01*
X143365420Y-98421917D01*
X143429770Y-98317005D01*
X143492564Y-98214641D01*
X143552087Y-98117622D01*
X143606623Y-98028745D01*
X143654457Y-97950805D01*
X143693873Y-97886600D01*
X143703281Y-97871280D01*
X143746663Y-97800628D01*
X143798171Y-97716725D01*
X143855307Y-97623641D01*
X143915573Y-97525446D01*
X143976470Y-97426210D01*
X144035501Y-97330004D01*
X144080828Y-97256123D01*
X144133800Y-97169993D01*
X144188486Y-97081472D01*
X144242841Y-96993844D01*
X144294817Y-96910395D01*
X144342369Y-96834411D01*
X144383449Y-96769178D01*
X144416011Y-96717981D01*
X144416228Y-96717643D01*
X144458378Y-96651474D01*
X144507277Y-96574000D01*
X144559128Y-96491284D01*
X144610130Y-96409389D01*
X144656487Y-96334378D01*
X144662600Y-96324428D01*
X144699948Y-96264467D01*
X144735244Y-96209433D01*
X144766685Y-96162012D01*
X144792467Y-96124892D01*
X144810783Y-96100758D01*
X144817856Y-96093288D01*
X144854430Y-96076521D01*
X144897839Y-96074810D01*
X144897839Y-95495006D01*
X144887147Y-95493840D01*
X144830248Y-95499672D01*
X144786019Y-95518496D01*
X144750045Y-95552299D01*
X144746169Y-95557329D01*
X144737999Y-95569320D01*
X144722792Y-95592914D01*
X144700292Y-95628524D01*
X144670244Y-95676565D01*
X144632393Y-95737451D01*
X144586482Y-95811597D01*
X144532258Y-95899418D01*
X144469463Y-96001327D01*
X144397844Y-96117740D01*
X144317144Y-96249071D01*
X144227107Y-96395735D01*
X144127479Y-96558145D01*
X144018004Y-96736717D01*
X143898427Y-96931865D01*
X143786646Y-97114360D01*
X143744006Y-97183931D01*
X143699791Y-97255979D01*
X143656698Y-97326115D01*
X143617423Y-97389952D01*
X143584664Y-97443102D01*
X143571210Y-97464880D01*
X143539929Y-97515553D01*
X143499121Y-97581813D01*
X143449861Y-97661907D01*
X143393225Y-97754086D01*
X143330287Y-97856599D01*
X143262123Y-97967697D01*
X143189807Y-98085628D01*
X143114413Y-98208644D01*
X143101684Y-98229420D01*
X143064978Y-98289301D01*
X143022703Y-98358222D01*
X142979932Y-98427912D01*
X142941741Y-98490099D01*
X142939602Y-98493580D01*
X142845632Y-98646538D01*
X142755759Y-98792872D01*
X142670636Y-98931519D01*
X142590917Y-99061412D01*
X142517255Y-99181487D01*
X142450302Y-99290679D01*
X142390712Y-99387922D01*
X142339138Y-99472151D01*
X142296232Y-99542302D01*
X142262648Y-99597310D01*
X142239040Y-99636109D01*
X142238475Y-99637040D01*
X142208632Y-99687382D01*
X142188456Y-99724764D01*
X142176244Y-99753064D01*
X142170292Y-99776163D01*
X142168880Y-99795557D01*
X142178711Y-99846678D01*
G36*
X144033240Y-106383573D02*
G01*
X144098919Y-106421510D01*
X144171702Y-106467759D01*
X144243559Y-106517077D01*
X144289262Y-106550809D01*
X144321510Y-106574410D01*
X144361099Y-106601893D01*
X144390862Y-106621684D01*
X144443360Y-106657669D01*
X144500009Y-106700485D01*
X144562359Y-106751486D01*
X144631962Y-106812025D01*
X144710368Y-106883452D01*
X144799129Y-106967123D01*
X144899795Y-107064388D01*
X144910763Y-107075096D01*
X144962341Y-107123793D01*
X145022606Y-107178041D01*
X145084009Y-107231175D01*
X145138253Y-107275935D01*
X145257747Y-107371238D01*
X146342213Y-107368519D01*
X146514408Y-107368075D01*
X146667458Y-107367642D01*
X146802537Y-107367198D01*
X146920820Y-107366719D01*
X147023481Y-107366183D01*
X147111696Y-107365566D01*
X147186638Y-107364847D01*
X147249483Y-107364002D01*
X147301406Y-107363009D01*
X147343580Y-107361845D01*
X147377180Y-107360487D01*
X147403382Y-107358913D01*
X147423359Y-107357099D01*
X147438287Y-107355023D01*
X147449340Y-107352662D01*
X147457692Y-107349993D01*
X147464519Y-107346995D01*
X147464980Y-107346767D01*
X147496107Y-107326110D01*
X147522794Y-107300103D01*
X147525940Y-107295967D01*
X147531699Y-107287477D01*
X147536397Y-107278386D01*
X147540150Y-107266649D01*
X147543074Y-107250217D01*
X147545287Y-107227045D01*
X147546904Y-107195087D01*
X147548041Y-107152296D01*
X147548815Y-107096625D01*
X147549343Y-107026028D01*
X147549739Y-106938458D01*
X147549977Y-106873040D01*
X147550171Y-106785057D01*
X147550130Y-106702854D01*
X147549872Y-106628789D01*
X147549414Y-106565220D01*
X147548775Y-106514507D01*
X147547973Y-106479008D01*
X147547025Y-106461082D01*
X147546856Y-106459980D01*
X147533658Y-106432931D01*
X147507864Y-106403233D01*
X147475464Y-106376453D01*
X147442450Y-106358153D01*
X147434265Y-106355404D01*
X147418980Y-106353845D01*
X147384749Y-106352415D01*
X147331457Y-106351114D01*
X147258993Y-106349941D01*
X147167244Y-106348896D01*
X147056096Y-106347977D01*
X146925438Y-106347184D01*
X146775156Y-106346517D01*
X146605138Y-106345975D01*
X146415271Y-106345556D01*
X146205443Y-106345262D01*
X145975540Y-106345090D01*
X145725450Y-106345040D01*
X145679160Y-106345043D01*
X143962120Y-106345254D01*
X144033240Y-106383573D01*
G37*
X144033240Y-106383573D02*
X144098919Y-106421510D01*
X144171702Y-106467759D01*
X144243559Y-106517077D01*
X144289262Y-106550809D01*
X144321510Y-106574410D01*
X144361099Y-106601893D01*
X144390862Y-106621684D01*
X144443360Y-106657669D01*
X144500009Y-106700485D01*
X144562359Y-106751486D01*
X144631962Y-106812025D01*
X144710368Y-106883452D01*
X144799129Y-106967123D01*
X144899795Y-107064388D01*
X144910763Y-107075096D01*
X144962341Y-107123793D01*
X145022606Y-107178041D01*
X145084009Y-107231175D01*
X145138253Y-107275935D01*
X145257747Y-107371238D01*
X146342213Y-107368519D01*
X146514408Y-107368075D01*
X146667458Y-107367642D01*
X146802537Y-107367198D01*
X146920820Y-107366719D01*
X147023481Y-107366183D01*
X147111696Y-107365566D01*
X147186638Y-107364847D01*
X147249483Y-107364002D01*
X147301406Y-107363009D01*
X147343580Y-107361845D01*
X147377180Y-107360487D01*
X147403382Y-107358913D01*
X147423359Y-107357099D01*
X147438287Y-107355023D01*
X147449340Y-107352662D01*
X147457692Y-107349993D01*
X147464519Y-107346995D01*
X147464980Y-107346767D01*
X147496107Y-107326110D01*
X147522794Y-107300103D01*
X147525940Y-107295967D01*
X147531699Y-107287477D01*
X147536397Y-107278386D01*
X147540150Y-107266649D01*
X147543074Y-107250217D01*
X147545287Y-107227045D01*
X147546904Y-107195087D01*
X147548041Y-107152296D01*
X147548815Y-107096625D01*
X147549343Y-107026028D01*
X147549739Y-106938458D01*
X147549977Y-106873040D01*
X147550171Y-106785057D01*
X147550130Y-106702854D01*
X147549872Y-106628789D01*
X147549414Y-106565220D01*
X147548775Y-106514507D01*
X147547973Y-106479008D01*
X147547025Y-106461082D01*
X147546856Y-106459980D01*
X147533658Y-106432931D01*
X147507864Y-106403233D01*
X147475464Y-106376453D01*
X147442450Y-106358153D01*
X147434265Y-106355404D01*
X147418980Y-106353845D01*
X147384749Y-106352415D01*
X147331457Y-106351114D01*
X147258993Y-106349941D01*
X147167244Y-106348896D01*
X147056096Y-106347977D01*
X146925438Y-106347184D01*
X146775156Y-106346517D01*
X146605138Y-106345975D01*
X146415271Y-106345556D01*
X146205443Y-106345262D01*
X145975540Y-106345090D01*
X145725450Y-106345040D01*
X145679160Y-106345043D01*
X143962120Y-106345254D01*
X144033240Y-106383573D01*
G36*
X142016784Y-111555742D02*
G01*
X142017202Y-111632607D01*
X142017878Y-111703679D01*
X142018811Y-111766058D01*
X142019999Y-111816843D01*
X142021441Y-111853133D01*
X142023137Y-111872027D01*
X142023147Y-111872077D01*
X142037863Y-111905695D01*
X142065358Y-111940060D01*
X142099345Y-111968890D01*
X142133535Y-111985908D01*
X142138277Y-111987051D01*
X142151267Y-111987640D01*
X142183714Y-111988214D01*
X142234756Y-111988773D01*
X142303529Y-111989314D01*
X142389172Y-111989834D01*
X142490821Y-111990331D01*
X142607613Y-111990804D01*
X142738687Y-111991250D01*
X142883179Y-111991667D01*
X143040227Y-111992053D01*
X143208968Y-111992405D01*
X143388538Y-111992721D01*
X143578077Y-111993000D01*
X143776720Y-111993238D01*
X143983605Y-111993434D01*
X144197869Y-111993586D01*
X144418651Y-111993692D01*
X144645086Y-111993748D01*
X144785079Y-111993758D01*
X145014529Y-111993732D01*
X145238849Y-111993656D01*
X145457176Y-111993532D01*
X145668648Y-111993363D01*
X145872403Y-111993149D01*
X146067576Y-111992895D01*
X146253307Y-111992601D01*
X146428732Y-111992271D01*
X146592988Y-111991905D01*
X146745212Y-111991507D01*
X146884543Y-111991079D01*
X147010117Y-111990622D01*
X147121071Y-111990139D01*
X147216543Y-111989632D01*
X147295670Y-111989104D01*
X147357590Y-111988556D01*
X147401439Y-111987991D01*
X147426355Y-111987410D01*
X147431882Y-111987051D01*
X147470496Y-111970360D01*
X147506461Y-111939512D01*
X147534310Y-111900471D01*
X147548493Y-111859792D01*
X147549894Y-111839609D01*
X147551016Y-111801729D01*
X147551837Y-111748772D01*
X147552338Y-111683357D01*
X147552498Y-111608107D01*
X147552295Y-111525640D01*
X147551766Y-111445040D01*
X147550865Y-111343923D01*
X147549848Y-111261047D01*
X147548406Y-111194332D01*
X147546227Y-111141699D01*
X147543002Y-111101070D01*
X147538419Y-111070365D01*
X147532169Y-111047506D01*
X147523940Y-111030414D01*
X147513423Y-111017009D01*
X147500307Y-111005214D01*
X147484281Y-110992949D01*
X147484242Y-110992920D01*
X147480313Y-110990191D01*
X147475503Y-110987713D01*
X147468841Y-110985472D01*
X147459358Y-110983451D01*
X147446084Y-110981635D01*
X147428049Y-110980007D01*
X147404282Y-110978552D01*
X147373814Y-110977255D01*
X147335675Y-110976099D01*
X147288895Y-110975069D01*
X147232504Y-110974149D01*
X147165532Y-110973324D01*
X147087008Y-110972577D01*
X146995963Y-110971894D01*
X146891427Y-110971257D01*
X146772430Y-110970652D01*
X146638002Y-110970063D01*
X146487173Y-110969473D01*
X146318973Y-110968868D01*
X146132432Y-110968232D01*
X145926579Y-110967548D01*
X145917920Y-110967520D01*
X144378680Y-110962440D01*
X144429480Y-110938425D01*
X144461395Y-110923586D01*
X144504790Y-110903736D01*
X144552571Y-110882110D01*
X144576800Y-110871235D01*
X144609610Y-110856430D01*
X144657839Y-110834491D01*
X144718461Y-110806805D01*
X144788447Y-110774756D01*
X144864768Y-110739732D01*
X144944397Y-110703118D01*
X144993360Y-110680568D01*
X145089857Y-110636106D01*
X145195777Y-110587317D01*
X145309678Y-110534865D01*
X145430119Y-110479413D01*
X145555658Y-110421625D01*
X145684854Y-110362162D01*
X145816265Y-110301688D01*
X145948449Y-110240867D01*
X146079966Y-110180360D01*
X146209373Y-110120832D01*
X146335229Y-110062945D01*
X146456093Y-110007363D01*
X146570523Y-109954747D01*
X146677077Y-109905763D01*
X146774314Y-109861071D01*
X146860793Y-109821336D01*
X146935072Y-109787221D01*
X146995710Y-109759388D01*
X147041264Y-109738501D01*
X147070294Y-109725223D01*
X147076160Y-109722552D01*
X147181144Y-109674646D01*
X147269046Y-109633908D01*
X147341424Y-109599413D01*
X147399833Y-109570234D01*
X147445829Y-109545445D01*
X147480969Y-109524118D01*
X147506810Y-109505328D01*
X147524906Y-109488148D01*
X147536816Y-109471651D01*
X147544095Y-109454910D01*
X147547376Y-109442019D01*
X147549598Y-109420097D01*
X147551224Y-109381983D01*
X147552283Y-109331211D01*
X147552804Y-109271319D01*
X147552815Y-109205841D01*
X147552344Y-109138312D01*
X147551421Y-109072268D01*
X147550074Y-109011245D01*
X147548331Y-108958778D01*
X147546222Y-108918401D01*
X147543774Y-108893652D01*
X147542905Y-108889545D01*
X147531464Y-108863532D01*
X147511480Y-108838730D01*
X147480780Y-108813605D01*
X147437191Y-108786621D01*
X147378541Y-108756242D01*
X147307180Y-108722969D01*
X147250178Y-108697095D01*
X147180003Y-108664950D01*
X147101859Y-108628935D01*
X147020949Y-108591451D01*
X146942477Y-108554899D01*
X146910940Y-108540142D01*
X146837713Y-108505943D01*
X146751179Y-108465729D01*
X146656527Y-108421900D01*
X146558946Y-108376854D01*
X146463627Y-108332991D01*
X146375757Y-108292710D01*
X146375120Y-108292418D01*
X146290919Y-108253825D01*
X146202450Y-108213121D01*
X146114143Y-108172354D01*
X146030430Y-108133575D01*
X145955743Y-108098833D01*
X145894513Y-108070179D01*
X145887440Y-108066851D01*
X145816811Y-108033749D01*
X145739629Y-107997832D01*
X145662514Y-107962167D01*
X145592093Y-107929819D01*
X145547080Y-107909319D01*
X145502347Y-107888948D01*
X145442398Y-107861483D01*
X145370442Y-107828403D01*
X145289685Y-107791185D01*
X145203336Y-107751309D01*
X145114602Y-107710251D01*
X145028920Y-107670526D01*
X144941247Y-107629911D01*
X144853080Y-107589212D01*
X144767579Y-107549876D01*
X144687901Y-107513351D01*
X144617205Y-107481086D01*
X144558650Y-107454527D01*
X144515840Y-107435321D01*
X144461227Y-107410824D01*
X144409420Y-107387159D01*
X144364986Y-107366440D01*
X144332492Y-107350785D01*
X144322800Y-107345861D01*
X144292648Y-107330853D01*
X144250972Y-107311182D01*
X144204921Y-107290196D01*
X144185640Y-107281639D01*
X144135773Y-107259330D01*
X144076758Y-107232349D01*
X144017730Y-107204895D01*
X143987520Y-107190614D01*
X143934263Y-107165401D01*
X143877467Y-107138767D01*
X143825490Y-107114623D01*
X143799560Y-107102713D01*
X143758395Y-107083643D01*
X143720707Y-107065677D01*
X143693062Y-107051958D01*
X143687800Y-107049190D01*
X143672338Y-107041151D01*
X143640816Y-107025010D01*
X143595312Y-107001822D01*
X143537904Y-106972644D01*
X143470671Y-106938530D01*
X143395691Y-106900538D01*
X143315043Y-106859723D01*
X143276320Y-106840142D01*
X143190924Y-106796708D01*
X143107937Y-106754000D01*
X143029849Y-106713337D01*
X142959153Y-106676037D01*
X142898341Y-106643417D01*
X142849907Y-106616797D01*
X142816342Y-106597493D01*
X142808960Y-106592958D01*
X142759708Y-106563699D01*
X142704596Y-106533837D01*
X142653416Y-106508608D01*
X142639899Y-106502555D01*
X142595717Y-106482690D01*
X142552718Y-106462137D01*
X142518764Y-106444680D01*
X142512899Y-106441409D01*
X142484446Y-106426626D01*
X142461778Y-106417440D01*
X142454638Y-106415962D01*
X142439505Y-106411919D01*
X142411111Y-106401234D01*
X142374592Y-106385893D01*
X142359172Y-106379039D01*
X142317573Y-106360989D01*
X142286676Y-106350453D01*
X142259000Y-106345872D01*
X142227064Y-106345691D01*
X142204760Y-106346917D01*
X142144113Y-106355157D01*
X142097872Y-106372411D01*
X142061309Y-106400850D01*
X142044936Y-106420265D01*
X142021560Y-106451400D01*
X142021560Y-107275941D01*
X142049966Y-107313184D01*
X142056659Y-107321820D01*
X142063624Y-107329784D01*
X142072256Y-107337775D01*
X142083953Y-107346495D01*
X142100108Y-107356643D01*
X142122117Y-107368920D01*
X142151376Y-107384026D01*
X142189280Y-107402662D01*
X142237226Y-107425528D01*
X142296607Y-107453324D01*
X142368820Y-107486751D01*
X142455261Y-107526509D01*
X142557324Y-107573299D01*
X142676406Y-107627820D01*
X142681960Y-107630362D01*
X142838608Y-107702077D01*
X142978413Y-107766092D01*
X143103011Y-107823159D01*
X143214041Y-107874030D01*
X143313137Y-107919456D01*
X143401936Y-107960188D01*
X143482076Y-107996977D01*
X143555192Y-108030575D01*
X143622922Y-108061734D01*
X143686901Y-108091203D01*
X143748767Y-108119735D01*
X143810157Y-108148081D01*
X143870680Y-108176056D01*
X143944808Y-108210278D01*
X144032945Y-108250877D01*
X144130608Y-108295792D01*
X144233318Y-108342968D01*
X144336594Y-108390344D01*
X144435958Y-108435863D01*
X144495520Y-108463112D01*
X144582867Y-108503085D01*
X144670783Y-108543387D01*
X144756049Y-108582536D01*
X144835447Y-108619054D01*
X144905757Y-108651460D01*
X144963763Y-108678274D01*
X145003520Y-108696743D01*
X145044145Y-108715606D01*
X145100522Y-108741653D01*
X145169918Y-108773626D01*
X145249600Y-108810270D01*
X145336837Y-108850329D01*
X145428894Y-108892546D01*
X145523040Y-108935666D01*
X145582640Y-108962934D01*
X145670359Y-109003136D01*
X145752439Y-109040920D01*
X145827023Y-109075420D01*
X145892254Y-109105769D01*
X145946275Y-109131101D01*
X145987229Y-109150549D01*
X146013260Y-109163246D01*
X146022438Y-109168226D01*
X146021752Y-109170740D01*
X146015773Y-109175411D01*
X146003503Y-109182710D01*
X145983943Y-109193106D01*
X145956093Y-109207069D01*
X145918954Y-109225069D01*
X145871527Y-109247575D01*
X145812813Y-109275057D01*
X145741814Y-109307986D01*
X145657529Y-109346830D01*
X145558960Y-109392060D01*
X145445108Y-109444146D01*
X145314974Y-109503557D01*
X145167558Y-109570763D01*
X145130520Y-109587638D01*
X145043336Y-109627408D01*
X144955249Y-109667684D01*
X144869574Y-109706943D01*
X144789626Y-109743664D01*
X144718721Y-109776324D01*
X144660175Y-109803400D01*
X144622520Y-109820926D01*
X144575282Y-109842885D01*
X144513153Y-109871557D01*
X144439755Y-109905283D01*
X144358711Y-109942401D01*
X144273642Y-109981252D01*
X144188173Y-110020175D01*
X144145000Y-110039789D01*
X144060747Y-110078089D01*
X143975022Y-110117160D01*
X143891447Y-110155344D01*
X143813643Y-110190984D01*
X143745234Y-110222421D01*
X143689841Y-110247997D01*
X143667480Y-110258384D01*
X143611327Y-110284442D01*
X143542094Y-110316401D01*
X143465201Y-110351765D01*
X143386074Y-110388044D01*
X143310135Y-110422742D01*
X143291560Y-110431207D01*
X143160330Y-110490985D01*
X143045668Y-110543236D01*
X142945644Y-110588847D01*
X142858328Y-110628702D01*
X142781791Y-110663686D01*
X142714101Y-110694682D01*
X142653330Y-110722576D01*
X142597548Y-110748253D01*
X142544823Y-110772597D01*
X142493227Y-110796492D01*
X142440830Y-110820823D01*
X142392400Y-110843356D01*
X142326821Y-110873763D01*
X142266403Y-110901540D01*
X142213869Y-110925451D01*
X142171946Y-110944264D01*
X142143358Y-110956744D01*
X142131528Y-110961468D01*
X142104988Y-110976529D01*
X142075081Y-111003112D01*
X142047543Y-111034933D01*
X142028112Y-111065713D01*
X142022848Y-111080456D01*
X142021165Y-111099215D01*
X142019749Y-111135391D01*
X142018597Y-111186083D01*
X142017711Y-111248389D01*
X142017087Y-111319410D01*
X142016725Y-111396243D01*
X142016625Y-111475988D01*
X142016784Y-111555742D01*
G37*
X142016784Y-111555742D02*
X142017202Y-111632607D01*
X142017878Y-111703679D01*
X142018811Y-111766058D01*
X142019999Y-111816843D01*
X142021441Y-111853133D01*
X142023137Y-111872027D01*
X142023147Y-111872077D01*
X142037863Y-111905695D01*
X142065358Y-111940060D01*
X142099345Y-111968890D01*
X142133535Y-111985908D01*
X142138277Y-111987051D01*
X142151267Y-111987640D01*
X142183714Y-111988214D01*
X142234756Y-111988773D01*
X142303529Y-111989314D01*
X142389172Y-111989834D01*
X142490821Y-111990331D01*
X142607613Y-111990804D01*
X142738687Y-111991250D01*
X142883179Y-111991667D01*
X143040227Y-111992053D01*
X143208968Y-111992405D01*
X143388538Y-111992721D01*
X143578077Y-111993000D01*
X143776720Y-111993238D01*
X143983605Y-111993434D01*
X144197869Y-111993586D01*
X144418651Y-111993692D01*
X144645086Y-111993748D01*
X144785079Y-111993758D01*
X145014529Y-111993732D01*
X145238849Y-111993656D01*
X145457176Y-111993532D01*
X145668648Y-111993363D01*
X145872403Y-111993149D01*
X146067576Y-111992895D01*
X146253307Y-111992601D01*
X146428732Y-111992271D01*
X146592988Y-111991905D01*
X146745212Y-111991507D01*
X146884543Y-111991079D01*
X147010117Y-111990622D01*
X147121071Y-111990139D01*
X147216543Y-111989632D01*
X147295670Y-111989104D01*
X147357590Y-111988556D01*
X147401439Y-111987991D01*
X147426355Y-111987410D01*
X147431882Y-111987051D01*
X147470496Y-111970360D01*
X147506461Y-111939512D01*
X147534310Y-111900471D01*
X147548493Y-111859792D01*
X147549894Y-111839609D01*
X147551016Y-111801729D01*
X147551837Y-111748772D01*
X147552338Y-111683357D01*
X147552498Y-111608107D01*
X147552295Y-111525640D01*
X147551766Y-111445040D01*
X147550865Y-111343923D01*
X147549848Y-111261047D01*
X147548406Y-111194332D01*
X147546227Y-111141699D01*
X147543002Y-111101070D01*
X147538419Y-111070365D01*
X147532169Y-111047506D01*
X147523940Y-111030414D01*
X147513423Y-111017009D01*
X147500307Y-111005214D01*
X147484281Y-110992949D01*
X147484242Y-110992920D01*
X147480313Y-110990191D01*
X147475503Y-110987713D01*
X147468841Y-110985472D01*
X147459358Y-110983451D01*
X147446084Y-110981635D01*
X147428049Y-110980007D01*
X147404282Y-110978552D01*
X147373814Y-110977255D01*
X147335675Y-110976099D01*
X147288895Y-110975069D01*
X147232504Y-110974149D01*
X147165532Y-110973324D01*
X147087008Y-110972577D01*
X146995963Y-110971894D01*
X146891427Y-110971257D01*
X146772430Y-110970652D01*
X146638002Y-110970063D01*
X146487173Y-110969473D01*
X146318973Y-110968868D01*
X146132432Y-110968232D01*
X145926579Y-110967548D01*
X145917920Y-110967520D01*
X144378680Y-110962440D01*
X144429480Y-110938425D01*
X144461395Y-110923586D01*
X144504790Y-110903736D01*
X144552571Y-110882110D01*
X144576800Y-110871235D01*
X144609610Y-110856430D01*
X144657839Y-110834491D01*
X144718461Y-110806805D01*
X144788447Y-110774756D01*
X144864768Y-110739732D01*
X144944397Y-110703118D01*
X144993360Y-110680568D01*
X145089857Y-110636106D01*
X145195777Y-110587317D01*
X145309678Y-110534865D01*
X145430119Y-110479413D01*
X145555658Y-110421625D01*
X145684854Y-110362162D01*
X145816265Y-110301688D01*
X145948449Y-110240867D01*
X146079966Y-110180360D01*
X146209373Y-110120832D01*
X146335229Y-110062945D01*
X146456093Y-110007363D01*
X146570523Y-109954747D01*
X146677077Y-109905763D01*
X146774314Y-109861071D01*
X146860793Y-109821336D01*
X146935072Y-109787221D01*
X146995710Y-109759388D01*
X147041264Y-109738501D01*
X147070294Y-109725223D01*
X147076160Y-109722552D01*
X147181144Y-109674646D01*
X147269046Y-109633908D01*
X147341424Y-109599413D01*
X147399833Y-109570234D01*
X147445829Y-109545445D01*
X147480969Y-109524118D01*
X147506810Y-109505328D01*
X147524906Y-109488148D01*
X147536816Y-109471651D01*
X147544095Y-109454910D01*
X147547376Y-109442019D01*
X147549598Y-109420097D01*
X147551224Y-109381983D01*
X147552283Y-109331211D01*
X147552804Y-109271319D01*
X147552815Y-109205841D01*
X147552344Y-109138312D01*
X147551421Y-109072268D01*
X147550074Y-109011245D01*
X147548331Y-108958778D01*
X147546222Y-108918401D01*
X147543774Y-108893652D01*
X147542905Y-108889545D01*
X147531464Y-108863532D01*
X147511480Y-108838730D01*
X147480780Y-108813605D01*
X147437191Y-108786621D01*
X147378541Y-108756242D01*
X147307180Y-108722969D01*
X147250178Y-108697095D01*
X147180003Y-108664950D01*
X147101859Y-108628935D01*
X147020949Y-108591451D01*
X146942477Y-108554899D01*
X146910940Y-108540142D01*
X146837713Y-108505943D01*
X146751179Y-108465729D01*
X146656527Y-108421900D01*
X146558946Y-108376854D01*
X146463627Y-108332991D01*
X146375757Y-108292710D01*
X146375120Y-108292418D01*
X146290919Y-108253825D01*
X146202450Y-108213121D01*
X146114143Y-108172354D01*
X146030430Y-108133575D01*
X145955743Y-108098833D01*
X145894513Y-108070179D01*
X145887440Y-108066851D01*
X145816811Y-108033749D01*
X145739629Y-107997832D01*
X145662514Y-107962167D01*
X145592093Y-107929819D01*
X145547080Y-107909319D01*
X145502347Y-107888948D01*
X145442398Y-107861483D01*
X145370442Y-107828403D01*
X145289685Y-107791185D01*
X145203336Y-107751309D01*
X145114602Y-107710251D01*
X145028920Y-107670526D01*
X144941247Y-107629911D01*
X144853080Y-107589212D01*
X144767579Y-107549876D01*
X144687901Y-107513351D01*
X144617205Y-107481086D01*
X144558650Y-107454527D01*
X144515840Y-107435321D01*
X144461227Y-107410824D01*
X144409420Y-107387159D01*
X144364986Y-107366440D01*
X144332492Y-107350785D01*
X144322800Y-107345861D01*
X144292648Y-107330853D01*
X144250972Y-107311182D01*
X144204921Y-107290196D01*
X144185640Y-107281639D01*
X144135773Y-107259330D01*
X144076758Y-107232349D01*
X144017730Y-107204895D01*
X143987520Y-107190614D01*
X143934263Y-107165401D01*
X143877467Y-107138767D01*
X143825490Y-107114623D01*
X143799560Y-107102713D01*
X143758395Y-107083643D01*
X143720707Y-107065677D01*
X143693062Y-107051958D01*
X143687800Y-107049190D01*
X143672338Y-107041151D01*
X143640816Y-107025010D01*
X143595312Y-107001822D01*
X143537904Y-106972644D01*
X143470671Y-106938530D01*
X143395691Y-106900538D01*
X143315043Y-106859723D01*
X143276320Y-106840142D01*
X143190924Y-106796708D01*
X143107937Y-106754000D01*
X143029849Y-106713337D01*
X142959153Y-106676037D01*
X142898341Y-106643417D01*
X142849907Y-106616797D01*
X142816342Y-106597493D01*
X142808960Y-106592958D01*
X142759708Y-106563699D01*
X142704596Y-106533837D01*
X142653416Y-106508608D01*
X142639899Y-106502555D01*
X142595717Y-106482690D01*
X142552718Y-106462137D01*
X142518764Y-106444680D01*
X142512899Y-106441409D01*
X142484446Y-106426626D01*
X142461778Y-106417440D01*
X142454638Y-106415962D01*
X142439505Y-106411919D01*
X142411111Y-106401234D01*
X142374592Y-106385893D01*
X142359172Y-106379039D01*
X142317573Y-106360989D01*
X142286676Y-106350453D01*
X142259000Y-106345872D01*
X142227064Y-106345691D01*
X142204760Y-106346917D01*
X142144113Y-106355157D01*
X142097872Y-106372411D01*
X142061309Y-106400850D01*
X142044936Y-106420265D01*
X142021560Y-106451400D01*
X142021560Y-107275941D01*
X142049966Y-107313184D01*
X142056659Y-107321820D01*
X142063624Y-107329784D01*
X142072256Y-107337775D01*
X142083953Y-107346495D01*
X142100108Y-107356643D01*
X142122117Y-107368920D01*
X142151376Y-107384026D01*
X142189280Y-107402662D01*
X142237226Y-107425528D01*
X142296607Y-107453324D01*
X142368820Y-107486751D01*
X142455261Y-107526509D01*
X142557324Y-107573299D01*
X142676406Y-107627820D01*
X142681960Y-107630362D01*
X142838608Y-107702077D01*
X142978413Y-107766092D01*
X143103011Y-107823159D01*
X143214041Y-107874030D01*
X143313137Y-107919456D01*
X143401936Y-107960188D01*
X143482076Y-107996977D01*
X143555192Y-108030575D01*
X143622922Y-108061734D01*
X143686901Y-108091203D01*
X143748767Y-108119735D01*
X143810157Y-108148081D01*
X143870680Y-108176056D01*
X143944808Y-108210278D01*
X144032945Y-108250877D01*
X144130608Y-108295792D01*
X144233318Y-108342968D01*
X144336594Y-108390344D01*
X144435958Y-108435863D01*
X144495520Y-108463112D01*
X144582867Y-108503085D01*
X144670783Y-108543387D01*
X144756049Y-108582536D01*
X144835447Y-108619054D01*
X144905757Y-108651460D01*
X144963763Y-108678274D01*
X145003520Y-108696743D01*
X145044145Y-108715606D01*
X145100522Y-108741653D01*
X145169918Y-108773626D01*
X145249600Y-108810270D01*
X145336837Y-108850329D01*
X145428894Y-108892546D01*
X145523040Y-108935666D01*
X145582640Y-108962934D01*
X145670359Y-109003136D01*
X145752439Y-109040920D01*
X145827023Y-109075420D01*
X145892254Y-109105769D01*
X145946275Y-109131101D01*
X145987229Y-109150549D01*
X146013260Y-109163246D01*
X146022438Y-109168226D01*
X146021752Y-109170740D01*
X146015773Y-109175411D01*
X146003503Y-109182710D01*
X145983943Y-109193106D01*
X145956093Y-109207069D01*
X145918954Y-109225069D01*
X145871527Y-109247575D01*
X145812813Y-109275057D01*
X145741814Y-109307986D01*
X145657529Y-109346830D01*
X145558960Y-109392060D01*
X145445108Y-109444146D01*
X145314974Y-109503557D01*
X145167558Y-109570763D01*
X145130520Y-109587638D01*
X145043336Y-109627408D01*
X144955249Y-109667684D01*
X144869574Y-109706943D01*
X144789626Y-109743664D01*
X144718721Y-109776324D01*
X144660175Y-109803400D01*
X144622520Y-109820926D01*
X144575282Y-109842885D01*
X144513153Y-109871557D01*
X144439755Y-109905283D01*
X144358711Y-109942401D01*
X144273642Y-109981252D01*
X144188173Y-110020175D01*
X144145000Y-110039789D01*
X144060747Y-110078089D01*
X143975022Y-110117160D01*
X143891447Y-110155344D01*
X143813643Y-110190984D01*
X143745234Y-110222421D01*
X143689841Y-110247997D01*
X143667480Y-110258384D01*
X143611327Y-110284442D01*
X143542094Y-110316401D01*
X143465201Y-110351765D01*
X143386074Y-110388044D01*
X143310135Y-110422742D01*
X143291560Y-110431207D01*
X143160330Y-110490985D01*
X143045668Y-110543236D01*
X142945644Y-110588847D01*
X142858328Y-110628702D01*
X142781791Y-110663686D01*
X142714101Y-110694682D01*
X142653330Y-110722576D01*
X142597548Y-110748253D01*
X142544823Y-110772597D01*
X142493227Y-110796492D01*
X142440830Y-110820823D01*
X142392400Y-110843356D01*
X142326821Y-110873763D01*
X142266403Y-110901540D01*
X142213869Y-110925451D01*
X142171946Y-110944264D01*
X142143358Y-110956744D01*
X142131528Y-110961468D01*
X142104988Y-110976529D01*
X142075081Y-111003112D01*
X142047543Y-111034933D01*
X142028112Y-111065713D01*
X142022848Y-111080456D01*
X142021165Y-111099215D01*
X142019749Y-111135391D01*
X142018597Y-111186083D01*
X142017711Y-111248389D01*
X142017087Y-111319410D01*
X142016725Y-111396243D01*
X142016625Y-111475988D01*
X142016784Y-111555742D01*
G36*
X141968559Y-115940840D02*
G01*
X141971852Y-116061354D01*
X141977193Y-116166693D01*
X141985222Y-116261954D01*
X141996578Y-116352233D01*
X142011900Y-116442627D01*
X142031829Y-116538231D01*
X142056585Y-116642462D01*
X142100300Y-116804572D01*
X142147891Y-116951510D01*
X142201598Y-117088358D01*
X142263662Y-117220199D01*
X142336323Y-117352115D01*
X142421822Y-117489188D01*
X142445887Y-117525487D01*
X142565839Y-117687084D01*
X142702917Y-117840311D01*
X142855009Y-117983337D01*
X143020002Y-118114328D01*
X143195783Y-118231453D01*
X143372840Y-118329207D01*
X143445391Y-118364321D01*
X143503621Y-118389743D01*
X143550567Y-118406347D01*
X143589265Y-118415007D01*
X143622752Y-118416597D01*
X143654064Y-118411991D01*
X143657531Y-118411137D01*
X143701222Y-118392750D01*
X143739670Y-118363583D01*
X143767456Y-118328567D01*
X143778016Y-118301539D01*
X143779771Y-118282317D01*
X143781178Y-118245732D01*
X143782251Y-118194390D01*
X143783002Y-118130900D01*
X143783447Y-118057871D01*
X143783598Y-117977909D01*
X143783469Y-117893625D01*
X143783075Y-117807624D01*
X143782428Y-117722517D01*
X143781542Y-117640909D01*
X143780432Y-117565411D01*
X143779110Y-117498629D01*
X143777592Y-117443172D01*
X143775889Y-117401648D01*
X143774016Y-117376665D01*
X143773124Y-117371522D01*
X143755205Y-117335250D01*
X143721771Y-117299528D01*
X143671130Y-117262794D01*
X143628161Y-117237621D01*
X143531882Y-117177609D01*
X143434769Y-117103945D01*
X143341521Y-117020930D01*
X143256836Y-116932866D01*
X143185415Y-116844054D01*
X143163702Y-116812493D01*
X143087746Y-116681197D01*
X143023071Y-116538334D01*
X142972090Y-116390078D01*
X142937214Y-116242603D01*
X142934237Y-116225320D01*
X142925584Y-116156062D01*
X142919485Y-116071943D01*
X142915911Y-115977720D01*
X142914835Y-115878149D01*
X142916225Y-115777986D01*
X142920055Y-115681988D01*
X142926293Y-115594911D01*
X142934912Y-115521511D01*
X142938679Y-115498880D01*
X142963977Y-115388062D01*
X142999444Y-115270582D01*
X143042209Y-115155359D01*
X143069181Y-115093177D01*
X143084342Y-115057627D01*
X143094120Y-115029347D01*
X143096954Y-115013074D01*
X143096169Y-115011199D01*
X143083617Y-115005970D01*
X143055931Y-114996993D01*
X143017635Y-114985679D01*
X142986760Y-114977076D01*
X142906480Y-114954603D01*
X142811127Y-114926754D01*
X142699699Y-114893227D01*
X142571192Y-114853720D01*
X142424603Y-114807930D01*
X142404881Y-114801725D01*
X142342978Y-114782444D01*
X142287131Y-114765444D01*
X142240418Y-114751631D01*
X142205920Y-114741910D01*
X142186718Y-114737187D01*
X142184316Y-114736880D01*
X142175228Y-114746306D01*
X142162251Y-114772773D01*
X142146245Y-114813564D01*
X142128069Y-114865964D01*
X142108582Y-114927256D01*
X142088643Y-114994723D01*
X142069112Y-115065648D01*
X142050847Y-115137316D01*
X142034708Y-115207010D01*
X142032753Y-115216057D01*
X142010547Y-115325994D01*
X141993461Y-115426527D01*
X141981046Y-115522740D01*
X141972850Y-115619717D01*
X141968423Y-115722541D01*
X141967315Y-115836295D01*
X141968559Y-115940840D01*
G37*
X141968559Y-115940840D02*
X141971852Y-116061354D01*
X141977193Y-116166693D01*
X141985222Y-116261954D01*
X141996578Y-116352233D01*
X142011900Y-116442627D01*
X142031829Y-116538231D01*
X142056585Y-116642462D01*
X142100300Y-116804572D01*
X142147891Y-116951510D01*
X142201598Y-117088358D01*
X142263662Y-117220199D01*
X142336323Y-117352115D01*
X142421822Y-117489188D01*
X142445887Y-117525487D01*
X142565839Y-117687084D01*
X142702917Y-117840311D01*
X142855009Y-117983337D01*
X143020002Y-118114328D01*
X143195783Y-118231453D01*
X143372840Y-118329207D01*
X143445391Y-118364321D01*
X143503621Y-118389743D01*
X143550567Y-118406347D01*
X143589265Y-118415007D01*
X143622752Y-118416597D01*
X143654064Y-118411991D01*
X143657531Y-118411137D01*
X143701222Y-118392750D01*
X143739670Y-118363583D01*
X143767456Y-118328567D01*
X143778016Y-118301539D01*
X143779771Y-118282317D01*
X143781178Y-118245732D01*
X143782251Y-118194390D01*
X143783002Y-118130900D01*
X143783447Y-118057871D01*
X143783598Y-117977909D01*
X143783469Y-117893625D01*
X143783075Y-117807624D01*
X143782428Y-117722517D01*
X143781542Y-117640909D01*
X143780432Y-117565411D01*
X143779110Y-117498629D01*
X143777592Y-117443172D01*
X143775889Y-117401648D01*
X143774016Y-117376665D01*
X143773124Y-117371522D01*
X143755205Y-117335250D01*
X143721771Y-117299528D01*
X143671130Y-117262794D01*
X143628161Y-117237621D01*
X143531882Y-117177609D01*
X143434769Y-117103945D01*
X143341521Y-117020930D01*
X143256836Y-116932866D01*
X143185415Y-116844054D01*
X143163702Y-116812493D01*
X143087746Y-116681197D01*
X143023071Y-116538334D01*
X142972090Y-116390078D01*
X142937214Y-116242603D01*
X142934237Y-116225320D01*
X142925584Y-116156062D01*
X142919485Y-116071943D01*
X142915911Y-115977720D01*
X142914835Y-115878149D01*
X142916225Y-115777986D01*
X142920055Y-115681988D01*
X142926293Y-115594911D01*
X142934912Y-115521511D01*
X142938679Y-115498880D01*
X142963977Y-115388062D01*
X142999444Y-115270582D01*
X143042209Y-115155359D01*
X143069181Y-115093177D01*
X143084342Y-115057627D01*
X143094120Y-115029347D01*
X143096954Y-115013074D01*
X143096169Y-115011199D01*
X143083617Y-115005970D01*
X143055931Y-114996993D01*
X143017635Y-114985679D01*
X142986760Y-114977076D01*
X142906480Y-114954603D01*
X142811127Y-114926754D01*
X142699699Y-114893227D01*
X142571192Y-114853720D01*
X142424603Y-114807930D01*
X142404881Y-114801725D01*
X142342978Y-114782444D01*
X142287131Y-114765444D01*
X142240418Y-114751631D01*
X142205920Y-114741910D01*
X142186718Y-114737187D01*
X142184316Y-114736880D01*
X142175228Y-114746306D01*
X142162251Y-114772773D01*
X142146245Y-114813564D01*
X142128069Y-114865964D01*
X142108582Y-114927256D01*
X142088643Y-114994723D01*
X142069112Y-115065648D01*
X142050847Y-115137316D01*
X142034708Y-115207010D01*
X142032753Y-115216057D01*
X142010547Y-115325994D01*
X141993461Y-115426527D01*
X141981046Y-115522740D01*
X141972850Y-115619717D01*
X141968423Y-115722541D01*
X141967315Y-115836295D01*
X141968559Y-115940840D01*
%TD*%
D11*
%TO.C,U1*%
X154940000Y-78581250D03*
X154940000Y-81121250D03*
X154940000Y-83661250D03*
X154940000Y-86201250D03*
X154940000Y-88741250D03*
X154940000Y-91281250D03*
X154940000Y-93821250D03*
X154940000Y-96361250D03*
X154940000Y-98901250D03*
X154940000Y-101441250D03*
X154940000Y-103981250D03*
X154940000Y-106521250D03*
X154940000Y-109061250D03*
X154940000Y-111601250D03*
X154940000Y-114141250D03*
X127000000Y-114141250D03*
X127000000Y-111601250D03*
X127000000Y-109061250D03*
X127000000Y-106521250D03*
X127000000Y-103981250D03*
X127000000Y-101441250D03*
X127000000Y-98901250D03*
X127000000Y-96361250D03*
X127000000Y-93821250D03*
X127000000Y-91281250D03*
X127000000Y-88741250D03*
X127000000Y-86201250D03*
X127000000Y-83661250D03*
X127000000Y-81121250D03*
X127000000Y-78581250D03*
%TD*%
D12*
%TO.C,REF\u002A\u002A*%
X152400000Y-114122200D03*
X152400000Y-111582200D03*
X152400000Y-109042200D03*
X152400000Y-106502200D03*
X152400000Y-103962200D03*
X152400000Y-101422200D03*
X152400000Y-98882200D03*
X152400000Y-96342200D03*
X152400000Y-93802200D03*
X152400000Y-91262200D03*
X152400000Y-88722200D03*
X152400000Y-86182200D03*
X152400000Y-83642200D03*
X152400000Y-81102200D03*
D13*
X152400000Y-78562200D03*
%TD*%
D14*
%TO.C,D1*%
X142240000Y-121920000D03*
D15*
X139700000Y-121920000D03*
%TD*%
D16*
%TO.C,R1*%
X146050000Y-81280000D03*
D17*
X135890000Y-81280000D03*
%TD*%
D18*
%TO.C,SW1*%
X132715000Y-106735000D03*
X132715000Y-102235000D03*
X139215000Y-106735000D03*
X139215000Y-102235000D03*
%TD*%
D16*
%TO.C,R2*%
X135890000Y-114300000D03*
D17*
X146050000Y-114300000D03*
%TD*%
M02*
